<svg width="234" height="167" viewBox="0 0 234 167" fill="none" xmlns="http://www.w3.org/2000/svg">
<path d="M86.1642 163.972L75.5674 158.151M230.716 72.9226L231.182 77.8422C231.589 82.133 229.453 86.266 225.717 88.4152L93.3262 164.576C90.1725 166.39 86.1987 164.336 85.8553 160.714L85.4654 156.602C85.0576 152.3 87.2055 148.159 90.9562 146.014L224.46 69.678C227.105 68.1658 230.428 69.8895 230.716 72.9226V72.9226ZM230.716 72.9226V72.9226C232.437 71.5239 233.241 69.2873 232.806 67.113L230.652 56.3547M230.652 56.3547L82.2366 141.513C77.4738 144.246 74.7483 149.511 75.2666 154.977L75.5674 158.151M230.652 56.3547L204.432 42.0154M75.5674 158.151L68.6524 154.081M4.53551 102.898V102.898C0.115998 105.66 0.0602578 112.077 4.43112 114.916L10.5733 118.905M4.53551 102.898V102.898C5.44505 98.9694 7.93713 95.5912 11.4221 93.5626L139.575 18.9658C141.61 17.7809 144.192 18.1399 145.827 19.8351V19.8351M4.53551 102.898L145.827 19.8351M145.827 19.8351L146.161 19.6385C152.376 15.9849 160.117 16.135 166.186 20.0269V20.0269M10.5733 118.905L9.98894 112.742C9.76952 110.427 10.9069 108.194 12.908 107.011L150.332 25.7434C152.177 24.6521 154.421 24.4666 156.421 25.2402L159.511 26.4355M10.5733 118.905L68.6524 154.081M198.545 48.3492L211.04 55.2173C212.402 55.9656 212.427 57.9126 211.086 58.6966L74.0361 138.813C70.623 140.808 68.5432 144.481 68.5882 148.434L68.6524 154.081M18.3016 115.661L63.6321 143.507M86.7971 69.9928L133.076 97.2466M191.045 57.0961L195.808 59.658L188.174 63.8974L145.165 39.3471L151.804 35.2021M178.478 14.5925L204.022 29.7493M166.186 20.0269L182.228 1.17867L182.511 4.16528L187.798 1.65511L187.322 7.22494L193.651 5.11816L193.127 10.1902L198.912 7.63286L199.431 13.1083L206.85 11.9027L205.782 16.5242L212.253 15.9107L210.592 19.5838L216.471 18.022L216.398 22.5491L220.736 20.6311L221.066 24.1155L204.432 42.0154M166.186 20.0269L152.134 38.6864L187.702 58.9198L204.432 42.0154M94.667 68.2422L136.136 92.4363L179.498 67.7335L135.587 44.2731L94.667 68.2422Z" stroke="white" stroke-width="2" stroke-linecap="round" stroke-linejoin="round"/>
</svg>
