<svg width="50" height="50" viewBox="0 0 50 50" fill="none" xmlns="http://www.w3.org/2000/svg">
    <mask id="path-1-inside-1_2_238" fill="white">
    <path d="M37.834 27.834H27.834V37.834H22.834V27.834H12.834V22.834H22.834V12.834H27.834V22.834H37.834V27.834Z"/>
    </mask>
    <path d="M37.834 27.834H27.834V37.834H22.834V27.834H12.834V22.834H22.834V12.834H27.834V22.834H37.834V27.834Z" fill="white"/>
    <path d="M25.334 -0.666016C10.9817 -0.666016 -0.666016 10.9817 -0.666016 25.334H1.33398C1.33398 12.0863 12.0863 1.33398 25.334 1.33398V-0.666016ZM-0.666016 25.334C-0.666016 39.6863 10.9817 51.334 25.334 51.334V49.334C12.0863 49.334 1.33398 38.5817 1.33398 25.334H-0.666016ZM25.334 51.334C39.6863 51.334 51.334 39.6863 51.334 25.334H49.334C49.334 38.5817 38.5817 49.334 25.334 49.334V51.334ZM51.334 25.334C51.334 10.9817 39.6863 -0.666016 25.334 -0.666016V1.33398C38.5817 1.33398 49.334 12.0863 49.334 25.334H51.334ZM37.834 27.834V29.834H39.834V27.834H37.834ZM27.834 27.834V25.834H25.834V27.834H27.834ZM27.834 37.834V39.834H29.834V37.834H27.834ZM22.834 37.834H20.834V39.834H22.834V37.834ZM22.834 27.834H24.834V25.834H22.834V27.834ZM12.834 27.834H10.834V29.834H12.834V27.834ZM12.834 22.834V20.834H10.834V22.834H12.834ZM22.834 22.834V24.834H24.834V22.834H22.834ZM22.834 12.834V10.834H20.834V12.834H22.834ZM27.834 12.834H29.834V10.834H27.834V12.834ZM27.834 22.834H25.834V24.834H27.834V22.834ZM37.834 22.834H39.834V20.834H37.834V22.834ZM37.834 25.834H27.834V29.834H37.834V25.834ZM25.834 27.834V37.834H29.834V27.834H25.834ZM27.834 35.834H22.834V39.834H27.834V35.834ZM24.834 37.834V27.834H20.834V37.834H24.834ZM22.834 25.834H12.834V29.834H22.834V25.834ZM14.834 27.834V22.834H10.834V27.834H14.834ZM12.834 24.834H22.834V20.834H12.834V24.834ZM24.834 22.834V12.834H20.834V22.834H24.834ZM22.834 14.834H27.834V10.834H22.834V14.834ZM25.834 12.834V22.834H29.834V12.834H25.834ZM27.834 24.834H37.834V20.834H27.834V24.834ZM35.834 22.834V27.834H39.834V22.834H35.834Z" fill="white" mask="url(#path-1-inside-1_2_238)"/>
    <circle cx="25" cy="25" r="24.5" stroke="white"/>
    </svg>
    