<svg width="280" height="399" viewBox="0 0 280 399" fill="none" xmlns="http://www.w3.org/2000/svg">
    <g clip-path="url(#clip0_501_596)">
    <path d="M194.664 271.902C196.273 275.921 201.099 290.87 203.11 294.888C205.121 300.113 206.73 304.935 208.338 310.561C209.143 314.579 210.751 318.196 212.36 322.215L215.98 337.887C216.382 339.495 217.588 341.102 216.784 342.308C213.164 345.924 207.936 347.13 203.512 349.139C203.11 349.541 202.306 349.943 201.904 350.345C186.219 357.176 171.741 364.812 156.458 372.849C153.241 374.858 150.023 376.466 146.806 378.475C136.35 384.101 126.295 390.129 115.437 394.951C110.611 396.558 106.187 398.166 100.958 398.568C96.1324 398.97 91.3063 398.166 86.4803 396.96C78.839 395.353 72.1187 391.7 64.3206 389.546C62.3098 388.991 59.5348 388.119 57.5239 387.316C50.687 384.101 43.4479 381.288 36.611 377.269C29.3719 372.849 21.3928 368.581 14.7007 362.843C14.2261 362.441 14.6605 362.81 14.0894 362.401C11.0851 360.226 8.45897 357.98 7.25245 355.167C5.2416 351.55 4.83945 347.13 5.81672 342.975" stroke="white" stroke-width="2" stroke-miterlimit="10"/>
    <path fill-rule="evenodd" clip-rule="evenodd" d="M106.786 284.223L8.56349 336.842C-10.8172 346.604 88.294 396.233 107.856 386.854L207.132 336.842L109.484 285.433L106.786 284.223Z" stroke="white" stroke-width="2" stroke-miterlimit="10"/>
    <path d="M207.132 336.959C190.727 295.881 199.651 315.821 185.744 274.579" stroke="white" stroke-width="2" stroke-miterlimit="10"/>
    <path d="M96.6833 252.838C100.753 262.925 103.971 273.775 106.786 284.223C116.036 288.242 124.481 293.064 133.731 297.886C141.775 301.905 149.416 305.522 157.459 309.54C173.949 318.381 190.643 329.159 207.148 336.959" stroke="white" stroke-width="2" stroke-miterlimit="10"/>
    <path fill-rule="evenodd" clip-rule="evenodd" d="M248.986 148.725L274.447 161.548C276.533 162.641 278.134 164.475 278.935 166.688C279.737 168.901 279.681 171.333 278.779 173.507L256.068 226.761C255.646 227.802 255.011 228.743 254.205 229.524C253.398 230.305 252.437 230.91 251.384 231.3C250.33 231.689 249.207 231.855 248.086 231.786C246.964 231.717 245.87 231.416 244.872 230.901L219.41 218.077L248.986 148.725Z" stroke="white" stroke-width="2" stroke-miterlimit="10"/>
    <path fill-rule="evenodd" clip-rule="evenodd" d="M100.154 8.00605L87.7712 1.76921C86.1834 0.943424 84.4406 0.457702 82.6543 0.343082C80.8679 0.228463 79.0773 0.487471 77.3968 1.10355C75.7163 1.71963 74.1829 2.67923 72.8946 3.92104C71.6063 5.16284 70.5914 6.65954 69.9148 8.31548L2.02421 167.512C-0.988057 174.572 2.12476 183.104 8.96972 186.552L180.87 273.132C182.458 273.958 184.201 274.443 185.987 274.558C187.773 274.673 189.564 274.414 191.244 273.798C192.925 273.181 194.458 272.222 195.747 270.98C197.035 269.738 198.05 268.242 198.726 266.586L266.625 107.369C269.637 100.309 266.524 91.7774 259.675 88.3294L100.154 8.00605Z" stroke="white" stroke-width="2" stroke-miterlimit="10"/>
    <path fill-rule="evenodd" clip-rule="evenodd" d="M248.986 148.725L259.442 153.989C261.524 155.083 263.122 156.915 263.922 159.125C264.721 161.336 264.666 163.765 263.766 165.936L241.055 219.195C240.632 220.235 239.998 221.175 239.191 221.956C238.384 222.737 237.423 223.341 236.37 223.731C235.316 224.12 234.193 224.285 233.072 224.216C231.951 224.147 230.856 223.845 229.858 223.33L219.402 218.069L248.978 148.717L248.986 148.725Z" stroke="white" stroke-width="2" stroke-miterlimit="10"/>
    <path fill-rule="evenodd" clip-rule="evenodd" d="M229.118 221.843L258.573 154.568C258.612 154.477 258.633 154.38 258.633 154.282C258.634 154.183 258.615 154.086 258.578 153.995C258.54 153.904 258.485 153.822 258.415 153.752C258.345 153.683 258.262 153.628 258.171 153.591C257.984 153.514 257.775 153.513 257.587 153.588C257.399 153.663 257.248 153.808 257.166 153.993L227.707 221.264C227.668 221.355 227.648 221.452 227.647 221.551C227.646 221.649 227.665 221.747 227.702 221.838C227.74 221.93 227.795 222.013 227.865 222.082C227.935 222.152 228.018 222.207 228.109 222.245C228.296 222.322 228.506 222.323 228.693 222.248C228.881 222.173 229.032 222.027 229.114 221.843H229.118Z" stroke="white" stroke-width="2" stroke-miterlimit="10"/>
    <path fill-rule="evenodd" clip-rule="evenodd" d="M83.6047 18.8845L18.3041 172.021L185.032 256.009L250.333 102.845L83.6047 18.8845Z" stroke="white" stroke-width="2" stroke-miterlimit="10"/>
    <path fill-rule="evenodd" clip-rule="evenodd" d="M111.789 238.339L76.1726 220.4L88.5957 248.791L124.212 266.726L111.789 238.339Z" stroke="white" stroke-width="2" stroke-linejoin="round"/>
    <path fill-rule="evenodd" clip-rule="evenodd" d="M105.04 241.377L90.148 233.878L95.3441 245.749L110.237 253.252L105.04 241.377Z" stroke="white" stroke-width="2" stroke-miterlimit="10"/>
    <path fill-rule="evenodd" clip-rule="evenodd" d="M124.212 266.726L140.633 252.866L111.789 238.339L124.212 266.726Z" stroke="white" stroke-width="2" stroke-linejoin="round"/>
    </g>
    <defs>
    <clipPath id="clip0_501_596">
    <rect width="279.039" height="398.772" fill="white" transform="translate(0.668884 0.101562)"/>
    </clipPath>
    </defs>
    </svg>
    