<svg width="259" height="161" viewBox="0 0 259 161" fill="none" xmlns="http://www.w3.org/2000/svg">
<path d="M100.36 143.625L93.9455 147.391C89.1724 150.194 83.2898 150.33 78.3919 147.752L13.0341 113.35C8.06021 110.732 5.82473 104.812 7.82672 99.5601V99.5601M100.36 143.625L99.9673 154.877M100.36 143.625L106.167 140.215M99.9673 154.877L98.0947 156.016C90.5329 160.614 81.1039 160.871 73.3026 156.693L7.90118 121.662C-0.904142 116.946 -0.946628 104.336 7.82672 99.5601V99.5601M99.9673 154.877L106.338 150.405M106.167 140.215L106.338 150.405M106.167 140.215L244.749 54.6939L246.787 64.5983M106.338 150.405L242.562 67.5783M240.388 57.3852L242.562 67.5783M242.562 67.5783L246.787 64.5983M246.787 64.5983L251.747 61.0008C260.13 54.9204 259.239 42.1575 250.091 37.3019L186.082 3.3256C180.199 0.202735 173.11 0.388644 167.398 3.81559L7.82672 99.5601M9.79778 117.48C13.434 119.63 19.1088 122.985 19.1088 122.985M45.7712 97.507L99.2891 124.154M241.966 48.2823L93.7255 140.921C90.4038 142.997 86.2288 143.15 82.7642 141.323L15.7506 105.977C14.3678 105.247 14.3189 103.285 15.6636 102.487L171.107 10.3118C174.792 8.1267 179.362 8.07181 183.098 10.1678L241.844 43.1218C243.832 44.237 243.899 47.0743 241.966 48.2823Z" stroke="white" stroke-width="2" stroke-linecap="round" stroke-linejoin="round"/>
</svg>
