<svg width="170" height="215" viewBox="0 0 170 215" fill="none" xmlns="http://www.w3.org/2000/svg">
<path d="M80.1244 98.8165C75.6687 101.198 65.9144 99.7343 57.7858 97.8509C49.0564 95.8283 40.8411 92.134 32.9201 87.9447L28.0425 85.365C14.9544 78.4428 5.37789 66.3388 1.65198 52.0094V52.0094C1.11787 49.9552 1.9411 47.7884 3.70478 46.6076C5.34966 45.5064 7.38177 44.1459 8.97184 43.0813M80.1244 98.8165C83.9571 84.8082 61.7246 66.64 54.2847 61.0268C52.7192 59.8456 51.1804 58.6741 49.5953 57.5193C43.5473 53.113 26.5754 42.1178 8.97184 43.0813M80.1244 98.8165C85.7778 95.7945 92.1404 92.3935 98.6119 88.9342M80.1244 98.8165C75.9046 103.312 75.1245 108.991 77.976 114.457C80.6565 119.596 85.1095 122.114 90.8945 121.762M80.1244 98.8165C86.6538 97.8053 92.4559 101.295 94.6227 107.537C96.5059 112.962 95.1967 117.958 90.8945 121.762M8.97184 43.0813C16.5965 37.9767 25.336 32.1257 34.0903 26.2648M140.939 66.3089C143.411 64.9871 145.096 63.9321 146.246 62.6486C152.745 55.3969 153.818 46.1631 153.47 39.3313C153.155 33.1445 148.851 28.1935 143.339 25.3668L107.94 7.21365C91.6249 -1.15291 72.0192 0.298521 56.9324 10.718C50.0343 15.4822 42.1873 20.8439 34.0903 26.2648M140.939 66.3089C140.939 66.3089 143.819 74.3313 145.665 79.4717M140.939 66.3089C137.06 68.3824 130.588 71.8416 122.938 75.9311C115.51 79.9017 106.97 84.4665 98.6119 88.9342M140.939 66.3089L140.486 58.0363C140.244 53.6139 135.458 50.9691 131.585 53.1172L102.047 69.4993C96.8825 72.3634 90.5014 68.837 90.1786 62.9405L90.0696 60.9496C89.7429 54.9794 86.1146 49.6896 80.6626 47.2348L34.0903 26.2648M141.464 213.135C130.928 213.712 125.235 211.129 122.432 209.087C120.743 207.857 120.481 205.665 121.095 203.668C123.563 195.649 129.454 173.956 126.004 159.4C121.579 140.728 98.2467 118.856 98.2467 118.856M141.464 213.135C153.905 193.426 159.667 134.022 143.679 116.369C127.69 98.7167 144.801 100.284 145.665 79.4717M141.464 213.135V213.135C144.24 212.983 146.717 211.346 147.946 208.852L158.375 187.679C168.848 166.419 172.08 142.942 163.411 120.885C157.036 104.668 149.519 87.5222 145.665 79.4717M98.2467 118.856C98.2467 118.856 104.921 116.32 107.432 112.845C113.261 104.778 98.6119 88.9342 98.6119 88.9342M98.2467 118.856C98.2467 118.856 93.7657 120.627 90.8945 121.762M8.24883 48.1692C3.51291 54.4374 15.7754 73.889 32 83.0002C48.0264 92.0002 70.5566 97.838 74.414 95.1231C80.91 90.5512 63.3255 72.9222 50.1167 62.9029C34.4435 51.0143 9.99854 45.8533 8.24883 48.1692Z" stroke="white" stroke-width="2"/>
</svg>
