<svg width="284" height="376" viewBox="0 0 284 376" fill="none" xmlns="http://www.w3.org/2000/svg">
<path d="M250.46 116.361L263.73 78.443C266.925 69.3144 261.871 59.3632 252.615 56.5582L72.1009 1.85308C67.1083 0.340058 61.7915 2.91923 59.8892 7.77687L2.27977 154.889C-0.789085 162.726 3.18882 171.553 11.0924 174.445L83.2983 200.867M250.46 116.361L223.858 186.964M250.46 116.361L259.377 120.629M223.858 186.964L232.773 190.852M223.858 186.964L203.534 240.905M232.773 190.852L259.377 120.629M232.773 190.852L243.04 195.331M259.377 120.629L269.155 125.309M269.155 125.309L276.767 128.952C281.475 131.205 283.658 136.702 281.779 141.572L262.2 192.309C260.151 197.618 254.089 200.15 248.872 197.874L243.04 195.331M269.155 125.309L243.04 195.331M83.2983 200.867L95.4841 225.222L104.715 229.085M83.2983 200.867L119.224 216.377M132.409 240.676L119.224 216.377M132.409 240.676L150.199 229.16M132.409 240.676L104.715 229.085M119.224 216.377L150.199 229.16M150.199 229.16L194.337 248.215M194.337 248.215V248.215C198.338 247.991 201.83 245.427 203.243 241.677L203.534 240.905M194.337 248.215L218.177 305.469M218.177 305.469L114.919 259.186M218.177 305.469L134.543 354.079C115.463 365.169 91.9263 365.281 72.7419 354.373L14.7501 321.4M114.919 259.186L104.715 229.085M114.919 259.186L14.7501 321.4M203.534 240.905L228.634 305.192C229.887 308.402 228.617 312.048 225.639 313.784L134.955 366.669C116.077 377.678 92.7479 377.731 73.8199 366.808L15.0811 332.911C10.7195 330.394 10.5404 324.164 14.7501 321.4V321.4M72.227 16.1972L17.7035 159.981L191.754 227.327L247.937 71.4316L72.227 16.1972ZM114.862 221.129L119.256 229.396L101.806 221.862L96.8849 213.124L114.862 221.129Z" stroke="white" stroke-width="2"/>
</svg>
