<svg width="1440" height="407" viewBox="0 0 1440 407" fill="none" xmlns="http://www.w3.org/2000/svg">
<path fill-rule="evenodd" clip-rule="evenodd" d="M0 129.47L48 158.241C96 187.012 192 244.555 288 244.555C384 244.555 480 187.012 576 179.82C672 172.627 768 215.784 864 266.133C960 316.483 1056 374.025 1152 395.603C1248 417.182 1344 402.796 1392 395.603L1440 388.411V0H1392C1344 0 1248 0 1152 0C1056 0 960 0 864 0C768 0 672 0 576 0C480 0 384 0 288 0C192 0 96 0 48 0H0V129.47Z" fill="#2B6BF3"/>
</svg>
