<svg width="3214" height="124" viewBox="0 0 3214 124" fill="none" xmlns="http://www.w3.org/2000/svg">
<g clip-path="url(#clip0_272_4386)">
<rect width="3214" height="124" transform="matrix(-1 0 0 1 3214 0.000274658)" fill="#2B6BF3"/>
<path fill-rule="evenodd" clip-rule="evenodd" d="M3214 80.9471L3173.82 75.1649C3130.97 69.3834 3047.94 57.8193 2967.59 44.3282C2884.57 30.8371 2801.54 15.4187 2718.51 9.63682C2638.16 3.85489 2555.13 7.70946 2472.1 9.63682C2389.07 11.5641 2308.72 11.5641 2225.69 21.2006C2142.67 30.8371 2059.64 50.1101 1976.61 48.1828C1896.26 46.2555 1813.23 23.1279 1730.21 21.2006C1647.17 19.2733 1537.93 36.619 1483.8 52.0375C1429.67 67.4556 1371.72 75.1649 1291.37 67.4556C1208.34 59.7466 1094.95 58.7767 1036.83 67.4556C978.712 76.135 903.622 124 775.923 124C648.231 124 575.84 53.9648 495.493 50.1101C412.46 46.2555 329.433 69.3834 246.407 67.4556C166.06 65.5285 83.0266 38.5463 40.1732 25.0552L-8.34465e-07 11.5641V0.000274658H40.1732C83.0266 0.000274658 166.06 0.000274658 246.407 0.000274658C329.433 0.000274658 412.46 0.000274658 495.493 0.000274658C575.84 0.000274658 658.867 0.000274658 741.9 0.000274658C824.927 0.000274658 905.28 0.000274658 988.307 0.000274658C1071.33 0.000274658 1154.36 0.000274658 1237.39 0.000274658C1317.74 0.000274658 1400.77 0.000274658 1483.8 0.000274658C1566.83 0.000274658 1647.17 0.000274658 1730.21 0.000274658C1813.23 0.000274658 1896.26 0.000274658 1976.61 0.000274658C2059.64 0.000274658 2142.67 0.000274658 2225.69 0.000274658C2308.72 0.000274658 2389.07 0.000274658 2472.1 0.000274658C2555.13 0.000274658 2638.16 0.000274658 2718.51 0.000274658C2801.54 0.000274658 2884.57 0.000274658 2967.59 0.000274658C3047.94 0.000274658 3130.97 0.000274658 3173.82 0.000274658H3214V80.9471Z" fill="white"/>
</g>
<defs>
<clipPath id="clip0_272_4386">
<rect width="3214" height="124" fill="white" transform="matrix(-1 0 0 1 3214 0.000274658)"/>
</clipPath>
</defs>
</svg>
