<svg width="640" height="181" viewBox="0 0 640 181" fill="none" xmlns="http://www.w3.org/2000/svg">
<path fill-rule="evenodd" clip-rule="evenodd" d="M1 163.25L27.625 155.375C54.25 147.5 107.5 131.75 160.75 116C214 100.25 267.25 84.5 320.5 87.125C373.75 89.75 427 110.75 480.25 108.125C533.5 105.5 586.75 79.25 613.375 66.125L640 53V179H613.375C586.75 179 533.5 179 480.25 179C427 179 373.75 179 320.5 179C267.25 179 214 179 160.75 179C107.5 179 54.25 179 27.625 179H1V163.25Z" fill="#F8FAFF"/>
<path fill-rule="evenodd" clip-rule="evenodd" d="M0 54.3H25.1311C50.2622 54.3 100.524 54.3 150.787 72.4C201.049 90.5 251.311 126.7 301.573 123.683C351.835 120.667 439.951 78.4333 490.213 51.2833C540.476 24.1333 590.738 12.0667 615.869 6.03333L641 0V181H615.869C590.738 181 540.476 181 490.213 181C439.951 181 351.835 181 301.573 181C251.311 181 201.049 181 150.787 181C100.524 181 50.2622 181 25.1311 181H0V54.3Z" fill="#407AF4"/>
</svg>
