<svg width="1020" height="288" viewBox="0 0 1020 288" fill="none" xmlns="http://www.w3.org/2000/svg">
<path fill-rule="evenodd" clip-rule="evenodd" d="M0 196.385L34 176.026C68 155.667 136 114.949 204 114.949C272 114.949 340 155.667 408 160.757C476 165.846 544 135.308 612 99.6797C680 64.0516 748 23.3337 816 8.06448C884 -7.20473 952 2.97474 986 8.06448L1020 13.1542V288H986C952 288 884 288 816 288C748 288 680 288 612 288C544 288 476 288 408 288C340 288 272 288 204 288C136 288 68 288 34 288H0V196.385Z" fill="#2B6BF3"/>
<path opacity="0.1" d="M989.301 146.297L1020 130.552V288H989.301H833.958H647.911H461.867H275.823H89.7777H0V50.4585C27.2339 53.121 58.3878 54.4716 89.7777 51.8283C152.103 46.5801 213.497 25.587 275.823 30.8353C338.147 36.0835 399.542 67.5731 461.867 109.559C524.191 151.545 585.586 204.028 647.911 225.021C710.234 246.014 771.632 235.517 833.958 214.525C896.283 193.531 957.675 162.042 989.301 146.297Z" fill="#2B6BF3"/>
</svg>
