<svg width="1200" height="353" viewBox="0 0 1200 353" fill="none" xmlns="http://www.w3.org/2000/svg">
<path fill-rule="evenodd" clip-rule="evenodd" d="M1200 245.159L1160 221.207C1120 197.255 1040 149.352 960 149.352C880 149.352 800 197.255 720 203.243C640 209.231 560 173.303 480 131.388C400 89.4725 320 41.5691 240 23.6053C160 5.64152 80 17.6174 40 23.6053L0 29.5932V352.941H40C80 352.941 160 352.941 240 352.941C320 352.941 400 352.941 480 352.941C560 352.941 640 352.941 720 352.941C800 352.941 880 352.941 960 352.941C1040 352.941 1120 352.941 1160 352.941H1200V245.159Z" fill="#2B6BF3"/>
<path opacity="0.1" d="M994.722 230.55C1067.96 204.321 1140.1 164.977 1177.26 145.305L1200 132.904V322.353H1177.26H994.722H776.111H557.5H338.889H120.278H0V23.8779C35.2422 28.2315 77.5742 31.0965 120.278 27.2729C193.512 20.7156 265.654 -5.51373 338.889 1.0436C412.123 7.60093 484.265 46.9449 557.5 99.4036C630.735 151.862 702.876 217.436 776.111 243.665C849.346 269.894 921.487 256.78 994.722 230.55Z" fill="#2B6BF3"/>
</svg>
