<svg width="2869" height="1355" viewBox="0 0 2869 1355" fill="none" xmlns="http://www.w3.org/2000/svg">
<path opacity="0.1" d="M1908.54 305.395C1996.42 270.651 2029.38 268 2082.59 235.976C2135.8 203.952 2149.38 190.5 2195.38 178.5C2241.38 166.5 2311.61 180.454 2333.88 245.5C2354.38 305.395 2427.26 428.532 2546.5 399C2653.5 372.5 2782.71 408 2811 481C2845.5 570 2769 702.5 2635.5 783.5C2502 864.5 2544.12 982.5 2479 1111C2420.21 1227 2217.21 1252.07 2154.87 1275.73L2106.87 1282.8C2058.87 1289.87 1962.87 1304.01 1866.87 1282.8C1770.87 1261.59 1674.87 1205.04 1578.87 1155.56C1482.87 1106.07 1386.87 1063.66 1290.87 1070.73C1194.87 1077.8 1098.87 1134.35 1002.87 1134.35C906.874 1134.35 850.214 1096.99 762.874 1049.52C743.76 1039.13 733.228 1032.93 714.874 1021.24C667.876 991.329 581.976 897.2 516.376 858C450.776 818.8 362.876 835.822 281.374 829C167.874 819.5 18.4762 786.074 54.8743 595C86.877 427 165.965 452 196.376 342.5C245.876 164.267 385.877 258.524 489.377 186.5C572.177 128.881 583.879 76.0647 667.877 36.1267C718.879 11.8774 807.964 41.1916 859.209 36.1267C947.09 27.4406 1033.66 -7.30369 1121.54 1.38239C1209.42 10.0685 1295.99 62.1849 1383.87 131.674C1471.76 201.162 1558.33 288.023 1646.21 322.767C1734.09 357.511 1820.66 340.139 1908.54 305.395Z" fill="#2B6BF3"/>
<path d="M2106.87 267.593C2195.32 321 2320.49 245.855 2380.38 374C2440.26 502.145 2530.93 492 2682 492C2826 492 2902.21 586.872 2853.5 719.5C2812 832.5 2786.88 946.381 2812 1040.5C2853.5 1196 2709.38 1312.5 2587.38 1345C2437.66 1384.88 2331.88 1293.29 2240.38 1265.5C2148.87 1237.71 2156.07 1240.63 2115.27 1233.41L2112.94 1233C2071.5 1225.65 1993.76 1211.88 1914.87 1218.97C1834.47 1226.19 1755.27 1255.07 1674.87 1247.85C1594.47 1240.63 1515.27 1197.3 1434.87 1139.53C1354.47 1081.76 1275.27 1009.54 1194.87 980.657C1114.47 951.772 1035.27 966.215 954.868 995.1C874.468 1023.99 895.56 1018.46 754.469 1088.98C613.377 1159.5 524.377 1016 401.377 1041.5C278.377 1067 182.878 1018.5 141.377 916.5C98.3254 810.687 109.205 731.021 69.8774 675.5C18.877 603.5 -17.6232 505 8.87737 428.5C35.3779 352 105.377 297.267 228.876 287.5C379.482 275.59 358.226 182.002 432.377 132.5C504.886 84.0951 571.886 98.0003 620.878 86.5003C669.869 75.0003 688.878 53.5 762.87 28.481C836.862 3.46198 906.869 6.74356 1002.87 28.481C1098.87 50.2184 1194.87 108.185 1290.87 158.905C1386.87 209.626 1482.87 253.101 1578.87 245.855C1674.87 238.609 1770.87 180.643 1866.87 180.643C1962.87 180.643 2018.42 214.185 2106.87 267.593Z" fill="#2B6BF3"/>
</svg>
