<svg width="2832" height="124" viewBox="0 0 2832 124" fill="none" xmlns="http://www.w3.org/2000/svg">
<path fill-rule="evenodd" clip-rule="evenodd" d="M7.07661e-06 43.0533L35.4 48.8354C73.1603 54.6169 146.32 66.1811 217.12 79.6722C290.28 93.1634 363.44 108.582 436.6 114.364C507.4 120.146 580.557 116.291 653.721 114.364C726.88 112.436 797.683 112.437 870.841 102.8C944 93.1635 1017.16 73.8904 1090.32 75.8177C1161.12 77.745 1234.28 100.873 1307.44 102.8C1380.6 104.727 1476.86 87.3815 1524.56 71.9631C1572.26 56.5449 1623.32 48.8356 1694.11 56.5449C1767.27 64.2539 1867.19 65.2239 1918.4 56.5449C1969.61 47.8656 2035.78 0.000174159 2148.3 0.000183996C2260.81 0.000193832 2324.6 70.0359 2395.4 73.8905C2468.56 77.7451 2541.72 54.6172 2614.88 56.545C2685.68 58.4722 2758.84 85.4544 2796.6 98.9455L2832 112.437L2832 124L2796.6 124C2758.84 124 2685.68 124 2614.88 124C2541.72 124 2468.56 124 2395.4 124C2324.6 124 2251.44 124 2178.28 124C2105.12 124 2034.32 124 1961.16 124C1888 124 1814.84 124 1741.68 124C1670.88 124 1597.72 124 1524.56 124C1451.4 124 1380.6 124 1307.44 124C1234.28 124 1161.12 124 1090.32 124C1017.16 124 944 124 870.841 124C797.683 124 726.88 124 653.721 124C580.557 124 507.4 124 436.6 124C363.44 124 290.28 124 217.12 124C146.32 124 73.1603 124 35.4 124L0 124L7.07661e-06 43.0533Z" fill="white"/>
</svg>
