<svg width="640" height="68" viewBox="0 0 640 68" fill="none" xmlns="http://www.w3.org/2000/svg">
<path fill-rule="evenodd" clip-rule="evenodd" d="M-4.60304e-06 15.3474L26.6667 16.6263C53.3333 17.9052 106.667 20.4631 160 20.4631C213.333 20.4631 266.667 17.9052 320 26.8578C373.333 35.8104 426.667 56.2735 480 63.9471C533.333 71.6207 586.667 66.505 613.333 63.9471L640 61.3892L640 -2.54482e-06L613.333 -2.13545e-07C586.667 2.11773e-06 533.333 6.78028e-06 480 1.14428e-05C426.667 1.61054e-05 373.333 2.07679e-05 320 2.54305e-05C266.667 3.0093e-05 213.333 3.47556e-05 160 3.94181e-05C106.667 4.40807e-05 53.3333 4.87432e-05 26.6667 5.10745e-05L-5.94474e-06 5.34058e-05L-4.60304e-06 15.3474Z" fill="#407AF4"/>
</svg>
