<svg width="242" height="15" viewBox="0 0 242 15" fill="none" xmlns="http://www.w3.org/2000/svg">
<path fill-rule="evenodd" clip-rule="evenodd" d="M6.49386 0.287548C6.41475 0.434725 4.93841 3.74375 3.21286 7.64089C1.48747 11.5379 0.0422884 14.7803 0.00132411 14.8463C-0.0396401 14.9123 0.920943 14.9663 2.13577 14.9663H4.34443L5.53298 12.0819H12.6274L13.8219 14.9638L18.3374 14.9663L17.8206 13.8199C17.5364 13.1894 16.0517 9.84469 14.5214 6.38715L11.7388 0.100731L9.18815 0.0603481C6.85482 0.0232212 6.62536 0.0425998 6.49386 0.287548ZM19.2392 14.9663H23.0982L23.1083 9.67828C23.1148 6.21483 23.1671 4.49235 23.2595 4.68612C23.3373 4.84883 24.2204 7.21178 25.2222 9.93713L27.0435 14.8923L30.643 14.9751L30.9347 14.1942C31.0953 13.7646 31.9459 11.4496 32.8251 9.04964C33.7045 6.6497 34.4803 4.62296 34.5495 4.5456C34.6185 4.46839 34.675 6.78135 34.675 9.68567V14.9663H38.534V0.0267727H32.3628L30.677 4.68612C29.75 7.24876 28.9512 9.34532 28.9019 9.34517C28.8526 9.34502 28.0503 7.24832 27.1186 4.68582L25.4248 0.0267727H19.2392V14.9663ZM41.6508 14.9663H54.4151V11.7121H45.6582V9.19755H54.1182V5.79549H45.6582V3.42884H54.4151V0.0267727H41.6508V14.9663ZM57.0866 14.9663H60.9456V9.78922H62.5238L67.0433 14.9663H71.9494L69.5643 12.3798C68.2525 10.9573 67.1793 9.72591 67.1793 9.64337C67.1793 9.56083 67.271 9.49339 67.3831 9.49339C67.7725 9.49339 68.8897 8.91711 69.4846 8.40931C69.8136 8.12842 70.2811 7.54179 70.5235 7.10588C70.9251 6.38301 70.964 6.18939 70.964 4.90799C70.964 3.71816 70.9097 3.39689 70.6096 2.81188C69.838 1.30743 68.5572 0.45558 66.6552 0.18164C66.0863 0.0996948 63.7007 0.0313565 61.3538 0.0297294L57.0866 0.0267727V14.9663ZM73.2645 14.9663H77.2718L77.1977 0.100731L73.2645 0.0181916V14.9663ZM85.5823 0.170843C81.5129 0.694613 79.1328 3.74567 79.4029 8.09233C79.5509 10.4733 80.2307 12.04 81.6705 13.3189C82.957 14.4617 84.0606 14.8499 86.2588 14.9327L88.0473 15L89.5481 11.7861L87.974 11.6995C85.8787 11.5845 85.2114 11.3802 84.4496 10.6211C82.9167 9.09328 83.0195 5.5958 84.6336 4.36899C85.535 3.68384 86.0506 3.59021 88.9601 3.58326L91.6688 3.57675V0.0267727L89.0343 0.0461515C87.5853 0.0568014 86.032 0.11286 85.5823 0.170843ZM95.9283 1.54291C95.5598 2.37671 94.1093 5.65497 92.7051 8.82776C91.3008 12.0006 90.1181 14.6815 90.0767 14.7854C90.0171 14.9348 90.4623 14.9658 92.1967 14.9333L94.3923 14.8923L95.5804 12.008H102.615L103.817 14.8923L106.072 14.9333C107.854 14.9655 108.311 14.9346 108.251 14.7854C108.209 14.6815 106.722 11.3182 104.946 7.31163L101.718 0.0267727H96.5984L95.9283 1.54291ZM109.182 14.9663H113.19L113.19 5.57362L119.471 14.9663H124.321V0.0267727H120.318L120.24 9.09194L114.183 0.0267727H109.182V14.9663ZM134.562 14.9663H147.178V11.7121H138.57V9.19755H147.03V5.79549H138.57V3.42884H147.178V0.0267727H134.562V14.9663ZM148.236 0.278231C148.348 0.416533 149.83 2.08887 151.528 3.99462C154.613 7.45599 154.616 7.45999 154.335 7.77386C152.103 10.2655 148.251 14.6397 148.164 14.7814C148.076 14.9266 148.587 14.964 150.546 14.9556L153.041 14.945L154.97 12.6705C156.032 11.4194 156.973 10.4091 157.062 10.4254C157.151 10.4415 158.107 11.4698 159.186 12.7106L161.148 14.9663H163.669C165.724 14.9663 166.169 14.93 166.072 14.7701C166.007 14.6623 164.551 12.9943 162.837 11.0632C161.122 9.13232 159.701 7.50036 159.678 7.43661C159.655 7.37286 161.074 5.7094 162.832 3.7402C164.59 1.77085 166.028 0.129575 166.028 0.0931877C166.028 0.0566525 164.909 0.0306171 163.542 0.0354984L161.056 0.0440795L159.155 2.25424C158.11 3.46966 157.196 4.46425 157.123 4.46425C157.049 4.46425 156.135 3.46966 155.09 2.25424L153.189 0.0440795L150.611 0.0354984C148.203 0.027363 148.046 0.0433411 148.236 0.278231ZM166.918 14.9663H170.926V10.1061L177.234 10.0111L178.198 9.55344C179.371 8.99713 180.04 8.35029 180.555 7.27465C180.891 6.5722 180.944 6.26779 180.944 5.04511C180.944 3.76194 180.902 3.5482 180.499 2.76706C179.951 1.70606 178.987 0.869747 177.816 0.438276C176.989 0.133422 176.638 0.110787 171.928 0.0570935L166.918 0V14.9663ZM182.799 14.9663H186.807V9.78922H188.29L192.818 14.9654L197.668 14.9663L197.309 14.5413C197.112 14.3076 196.054 13.141 194.958 11.9489C193.863 10.7569 192.997 9.7333 193.035 9.67443C193.072 9.61556 193.426 9.43422 193.822 9.27151C195.98 8.38357 197.169 6.28154 196.76 4.07745C196.348 1.85235 194.881 0.522882 192.454 0.172766C191.919 0.0957014 189.529 0.0313565 187.141 0.0297294L182.799 0.0267727V14.9663ZM198.977 14.9663H211.742V11.7121H202.985V9.19755H211.445V5.79549H202.985V3.42884H211.742V0.0267727H198.977V14.9663ZM217.676 0.183121C216.06 0.420378 214.569 1.36718 213.971 2.53602C213.557 3.34393 213.366 4.61719 213.519 5.55202C213.769 7.08191 214.527 8.10253 215.884 8.73458C216.667 9.09949 216.878 9.12552 219.633 9.19637C222.47 9.26929 222.564 9.28172 222.936 9.63006C223.449 10.1115 223.449 10.7983 222.936 11.2796L222.553 11.6382L213.968 11.7288V14.9843L218.903 14.9349C224.468 14.879 224.461 14.8803 225.869 13.6452C226.838 12.7952 227.227 11.8232 227.236 10.233C227.243 8.7788 226.949 7.95728 226.127 7.13813C225.108 6.12254 223.71 5.80806 220.181 5.80008C217.923 5.7949 217.609 5.68263 217.443 4.82117C217.374 4.46677 217.437 4.26811 217.726 3.93367L218.098 3.50279L225.512 3.41464L225.885 2.57122C226.09 2.10736 226.431 1.34515 226.642 0.877289L227.025 0.0267727L222.76 0.0448198C220.414 0.0547302 218.126 0.117002 217.676 0.183121ZM232.467 0.189481C230.723 0.443305 229.33 1.4015 228.62 2.83717C228.358 3.36671 228.29 3.75987 228.29 4.76008C228.29 5.83794 228.35 6.13777 228.707 6.86167C229.147 7.75493 229.835 8.3997 230.814 8.8362C231.294 9.05053 231.977 9.11723 234.397 9.18616C237.008 9.26071 237.426 9.30568 237.686 9.54131C238.365 10.1531 238.194 11.146 237.35 11.4973C236.942 11.6674 235.984 11.7121 232.748 11.7121H228.662V14.9811L238.532 14.8923L239.361 14.5048C240.327 14.0529 241.142 13.2916 241.601 12.4107C241.843 11.9446 241.942 11.4462 241.989 10.4464C242.067 8.79123 241.733 7.86513 240.745 6.99805C239.735 6.11277 238.954 5.93187 235.719 5.83469C233.039 5.75422 232.891 5.73426 232.565 5.40973C232.206 5.05163 232.125 4.48081 232.369 4.02627C232.639 3.52291 233.345 3.42884 236.854 3.42884H240.253L240.988 1.86034C241.392 0.997692 241.723 0.232227 241.723 0.159305C241.723 -0.00857973 233.647 0.0177508 232.467 0.189481ZM66.5762 3.93723C66.9428 4.28764 67.0309 4.4925 67.0309 4.99645C67.0309 5.51046 66.9512 5.6881 66.5813 5.99828C65.9883 6.49557 65.5648 6.55711 63.0977 6.50504L61.0198 6.46111L60.9351 3.40961L66.1216 3.50279L66.5762 3.93723ZM176.032 3.63503C176.304 3.74848 176.636 3.99624 176.769 4.18572C177.08 4.62829 177.08 5.63145 176.769 6.07401C176.329 6.70029 175.718 6.8309 173.231 6.8309H170.926V3.42884H173.231C174.867 3.42884 175.68 3.48874 176.032 3.63503ZM192.25 3.81371C192.837 4.2514 193.006 4.93166 192.692 5.58959C192.304 6.39957 191.791 6.53507 189.112 6.53507H186.807V3.40931L189.32 3.45605C191.6 3.4985 191.871 3.53149 192.25 3.81371ZM10.1852 6.25861L11.2098 8.67985L10.1849 8.72319C9.62139 8.74701 8.66615 8.74701 8.06252 8.72319L6.9648 8.67985L8.00197 6.19797C8.5725 4.833 9.0666 3.74345 9.09999 3.77673C9.13338 3.81016 9.62184 4.92693 10.1852 6.25861ZM100.184 6.22756C100.725 7.52285 101.168 8.62113 101.168 8.66817C101.168 8.7152 100.233 8.75381 99.0898 8.75381C97.947 8.75381 97.0119 8.7152 97.0119 8.66817C97.0119 8.44378 98.9926 3.87258 99.0898 3.87258C99.151 3.87258 99.6436 4.93226 100.184 6.22756Z" fill="#B7B7B7"/>
</svg>
