<svg width="102" height="33" viewBox="0 0 102 33" fill="none" xmlns="http://www.w3.org/2000/svg">
<g clip-path="url(#clip0_90_1206)">
<path d="M38.7276 0.582758L25.3736 32.5008H16.6611L10.0895 7.03087C9.69054 5.46195 9.34576 4.88718 8.13079 4.22672C6.14976 3.14955 2.87833 2.13997 1.90735e-05 1.51251L0.198174 0.582758H14.2232C16.0103 0.582758 17.6173 1.77488 18.0232 3.83768L21.4938 22.305L30.0714 0.580627L38.7276 0.582758ZM72.8646 22.0798C72.8997 13.6557 61.2366 13.1921 61.3168 9.42842C61.3418 8.28313 62.4325 7.06599 64.813 6.75466C65.994 6.59979 69.2479 6.48111 72.9411 8.18308L74.3888 1.41458C72.4056 0.693984 69.854 0 66.6793 0C58.5326 0 52.7993 4.33848 52.751 10.5508C52.6978 15.1458 56.8416 17.71 59.9659 19.2363C63.1783 20.8004 64.2557 21.8047 64.244 23.2038C64.2206 25.3449 61.6818 26.2906 59.3087 26.3273C55.165 26.3912 52.7621 25.2044 50.8454 24.3113L49.3515 31.3039C51.2773 32.1895 54.8319 32.9617 58.5177 33C67.1771 33 72.8407 28.7153 72.8673 22.0798H72.8646ZM94.3797 32.5008H102.003L95.345 0.582758H88.3102C87.5588 0.57627 86.8228 0.796035 86.1977 1.21357C85.5725 1.6311 85.0869 2.22714 84.8039 2.92443L72.4354 32.5008H81.0899L82.8075 27.7334H93.382L94.3797 32.5008ZM85.1832 21.1916L89.5214 9.20703L92.0183 21.1916H85.1832ZM50.5038 0.582758L43.6884 32.5008H35.4466L42.2646 0.582758H50.5038Z" fill="white"/>
</g>
<defs>
<clipPath id="clip0_90_1206">
<rect width="102" height="33" fill="white"/>
</clipPath>
</defs>
</svg>
