<svg width="144" height="25" viewBox="0 0 144 25" fill="none" xmlns="http://www.w3.org/2000/svg">
<g clip-path="url(#clip0_2_279)">
<path fill-rule="evenodd" clip-rule="evenodd" d="M6.55558 0.903625H0.333374V24.0257H6.55558C13.5268 24.0257 19.6825 21.6406 19.6825 12.4625C19.6825 3.28871 13.5268 0.903625 6.55558 0.903625ZM7.43308 20.3818H4.89368V4.54749H7.43308C11.2444 4.54749 14.9228 7.42726 14.9228 12.4625C14.9228 17.4976 11.2444 20.3818 7.43308 20.3818Z" fill="#B7B7B7"/>
<path fill-rule="evenodd" clip-rule="evenodd" d="M26.0642 0.903618H21.504V24.0257H26.0642V0.903618ZM35.7211 4.77276C37.5071 4.99802 39.1956 6.03156 40.7644 7.00768V2.5776C39.2399 1.25255 37.4894 0.506104 35.5349 0.506104C31.5331 0.506104 27.5888 2.39651 27.5888 7.5642C27.5888 11.913 30.8098 13.2001 33.5897 14.311C35.6998 15.1542 37.5558 15.8958 37.5558 17.798C37.5558 19.8872 35.4552 20.5055 33.5185 20.161C32.1738 19.9186 30.5227 18.9343 29.1207 18.0986C28.6838 17.8381 28.2707 17.5919 27.899 17.3872V22.0779C29.8711 23.4029 31.3026 24.1494 33.7755 24.4277C38.3403 24.9356 42.3111 22.5019 42.3111 17.4358C42.3111 12.9272 38.9393 11.6133 36.1179 10.5139C34.0886 9.72309 32.3441 9.04328 32.3441 7.36544C32.3441 5.05544 34.0858 4.56517 35.7211 4.77276ZM85.224 12.4006C85.224 5.40879 80.5972 0.506104 73.462 0.506104C66.2338 0.506104 61.4918 5.3072 61.4918 12.4006C61.4918 19.4896 66.1673 24.4277 73.462 24.4277C80.6592 24.4277 85.224 19.3881 85.224 12.4006ZM88.5699 0.903618H83.6861L92.5408 24.0257H94.1939L103.097 0.903618H98.3642L93.6355 13.1206L88.5699 0.903618ZM117.704 0.903618H104.285V24.0257H117.771V20.3818H108.845V13.8891H116.955V10.2452H108.845V4.5475H117.704V0.903618ZM123.904 0.903618H118.985V24.0257H123.545V14.4191H125.012C126.936 14.4191 127.521 15.0816 128.172 16.8042L130.907 24.0213H135.985L132.338 14.9801C131.882 13.9553 131.164 12.6921 129.927 12.595V12.5287C132.83 12.1312 134.62 9.87862 134.62 7.16227C134.62 0.894667 129.077 0.89935 124.269 0.903413L123.904 0.903618ZM125.044 10.7752H123.546V4.54309H125.044C127.326 4.54309 129.865 4.77718 129.865 7.55978C129.865 10.444 127.29 10.7752 125.044 10.7752Z" fill="#B7B7B7"/>
<path d="M60.3395 21.7157C59.2316 23.1468 56.4662 24.0257 54.6004 24.1582C47.5317 24.6529 42.7808 20.6999 42.7808 12.8821C42.7808 4.96711 46.9201 0.378028 54.6314 0.735791C56.1293 0.806461 58.5801 1.30998 60.2376 2.66153V7.12252C58.3053 5.92115 56.3022 5.0687 54.6048 4.99803C49.916 4.80811 47.5361 7.81596 47.5361 12.5508C47.5361 17.2547 49.7564 19.9004 54.6092 19.7193C56.4706 19.6486 59.3291 18.1248 60.3351 17.2856V21.7157H60.3395Z" fill="#B7B7B7"/>
<path d="M141.335 4.79483C142.439 4.79483 143.333 3.90299 143.333 2.80284C143.333 1.7027 142.439 0.810852 141.335 0.810852C140.231 0.810852 139.336 1.7027 139.336 2.80284C139.336 3.90299 140.231 4.79483 141.335 4.79483Z" fill="#B7B7B7"/>
<path d="M142.846 2.80286C142.846 1.8709 142.172 1.19513 141.335 1.19513C140.497 1.19513 139.823 1.86649 139.823 2.80286C139.823 3.73481 140.497 4.40616 141.335 4.40616C142.168 4.40616 142.846 3.73039 142.846 2.80286Z" fill="#B7B7B7"/>
<path d="M140.564 1.66333H141.406C141.951 1.66333 142.239 1.84884 142.239 2.32585C142.239 2.71012 142.017 2.90004 141.649 2.93096L142.256 3.92033H141.827L141.237 2.94863H140.98V3.92033H140.559V1.66333H140.564Z" fill="#B7B7B7"/>
<path d="M140.985 2.63057H141.357C141.605 2.63057 141.822 2.59524 141.822 2.2949C141.822 2.02547 141.578 1.98572 141.361 1.98572H140.985V2.63057Z" fill="#B7B7B7"/>
</g>
<defs>
<clipPath id="clip0_2_279">
<rect width="143" height="24" fill="white" transform="translate(0.333374 0.5)"/>
</clipPath>
</defs>
</svg>
