<svg width="143" height="24" viewBox="0 0 143 24" fill="none" xmlns="http://www.w3.org/2000/svg">
<g clip-path="url(#clip0_90_1211)">
<path fill-rule="evenodd" clip-rule="evenodd" d="M6.22221 0.403625H0V23.5257H6.22221C13.1934 23.5257 19.3491 21.1406 19.3491 11.9625C19.3491 2.78871 13.1934 0.403625 6.22221 0.403625ZM7.09971 19.8818H4.5603V4.04749H7.09971C10.911 4.04749 14.5894 6.92726 14.5894 11.9625C14.5894 16.9976 10.911 19.8818 7.09971 19.8818Z" fill="white"/>
<path fill-rule="evenodd" clip-rule="evenodd" d="M25.7309 0.403618H21.1706V23.5257H25.7309V0.403618ZM35.3877 4.27276C37.1737 4.49802 38.8622 5.53156 40.4311 6.50768V2.0776C38.9065 0.752548 37.156 0.00610352 35.2016 0.00610352C31.1997 0.00610352 27.2554 1.89651 27.2554 7.0642C27.2554 11.413 30.4764 12.7001 33.2563 13.811C35.3665 14.6542 37.2225 15.3958 37.2225 17.298C37.2225 19.3872 35.1218 20.0055 33.1851 19.661C31.8405 19.4186 30.1893 18.4343 28.7873 17.5986C28.3504 17.3381 27.9373 17.0919 27.5656 16.8872V21.5779C29.5378 22.9029 30.9692 23.6494 33.4422 23.9277C38.0069 24.4356 41.9777 22.0019 41.9777 16.9358C41.9777 12.4272 38.6059 11.1133 35.7846 10.0139C33.7552 9.22309 32.0107 8.54328 32.0107 6.86544C32.0107 4.55544 33.7524 4.06517 35.3877 4.27276ZM84.8906 11.9006C84.8906 4.90879 80.2638 0.00610352 73.1287 0.00610352C65.9004 0.00610352 61.1585 4.8072 61.1585 11.9006C61.1585 18.9896 65.834 23.9277 73.1287 23.9277C80.3259 23.9277 84.8906 18.8881 84.8906 11.9006ZM88.2366 0.403618H83.3528L92.2074 23.5257H93.8605L102.764 0.403618H98.0308L93.3021 12.6206L88.2366 0.403618ZM117.371 0.403618H103.952V23.5257H117.438V19.8818H108.512V13.3891H116.622V9.74521H108.512V4.0475H117.371V0.403618ZM123.571 0.403618H118.652V23.5257H123.212V13.9191H124.679C126.602 13.9191 127.187 14.5816 127.839 16.3042L130.573 23.5213H135.652L132.005 14.4801C131.548 13.4553 130.83 12.1921 129.594 12.095V12.0287C132.497 11.6312 134.287 9.37862 134.287 6.66227C134.287 0.394667 128.744 0.39935 123.935 0.403413L123.571 0.403618ZM124.71 10.2752H123.212V4.04309H124.71C126.993 4.04309 129.532 4.27718 129.532 7.05978C129.532 9.94397 126.957 10.2752 124.71 10.2752Z" fill="white"/>
<path d="M60.0061 21.2157C58.8982 22.6468 56.1328 23.5257 54.267 23.6582C47.1983 24.1529 42.4475 20.1999 42.4475 12.3821C42.4475 4.46711 46.5867 -0.121972 54.298 0.235791C55.796 0.306461 58.2467 0.809979 59.9042 2.16153V6.62252C57.972 5.42115 55.9688 4.5687 54.2714 4.49803C49.5826 4.30811 47.2028 7.31596 47.2028 12.0508C47.2028 16.7547 49.4231 19.4004 54.2759 19.2193C56.1372 19.1486 58.9957 17.6248 60.0017 16.7856V21.2157H60.0061Z" fill="white"/>
<path d="M141.001 4.29483C142.105 4.29483 143 3.40299 143 2.30284C143 1.2027 142.105 0.310852 141.001 0.310852C139.897 0.310852 139.003 1.2027 139.003 2.30284C139.003 3.40299 139.897 4.29483 141.001 4.29483Z" fill="white"/>
<path d="M142.512 2.30286C142.512 1.3709 141.839 0.695129 141.001 0.695129C140.164 0.695129 139.49 1.36649 139.49 2.30286C139.49 3.23481 140.164 3.90616 141.001 3.90616C141.834 3.90616 142.512 3.23039 142.512 2.30286Z" fill="white"/>
<path d="M140.23 1.16333H141.072C141.617 1.16333 141.905 1.34884 141.905 1.82585C141.905 2.21012 141.684 2.40004 141.316 2.43096L141.923 3.42033H141.493L140.904 2.44863H140.647V3.42033H140.226V1.16333H140.23Z" fill="white"/>
<path d="M140.651 2.13057H141.023C141.272 2.13057 141.489 2.09524 141.489 1.7949C141.489 1.52547 141.245 1.48572 141.028 1.48572H140.651V2.13057Z" fill="white"/>
</g>
<defs>
<clipPath id="clip0_90_1211">
<rect width="143" height="24" fill="white"/>
</clipPath>
</defs>
</svg>
