<svg width="242" height="19" viewBox="0 0 242 19" fill="none" xmlns="http://www.w3.org/2000/svg">
<path fill-rule="evenodd" clip-rule="evenodd" d="M6.4938 0.347976C6.41469 0.526081 4.93835 4.53049 3.2128 9.24661C1.4874 13.9625 0.0422273 17.8864 0.00126307 17.9662C-0.0397012 18.0461 0.920882 18.1114 2.13571 18.1114H4.34437L4.93864 16.3662L5.53292 14.6209H9.08004H12.6273L13.2246 16.3647L13.8218 18.1084L16.0796 18.11L18.3374 18.1114L17.8206 16.7242C17.5363 15.9611 16.0517 11.9135 14.5213 7.7294L11.7387 0.121899L9.18809 0.0730301C6.85476 0.0281011 6.6253 0.0515521 6.4938 0.347976ZM19.2392 9.0719V18.1114H21.1687H23.0981L23.1082 11.7122C23.1147 7.52087 23.167 5.43641 23.2595 5.6709C23.3372 5.8678 24.2203 8.72733 25.2222 12.0254L27.0435 18.0219L28.8432 18.072L30.643 18.1221L30.9346 17.177C31.0952 16.6572 31.9458 13.8557 32.8251 10.9514C33.7045 8.04713 34.4802 5.59447 34.5494 5.50085C34.6184 5.40741 34.675 8.20643 34.675 11.7211V18.1114H36.6045H38.5339V9.0719V0.032399H35.4483H32.3627L30.677 5.6709C29.7499 8.77208 28.9511 11.3092 28.9018 11.309C28.8526 11.3089 28.0502 8.77154 27.1186 5.67054L25.4248 0.032399H22.332H19.2392V9.0719ZM41.6508 9.0719V18.1114H48.0329H54.415V16.1424V14.1734H50.0366H45.6581V12.6519V11.1304H49.8882H54.1182V9.0719V7.0134H49.8882H45.6581V5.5814V4.1494H50.0366H54.415V2.0909V0.032399H48.0329H41.6508V9.0719ZM57.0866 9.0719V18.1114H59.0161H60.9455V14.9789V11.8464H61.7347H62.5237L64.7834 14.9789L67.0433 18.1114H69.4962H71.9493L69.5642 14.9814C68.2525 13.26 67.1792 11.7698 67.1792 11.6699C67.1792 11.57 67.2709 11.4884 67.383 11.4884C67.7725 11.4884 68.8896 10.791 69.4845 10.1765C69.8135 9.83659 70.2811 9.12668 70.5234 8.59916C70.9251 7.72439 70.964 7.49008 70.964 5.9394C70.964 4.49952 70.9096 4.11074 70.6095 3.40279C69.8379 1.58218 68.5572 0.55132 66.6551 0.219812C66.0862 0.120645 63.7007 0.037946 61.3537 0.035977L57.0866 0.032399V9.0719ZM73.2645 9.06671V18.1114H75.2682H77.2717L77.2348 9.11665L77.1976 0.121899L75.2311 0.0719595L73.2645 0.0220145V9.06671ZM85.5823 0.206745C81.5128 0.840584 79.1328 4.53282 79.4029 9.79292C79.5509 12.6743 80.2306 14.5702 81.6705 16.1179C82.957 17.5008 84.0605 17.9705 86.2588 18.0708L88.0472 18.1522L88.7977 16.2076L89.5481 14.2629L87.9739 14.1582C85.8787 14.0189 85.2114 13.7717 84.4495 12.8531C82.9166 11.0042 83.0195 6.77175 84.6335 5.28712C85.5349 4.45799 86.0505 4.34469 88.96 4.33628L91.6687 4.3284V2.1804V0.032399L89.0342 0.0558501C87.5852 0.0687381 86.032 0.136577 85.5823 0.206745ZM95.9283 1.86715C95.5597 2.87617 94.1092 6.84335 92.705 10.6829C91.3008 14.5225 90.118 17.7668 90.0766 17.8925C90.0171 18.0733 90.4622 18.1109 92.1967 18.0715L94.3922 18.0219L94.9862 16.2767L95.5804 14.5314H99.0973H102.614L103.216 16.2767L103.817 18.0219L106.072 18.0715C107.854 18.1105 108.311 18.0731 108.251 17.8925C108.209 17.7668 106.722 13.6967 104.946 8.84815L101.718 0.032399H99.1581H96.5984L95.9283 1.86715ZM109.182 9.0719V18.1114H111.186H113.19L113.19 12.4282L113.19 6.7449L116.331 12.4282L119.471 18.1114H121.896H124.321V9.0719V0.032399H122.32H120.318L120.279 5.5175L120.24 11.0026L117.211 5.5175L114.183 0.032399H111.682H109.182V9.0719ZM134.562 9.0719V18.1114H140.87H147.178V16.1424V14.1734H142.874H138.57V12.6519V11.1304H142.8H147.03V9.0719V7.0134H142.8H138.57V5.5814V4.1494H142.874H147.178V2.0909V0.032399H140.87H134.562V9.0719ZM148.236 0.336701C148.348 0.504066 149.829 2.52784 151.528 4.83408C154.613 9.02286 154.616 9.02769 154.335 9.40753C152.103 12.4228 148.251 17.7162 148.164 17.8877C148.076 18.0634 148.587 18.1087 150.546 18.0985L153.041 18.0856L154.97 15.3331C156.032 13.8192 156.973 12.5966 157.062 12.6163C157.151 12.6358 158.107 13.8802 159.186 15.3817L161.148 18.1114H163.669C165.724 18.1114 166.169 18.0676 166.072 17.8741C166.007 17.7436 164.551 15.725 162.837 13.3881C161.122 11.0515 159.701 9.07655 159.678 8.9994C159.655 8.92225 161.074 6.90923 162.832 4.5262C164.59 2.14299 166.028 0.156805 166.028 0.112771C166.028 0.0685579 164.909 0.0370513 163.542 0.0429583L161.056 0.0533428L159.155 2.72796C158.11 4.1988 157.195 5.4024 157.122 5.4024C157.049 5.4024 156.135 4.1988 155.09 2.72796L153.189 0.0533428L150.611 0.0429583C148.203 0.0331133 148.046 0.0524491 148.236 0.336701ZM166.918 9.05579V18.1114H168.922H170.926V15.1706V12.2298L174.08 12.1724L177.234 12.1149L178.198 11.5611C179.371 10.8879 180.04 10.1051 180.555 8.8034C180.891 7.95333 180.944 7.58495 180.944 6.10533C180.944 4.55251 180.902 4.29385 180.499 3.34855C179.951 2.06459 178.987 1.05252 177.816 0.530379C176.989 0.16146 176.638 0.134069 171.927 0.0690916L166.918 0V9.05579ZM182.799 9.0719V18.1114H184.803H186.807V14.9789V11.8464H187.548H188.29L190.554 14.9784L192.818 18.1103L195.243 18.1109L197.668 18.1114L197.309 17.5971C197.112 17.3143 196.054 15.9025 194.958 14.46C193.863 13.0174 192.997 11.7787 193.035 11.7075C193.072 11.6363 193.426 11.4168 193.822 11.2199C195.98 10.1454 197.169 7.6016 196.76 4.93432C196.348 2.24162 194.881 0.632765 192.454 0.209072C191.919 0.115813 189.528 0.037946 187.141 0.035977L182.799 0.032399V9.0719ZM198.977 9.0719V18.1114H205.359H211.741V16.1424V14.1734H207.363H202.985V12.6519V11.1304H207.215H211.445V9.0719V7.0134H207.215H202.985V5.5814V4.1494H207.363H211.741V2.0909V0.032399H205.359H198.977V9.0719ZM217.676 0.221603C216.06 0.508719 214.569 1.6545 213.971 3.06895C213.557 4.04665 213.366 5.58749 213.519 6.71877C213.769 8.57017 214.527 9.80526 215.884 10.5701C216.667 11.0117 216.878 11.0432 219.633 11.129C222.469 11.2172 222.564 11.2323 222.936 11.6538C223.449 12.2364 223.449 13.0675 222.936 13.65L222.553 14.0839L218.26 14.1387L213.968 14.1936V16.1635V18.1332L218.903 18.0735C224.468 18.0058 224.461 18.0074 225.869 16.5128C226.838 15.484 227.227 14.3078 227.235 12.3834C227.243 10.6237 226.949 9.62949 226.127 8.63819C225.108 7.40918 223.71 7.02862 220.181 7.01895C217.923 7.01269 217.609 6.87683 217.442 5.83433C217.374 5.40545 217.437 5.16505 217.726 4.76033L218.097 4.2389L221.805 4.18556L225.512 4.13221L225.885 3.11156C226.09 2.55021 226.431 1.62783 226.642 1.06165L227.025 0.032399L222.76 0.0542386C220.414 0.0662316 218.126 0.14159 217.676 0.221603ZM232.467 0.2293C230.722 0.536464 229.33 1.69603 228.62 3.4334C228.358 4.07422 228.29 4.55 228.29 5.7604C228.29 7.06477 228.35 7.42761 228.706 8.30364C229.147 9.38462 229.835 10.1649 230.814 10.6931C231.294 10.9525 231.976 11.0332 234.397 11.1166C237.008 11.2068 237.425 11.2612 237.686 11.5464C238.365 12.2867 238.194 13.4884 237.35 13.9135C236.941 14.1193 235.984 14.1734 232.748 14.1734H228.661V16.1514V18.1293L233.596 18.0756L238.531 18.0219L239.361 17.5529C240.327 17.0061 241.142 16.0848 241.601 15.0188C241.843 14.4548 241.942 13.8516 241.989 12.6417C242.067 10.6387 241.733 9.51797 240.745 8.46867C239.735 7.39736 238.954 7.17844 235.719 7.06084C233.039 6.96346 232.891 6.9393 232.565 6.54657C232.206 6.11322 232.125 5.42245 232.369 4.87238C232.639 4.26324 233.345 4.1494 236.854 4.1494H240.253L240.988 2.25128C241.392 1.20735 241.723 0.281029 241.723 0.192782C241.723 -0.0103827 233.646 0.0214811 232.467 0.2293ZM66.5762 4.76463C66.9428 5.18868 67.0308 5.43659 67.0308 6.04645C67.0308 6.66847 66.9511 6.88344 66.5812 7.25881C65.9883 7.8606 65.5647 7.93507 63.0976 7.87206L61.0197 7.8189L60.9773 5.97252L60.935 4.12613L63.5282 4.18252L66.1216 4.2389L66.5762 4.76463ZM176.031 4.39893C176.304 4.53622 176.636 4.83605 176.769 5.06534C177.08 5.60091 177.08 6.81489 176.769 7.35046C176.329 8.10834 175.718 8.2664 173.231 8.2664H170.926V6.2079V4.1494H173.231C174.867 4.1494 175.68 4.2219 176.031 4.39893ZM192.25 4.61516C192.837 5.14482 193.006 5.96804 192.692 6.76423C192.304 7.74443 191.791 7.9084 189.112 7.9084H186.807V6.01709V4.12577L189.319 4.18233C191.6 4.23371 191.871 4.27362 192.25 4.61516ZM10.1852 7.57385L11.2097 10.5039L10.1849 10.5564C9.62133 10.5852 8.66609 10.5852 8.06246 10.5564L6.96474 10.5039L8.00191 7.50046C8.57244 5.84865 9.06653 4.53013 9.09993 4.57041C9.13332 4.61086 9.62178 5.96231 10.1852 7.57385ZM100.184 7.53626C100.725 9.10377 101.168 10.4328 101.168 10.4898C101.168 10.5467 100.233 10.5934 99.0898 10.5934C97.9469 10.5934 97.0119 10.5467 97.0119 10.4898C97.0119 10.2182 98.9926 4.6864 99.0898 4.6864C99.1509 4.6864 99.6435 5.96876 100.184 7.53626Z" fill="white"/>
</svg>
