<svg width="238" height="43" viewBox="0 0 238 43" fill="none" xmlns="http://www.w3.org/2000/svg">
<g clip-path="url(#clip0_2_275)">
<path d="M69.6674 33.9771V33.3811H69.9169V33.2578H69.2905V33.3811H69.54V33.9771H69.6674ZM70.8937 33.9771V33.2578H70.7026L70.4796 33.7716L70.2567 33.2578H70.0602V33.9771H70.1983V33.4325L70.4053 33.9H70.5486L70.7609 33.4325V33.9771H70.8937ZM104.368 28.7472V21.041C104.368 18.1332 102.452 16.1758 99.3679 16.1501C98.4896 16.0957 97.6123 16.27 96.8272 16.6549C96.0421 17.0398 95.3778 17.6212 94.9036 18.3387C94.47 17.6424 93.851 17.0719 93.1113 16.6869C92.3716 16.3018 91.5385 16.1164 90.6993 16.1501C89.9691 16.1165 89.2426 16.2675 88.591 16.5881C87.9395 16.9088 87.3854 17.3882 86.9834 17.979V16.4635H84.2177V28.7626H87.01V21.9246C87.01 19.7926 88.2362 18.6572 90.1207 18.6572C92.0052 18.6572 92.8864 19.8182 92.8864 21.8989V28.7472H95.6786V21.9246C95.6786 19.7926 96.9526 18.6572 98.7893 18.6572C100.626 18.6572 101.582 19.8182 101.582 21.8989V28.7472H104.368ZM145.684 16.4481H141.166V12.7131H138.374V16.4481H135.794V18.8884H138.374V24.4985C138.374 27.3549 139.515 29.0554 142.785 29.0554C144.008 29.0605 145.206 28.7291 146.241 28.0998L145.445 25.8137C144.703 26.2418 143.861 26.4805 142.998 26.5072C141.617 26.5072 141.166 25.6852 141.166 24.4522V18.8884H145.684V16.4481ZM169.269 16.1347C168.595 16.1162 167.928 16.2739 167.338 16.5913C166.749 16.9086 166.259 17.3738 165.919 17.9379V16.4481H163.18V28.7472H165.946V21.8475C165.946 19.8183 166.848 18.6829 168.658 18.6829C169.249 18.675 169.835 18.7797 170.384 18.9911L171.238 16.4738C170.607 16.2519 169.941 16.1372 169.269 16.1347ZM133.612 17.4242C132.049 16.5233 130.25 16.0757 128.431 16.1347C125.215 16.1347 123.123 17.6297 123.123 20.0751C123.123 22.0787 124.662 23.3169 127.508 23.7022L128.814 23.882C130.327 24.0875 131.048 24.4728 131.048 25.1663C131.048 26.1219 130.035 26.6613 128.15 26.6613C126.626 26.707 125.13 26.2546 123.903 25.377L122.603 27.4576C124.213 28.5491 126.143 29.1094 128.108 29.0554C131.776 29.0554 133.899 27.3806 133.899 25.0379C133.899 22.8802 132.227 21.7448 129.461 21.3595L128.214 21.1797C127.014 21.0255 126.059 20.7944 126.059 19.9724C126.059 19.0682 126.961 18.5287 128.479 18.5287C129.871 18.5479 131.234 18.9123 132.439 19.5871L133.612 17.4242ZM207.691 16.1347C207.016 16.1164 206.349 16.2741 205.758 16.5914C205.168 16.9087 204.677 17.3738 204.336 17.9379V16.4481H201.602V28.7472H204.363V21.8475C204.363 19.8183 205.271 18.6829 207.075 18.6829C207.668 18.6746 208.256 18.7793 208.806 18.9911L209.655 16.4738C209.026 16.2513 208.361 16.1366 207.691 16.1347ZM172.061 22.5976C172.061 26.3274 174.747 29.0554 178.84 29.0554C180.501 29.1367 182.134 28.6124 183.416 27.5861L182.083 25.4284C181.128 26.1333 179.962 26.5207 178.76 26.5329C176.552 26.5072 174.933 24.9608 174.933 22.5976C174.933 20.2344 176.552 18.6829 178.76 18.6572C179.963 18.669 181.129 19.0584 182.083 19.7669L183.416 17.604C182.133 16.5799 180.501 16.0559 178.84 16.1347C174.747 16.1347 172.061 18.8627 172.061 22.5976ZM197.956 22.5976V16.4327H195.195V17.9225C194.722 17.3339 194.111 16.8631 193.412 16.5495C192.713 16.2358 191.947 16.0883 191.177 16.1193C187.615 16.1193 184.807 18.8216 184.807 22.5822C184.807 26.3428 187.599 29.04 191.177 29.04C191.947 29.0718 192.713 28.9247 193.412 28.611C194.112 28.2972 194.723 27.826 195.195 27.2367V28.7317H197.956V22.5976ZM187.668 22.5976C187.668 20.4347 189.128 18.6572 191.522 18.6572C193.81 18.6572 195.354 20.3577 195.354 22.5976C195.354 24.8375 193.81 26.5329 191.522 26.5329C189.128 26.5329 187.668 24.7553 187.668 22.5976ZM154.299 16.1347C150.583 16.1347 147.972 18.7599 147.972 22.5976C147.972 26.4353 150.684 29.0554 154.485 29.0554C156.383 29.1202 158.239 28.5056 159.698 27.3292L158.339 25.3462C157.285 26.168 155.976 26.6223 154.623 26.6356C152.845 26.6356 151.22 25.8393 150.822 23.6251H160.261C160.261 23.2912 160.314 22.9572 160.314 22.5976C160.287 18.7599 157.84 16.1347 154.278 16.1347H154.299ZM154.246 18.5287C156.03 18.5287 157.171 19.6127 157.463 21.5136H150.87C151.162 19.7412 152.277 18.5287 154.246 18.5287ZM223.616 22.5976V11.5058H220.851V17.9379C220.379 17.3494 219.768 16.8786 219.07 16.5649C218.372 16.2512 217.607 16.1037 216.838 16.1347C213.27 16.1347 210.467 18.837 210.467 22.5976C210.467 26.3582 213.26 29.0554 216.838 29.0554C217.607 29.0872 218.373 28.9401 219.071 28.6264C219.769 28.3126 220.379 27.8413 220.851 27.2521V28.7472H223.616V22.5976ZM226.849 27.6118C226.959 27.6114 227.067 27.6323 227.168 27.6734C227.264 27.7123 227.352 27.768 227.428 27.8378C227.503 27.9097 227.562 27.9953 227.603 28.0896C227.646 28.1852 227.668 28.2884 227.667 28.3927C227.667 28.4969 227.645 28.6 227.603 28.6958C227.519 28.8828 227.363 29.0304 227.168 29.1068C227.068 29.1519 226.959 29.1747 226.849 29.1736C226.736 29.1752 226.623 29.1524 226.52 29.1068C226.423 29.0691 226.335 29.0133 226.26 28.9424C226.186 28.8714 226.127 28.7878 226.085 28.6958C226.042 28.6 226.021 28.4969 226.021 28.3927C226.02 28.2884 226.042 28.1852 226.085 28.0896C226.125 27.9953 226.185 27.9097 226.26 27.8378C226.335 27.7669 226.423 27.711 226.52 27.6734C226.624 27.6318 226.736 27.6108 226.849 27.6118ZM226.849 28.9989C226.931 28.9994 227.013 28.9837 227.088 28.9526C227.164 28.9221 227.233 28.8766 227.29 28.8191C227.348 28.7633 227.394 28.6969 227.425 28.6236C227.456 28.5504 227.471 28.4718 227.47 28.3927C227.471 28.3115 227.455 28.2311 227.423 28.1563C227.391 28.084 227.346 28.0178 227.29 27.9611C227.233 27.9051 227.164 27.8613 227.088 27.8327C227.013 27.8016 226.931 27.7859 226.849 27.7864C226.764 27.7854 226.679 27.8011 226.6 27.8327C226.524 27.8619 226.456 27.9056 226.398 27.9613C226.341 28.0169 226.295 28.0833 226.265 28.1563C226.233 28.2311 226.216 28.3115 226.217 28.3927C226.217 28.4737 226.234 28.5539 226.265 28.629C226.295 28.7008 226.34 28.7656 226.398 28.8191C226.455 28.8766 226.524 28.9221 226.6 28.9526C226.679 28.9843 226.764 29 226.849 28.9989ZM226.892 28.0279C226.971 28.0216 227.05 28.0435 227.115 28.0896C227.141 28.1098 227.162 28.1356 227.175 28.1651C227.189 28.1946 227.196 28.2268 227.194 28.2591C227.195 28.2861 227.19 28.313 227.179 28.3379C227.168 28.3627 227.151 28.3849 227.131 28.4029C227.084 28.4479 227.021 28.4737 226.955 28.4749L227.2 28.7523H227.008L226.78 28.48H226.706V28.7523H226.547V28.0279H226.892ZM226.706 28.1615V28.3567H226.892C226.927 28.3574 226.962 28.3485 226.993 28.331C227.005 28.3235 227.015 28.3128 227.022 28.3001C227.028 28.2874 227.031 28.2732 227.03 28.2591C227.032 28.2449 227.029 28.2304 227.022 28.2176C227.016 28.2048 227.005 28.1942 226.993 28.1872C226.962 28.1697 226.927 28.1608 226.892 28.1615H226.706ZM213.323 22.5976C213.323 20.4347 214.788 18.6572 217.183 18.6572C219.465 18.6572 221.01 20.3577 221.01 22.5976C221.01 24.8375 219.465 26.5329 217.183 26.5329C214.788 26.5329 213.323 24.7553 213.323 22.5976ZM119.949 22.5976V16.4327H117.183V17.9225C116.711 17.334 116.101 16.8632 115.402 16.5495C114.704 16.2358 113.939 16.0883 113.17 16.1193C109.608 16.1193 106.8 18.8216 106.8 22.5822C106.8 26.3428 109.592 29.04 113.17 29.04C113.939 29.0718 114.705 28.9247 115.403 28.6109C116.101 28.2972 116.712 27.8259 117.183 27.2367V28.7317H119.949V22.5976ZM109.661 22.5976C109.661 20.4347 111.121 18.6572 113.515 18.6572C115.803 18.6572 117.342 20.3577 117.342 22.5976C117.342 24.8375 115.803 26.5329 113.515 26.5329C111.121 26.5329 109.661 24.7553 109.661 22.5976ZM38.8787 37.5476C39.0273 37.6761 39.1866 37.7942 39.3405 37.9175C36.4612 39.7659 33.1179 40.8243 29.6665 40.9799C26.215 41.1356 22.7846 40.3827 19.7401 38.8015C16.6956 37.2202 14.1511 34.8697 12.3773 32.0001C10.6034 29.1304 9.66669 25.8491 9.66669 22.5051C9.66669 19.1612 10.6034 15.8798 12.3773 13.0102C14.1511 10.1406 16.6956 7.79009 19.7401 6.20882C22.7846 4.62755 26.215 3.87467 29.6665 4.03032C33.1179 4.18598 36.4612 5.24434 39.3405 7.09276C39.1866 7.21606 39.0273 7.33422 38.8787 7.46266C36.654 9.33094 34.8699 11.6399 33.6473 14.2334C32.4246 16.8268 31.7918 19.6442 31.7918 22.4949C31.7918 25.3455 32.4246 28.1629 33.6473 30.7563C34.8699 33.3498 36.654 35.6588 38.8787 37.5271V37.5476ZM52.3833 4.02055C48.6192 4.01227 44.9373 5.08504 41.8036 7.10303C41.9576 7.22633 42.1168 7.34449 42.2654 7.47293C44.4886 9.34214 46.2712 11.6514 47.4929 14.2448C48.7145 16.8381 49.3467 19.655 49.3467 22.5051C49.3467 25.3553 48.7145 28.1722 47.4929 30.7655C46.2712 33.3588 44.4886 35.6681 42.2654 37.5373C42.1168 37.6658 41.9576 37.7839 41.8036 37.9072C44.2875 39.5018 47.1224 40.512 50.0817 40.857C53.041 41.202 56.0427 40.8722 58.8468 39.8941C61.651 38.916 64.1798 37.3167 66.2313 35.2239C68.2827 33.1311 69.7999 30.6028 70.6615 27.8413C71.5232 25.0797 71.7054 22.1614 71.1937 19.3195C70.6819 16.4777 69.4904 13.791 67.7143 11.4744C65.9382 9.15769 63.6268 7.27524 60.9648 5.97742C58.3028 4.67961 55.364 4.00243 52.3833 4V4.02055ZM40.5721 7.98153C40.3226 8.17162 40.0837 8.36171 39.8501 8.56207C37.7882 10.2981 36.1351 12.4421 35.0022 14.8491C33.8694 17.2562 33.2832 19.8704 33.2832 22.5154C33.2832 25.1604 33.8694 27.7746 35.0022 30.1817C36.1351 32.5888 37.7882 34.7327 39.8501 36.4688C40.0837 36.6691 40.3226 36.8592 40.5721 37.0493C40.8162 36.8592 41.0604 36.6691 41.294 36.4688C43.3559 34.7327 45.0091 32.5888 46.1419 30.1817C47.2748 27.7746 47.861 25.1604 47.861 22.5154C47.861 19.8704 47.2748 17.2562 46.1419 14.8491C45.0091 12.4421 43.3559 10.2981 41.294 8.56207C41.0604 8.36171 40.8162 8.17162 40.5721 7.98153Z" fill="#B7B7B7"/>
</g>
<defs>
<clipPath id="clip0_2_275">
<rect width="237" height="43" fill="white" transform="translate(0.666687)"/>
</clipPath>
</defs>
</svg>
