<svg width="237" height="43" viewBox="0 0 237 43" fill="none" xmlns="http://www.w3.org/2000/svg">
<g clip-path="url(#clip0_90_1208)">
<path d="M69.0007 33.9771V33.3811H69.2502V33.2578H68.6238V33.3811H68.8733V33.9771H69.0007ZM70.227 33.9771V33.2578H70.0359L69.8129 33.7716L69.59 33.2578H69.3936V33.9771H69.5316V33.4325L69.7386 33.9H69.8819L70.0943 33.4325V33.9771H70.227ZM103.702 28.7472V21.041C103.702 18.1332 101.785 16.1758 98.7012 16.1501C97.8229 16.0957 96.9456 16.27 96.1605 16.6549C95.3754 17.0398 94.7112 17.6212 94.2369 18.3387C93.8034 17.6424 93.1843 17.0719 92.4446 16.6869C91.7049 16.3018 90.8718 16.1164 90.0326 16.1501C89.3025 16.1165 88.5759 16.2675 87.9243 16.5881C87.2728 16.9088 86.7187 17.3882 86.3167 17.979V16.4635H83.5511V28.7626H86.3433V21.9246C86.3433 19.7926 87.5695 18.6572 89.454 18.6572C91.3385 18.6572 92.2197 19.8182 92.2197 21.8989V28.7472H95.0119V21.9246C95.0119 19.7926 96.2859 18.6572 98.1226 18.6572C99.9593 18.6572 100.915 19.8182 100.915 21.8989V28.7472H103.702ZM145.017 16.4481H140.5V12.7131H137.707V16.4481H135.127V18.8884H137.707V24.4985C137.707 27.3549 138.849 29.0554 142.119 29.0554C143.341 29.0605 144.539 28.7291 145.574 28.0998L144.778 25.8137C144.036 26.2418 143.194 26.4805 142.331 26.5072C140.951 26.5072 140.5 25.6852 140.5 24.4522V18.8884H145.017V16.4481ZM168.602 16.1347C167.928 16.1162 167.261 16.2739 166.672 16.5913C166.082 16.9086 165.592 17.3738 165.253 17.9379V16.4481H162.514V28.7472H165.279V21.8475C165.279 19.8183 166.182 18.6829 167.992 18.6829C168.582 18.675 169.168 18.7797 169.717 18.9911L170.572 16.4738C169.94 16.2519 169.274 16.1372 168.602 16.1347ZM132.946 17.4242C131.382 16.5233 129.584 16.0757 127.765 16.1347C124.548 16.1347 122.456 17.6297 122.456 20.0751C122.456 22.0787 123.996 23.3169 126.841 23.7022L128.147 23.882C129.66 24.0875 130.382 24.4728 130.382 25.1663C130.382 26.1219 129.368 26.6613 127.483 26.6613C125.959 26.707 124.463 26.2546 123.237 25.377L121.936 27.4576C123.546 28.5491 125.476 29.1094 127.441 29.0554C131.109 29.0554 133.232 27.3806 133.232 25.0379C133.232 22.8802 131.56 21.7448 128.795 21.3595L127.547 21.1797C126.347 21.0255 125.392 20.7944 125.392 19.9724C125.392 19.0682 126.294 18.5287 127.813 18.5287C129.204 18.5479 130.568 18.9123 131.773 19.5871L132.946 17.4242ZM207.024 16.1347C206.35 16.1164 205.682 16.2741 205.092 16.5914C204.501 16.9087 204.01 17.3738 203.67 17.9379V16.4481H200.936V28.7472H203.696V21.8475C203.696 19.8183 204.604 18.6829 206.409 18.6829C207.001 18.6746 207.589 18.7793 208.139 18.9911L208.989 16.4738C208.359 16.2513 207.695 16.1366 207.024 16.1347ZM171.394 22.5976C171.394 26.3274 174.081 29.0554 178.173 29.0554C179.835 29.1367 181.467 28.6124 182.749 27.5861L181.417 25.4284C180.461 26.1333 179.295 26.5207 178.094 26.5329C175.885 26.5072 174.266 24.9608 174.266 22.5976C174.266 20.2344 175.885 18.6829 178.094 18.6572C179.296 18.669 180.462 19.0584 181.417 19.7669L182.749 17.604C181.466 16.5799 179.834 16.0559 178.173 16.1347C174.081 16.1347 171.394 18.8627 171.394 22.5976ZM197.289 22.5976V16.4327H194.529V17.9225C194.056 17.3339 193.444 16.8631 192.745 16.5495C192.046 16.2358 191.28 16.0883 190.51 16.1193C186.948 16.1193 184.14 18.8216 184.14 22.5822C184.14 26.3428 186.932 29.04 190.51 29.04C191.28 29.0718 192.047 28.9247 192.746 28.611C193.445 28.2972 194.056 27.826 194.529 27.2367V28.7317H197.289V22.5976ZM187.001 22.5976C187.001 20.4347 188.461 18.6572 190.855 18.6572C193.143 18.6572 194.688 20.3577 194.688 22.5976C194.688 24.8375 193.143 26.5329 190.855 26.5329C188.461 26.5329 187.001 24.7553 187.001 22.5976ZM153.633 16.1347C149.917 16.1347 147.305 18.7599 147.305 22.5976C147.305 26.4353 150.018 29.0554 153.818 29.0554C155.716 29.1202 157.572 28.5056 159.031 27.3292L157.672 25.3462C156.619 26.168 155.31 26.6223 153.956 26.6356C152.178 26.6356 150.554 25.8393 150.156 23.6251H159.594C159.594 23.2912 159.647 22.9572 159.647 22.5976C159.62 18.7599 157.173 16.1347 153.611 16.1347H153.633ZM153.579 18.5287C155.363 18.5287 156.504 19.6127 156.796 21.5136H150.203C150.495 19.7412 151.61 18.5287 153.579 18.5287ZM222.95 22.5976V11.5058H220.184V17.9379C219.712 17.3494 219.102 16.8786 218.404 16.5649C217.705 16.2512 216.94 16.1037 216.171 16.1347C212.604 16.1347 209.801 18.837 209.801 22.5976C209.801 26.3582 212.593 29.0554 216.171 29.0554C216.94 29.0872 217.706 28.9401 218.404 28.6264C219.102 28.3126 219.713 27.8413 220.184 27.2521V28.7472H222.95V22.5976ZM226.183 27.6118C226.292 27.6114 226.4 27.6323 226.501 27.6734C226.597 27.7123 226.686 27.768 226.761 27.8378C226.836 27.9097 226.896 27.9953 226.936 28.0896C226.979 28.1852 227.001 28.2884 227 28.3927C227 28.4969 226.979 28.6 226.936 28.6958C226.853 28.8828 226.696 29.0304 226.501 29.1068C226.401 29.1519 226.293 29.1747 226.183 29.1736C226.069 29.1752 225.957 29.1524 225.853 29.1068C225.756 29.0691 225.668 29.0133 225.593 28.9424C225.52 28.8714 225.46 28.7878 225.418 28.6958C225.376 28.6 225.354 28.4969 225.354 28.3927C225.353 28.2884 225.375 28.1852 225.418 28.0896C225.459 27.9953 225.518 27.9097 225.593 27.8378C225.668 27.7669 225.756 27.711 225.853 27.6734C225.958 27.6318 226.07 27.6108 226.183 27.6118ZM226.183 28.9989C226.265 28.9994 226.346 28.9837 226.421 28.9526C226.497 28.9221 226.566 28.8766 226.623 28.8191C226.681 28.7633 226.727 28.6969 226.758 28.6236C226.789 28.5504 226.805 28.4718 226.804 28.3927C226.805 28.3115 226.788 28.2311 226.756 28.1563C226.724 28.084 226.679 28.0178 226.623 27.9611C226.566 27.9051 226.497 27.8613 226.421 27.8327C226.346 27.8016 226.265 27.7859 226.183 27.7864C226.097 27.7854 226.012 27.8011 225.933 27.8327C225.858 27.8619 225.789 27.9056 225.731 27.9613C225.674 28.0169 225.629 28.0833 225.599 28.1563C225.566 28.2311 225.55 28.3115 225.551 28.3927C225.551 28.4737 225.567 28.5539 225.599 28.629C225.628 28.7008 225.674 28.7656 225.731 28.8191C225.788 28.8766 225.857 28.9221 225.933 28.9526C226.012 28.9843 226.097 29 226.183 28.9989ZM226.225 28.0279C226.305 28.0216 226.384 28.0435 226.448 28.0896C226.474 28.1098 226.495 28.1356 226.509 28.1651C226.523 28.1946 226.529 28.2268 226.528 28.2591C226.528 28.2861 226.523 28.313 226.512 28.3379C226.501 28.3627 226.485 28.3849 226.464 28.4029C226.417 28.4479 226.354 28.4737 226.289 28.4749L226.533 28.7523H226.342L226.113 28.48H226.039V28.7523H225.88V28.0279H226.225ZM226.039 28.1615V28.3567H226.225C226.26 28.3574 226.295 28.3485 226.326 28.331C226.338 28.3235 226.348 28.3128 226.355 28.3001C226.361 28.2874 226.364 28.2732 226.363 28.2591C226.365 28.2449 226.362 28.2304 226.356 28.2176C226.349 28.2048 226.339 28.1942 226.326 28.1872C226.295 28.1697 226.26 28.1608 226.225 28.1615H226.039ZM212.657 22.5976C212.657 20.4347 214.122 18.6572 216.516 18.6572C218.799 18.6572 220.343 20.3577 220.343 22.5976C220.343 24.8375 218.799 26.5329 216.516 26.5329C214.122 26.5329 212.657 24.7553 212.657 22.5976ZM119.282 22.5976V16.4327H116.516V17.9225C116.044 17.334 115.434 16.8632 114.736 16.5495C114.038 16.2358 113.272 16.0883 112.503 16.1193C108.941 16.1193 106.133 18.8216 106.133 22.5822C106.133 26.3428 108.925 29.04 112.503 29.04C113.272 29.0718 114.038 28.9247 114.736 28.6109C115.435 28.2972 116.045 27.8259 116.516 27.2367V28.7317H119.282V22.5976ZM108.994 22.5976C108.994 20.4347 110.454 18.6572 112.848 18.6572C115.136 18.6572 116.675 20.3577 116.675 22.5976C116.675 24.8375 115.136 26.5329 112.848 26.5329C110.454 26.5329 108.994 24.7553 108.994 22.5976ZM38.212 37.5476C38.3606 37.6761 38.5199 37.7942 38.6738 37.9175C35.7945 39.7659 32.4512 40.8243 28.9998 40.9799C25.5484 41.1356 22.1179 40.3827 19.0734 38.8015C16.0289 37.2202 13.4844 34.8697 11.7106 32.0001C9.93675 29.1304 9 25.8491 9 22.5051C9 19.1612 9.93675 15.8798 11.7106 13.0102C13.4844 10.1406 16.0289 7.79009 19.0734 6.20882C22.1179 4.62755 25.5484 3.87467 28.9998 4.03032C32.4512 4.18598 35.7945 5.24434 38.6738 7.09276C38.5199 7.21606 38.3606 7.33422 38.212 7.46266C35.9873 9.33094 34.2032 11.6399 32.9806 14.2334C31.7579 16.8268 31.1252 19.6442 31.1252 22.4949C31.1252 25.3455 31.7579 28.1629 32.9806 30.7563C34.2032 33.3498 35.9873 35.6588 38.212 37.5271V37.5476ZM51.7166 4.02055C47.9526 4.01227 44.2706 5.08504 41.1369 7.10303C41.2909 7.22633 41.4501 7.34449 41.5988 7.47293C43.8219 9.34214 45.6045 11.6514 46.8262 14.2448C48.0478 16.8381 48.68 19.655 48.68 22.5051C48.68 25.3553 48.0478 28.1722 46.8262 30.7655C45.6045 33.3588 43.8219 35.6681 41.5988 37.5373C41.4501 37.6658 41.2909 37.7839 41.1369 37.9072C43.6208 39.5018 46.4557 40.512 49.415 40.857C52.3744 41.202 55.376 40.8722 58.1801 39.8941C60.9843 38.916 63.5131 37.3167 65.5646 35.2239C67.616 33.1311 69.1332 30.6028 69.9949 27.8413C70.8565 25.0797 71.0387 22.1614 70.527 19.3195C70.0152 16.4777 68.8237 13.791 67.0476 11.4744C65.2715 9.15769 62.9601 7.27524 60.2981 5.97742C57.6361 4.67961 54.6973 4.00243 51.7166 4V4.02055ZM39.9054 7.98153C39.6559 8.17162 39.417 8.36171 39.1834 8.56207C37.1215 10.2981 35.4684 12.4421 34.3355 14.8491C33.2027 17.2562 32.6165 19.8704 32.6165 22.5154C32.6165 25.1604 33.2027 27.7746 34.3355 30.1817C35.4684 32.5888 37.1215 34.7327 39.1834 36.4688C39.417 36.6691 39.6559 36.8592 39.9054 37.0493C40.1496 36.8592 40.3937 36.6691 40.6273 36.4688C42.6892 34.7327 44.3424 32.5888 45.4752 30.1817C46.6081 27.7746 47.1943 25.1604 47.1943 22.5154C47.1943 19.8704 46.6081 17.2562 45.4752 14.8491C44.3424 12.4421 42.6892 10.2981 40.6273 8.56207C40.3937 8.36171 40.1496 8.17162 39.9054 7.98153Z" fill="white"/>
</g>
<defs>
<clipPath id="clip0_90_1208">
<rect width="237" height="43" fill="white"/>
</clipPath>
</defs>
</svg>
