<svg width="62" height="43" viewBox="0 0 62 43" fill="none" xmlns="http://www.w3.org/2000/svg">
<path d="M0.0016166 2.98961C0.378491 1.86384 0.955935 0.898198 2.08979 0.377367C2.48931 0.194591 2.8953 0.0328443 3.34982 0.071664C4.0049 -0.0124454 4.65675 0.0182828 5.32153 0.05225C5.30536 0.327223 5.12097 0.398394 4.96892 0.463093C3.30614 1.17802 2.81119 2.58039 2.73355 4.23184C2.72547 4.413 2.73032 4.59416 2.73032 4.77694C2.73032 15.8486 2.73194 26.922 2.72708 37.9937C2.72708 38.5824 2.76914 39.1631 2.88883 39.7373C3.11043 40.8016 3.65552 41.6314 4.64542 42.1377C4.89128 42.2638 5.17596 42.3447 5.39594 42.7329C4.66969 42.7475 4.01299 42.7831 3.34982 42.7006C1.97495 42.6439 0.748897 41.7236 0.231301 40.3827C0.153661 40.1837 0.174689 39.9444 0 39.7842C0.00161749 27.5204 0.0016166 15.255 0.0016166 2.98961Z" fill="#314355"/>
<path d="M3.35334 42.7023C3.95828 42.7023 4.56322 42.7023 5.16816 42.7023C5.17786 42.6764 5.18919 42.6489 5.19889 42.6231C4.98862 42.5195 4.77834 42.4128 4.56645 42.3125C3.452 41.7803 2.91176 40.8373 2.67076 39.6776C2.53974 39.0436 2.54298 38.4014 2.54298 37.7576C2.54621 26.6229 2.54459 15.4881 2.54783 4.35491C2.54783 3.60763 2.66591 2.87814 2.95058 2.181C3.37275 1.14581 4.18634 0.53602 5.1908 0.0750356C4.57778 0.0750356 3.96475 0.0750356 3.35172 0.0750356C3.5814 -0.0381886 3.82726 0.010337 4.06665 0.010337C21.9997 0.010337 39.9328 0.0135734 57.8659 0.0168084C60.5154 0.0168084 61.9727 1.48225 61.9727 4.13978C61.9727 15.6175 61.9387 27.0968 62.0002 38.5745C62.0131 40.9118 60.5056 42.7913 57.8061 42.7848C40.7399 42.7427 23.6738 42.7654 6.60772 42.7589C5.52401 42.7573 4.43544 42.8527 3.35334 42.7023Z" fill="#34495E"/>
<path d="M37.4274 21.426C37.408 23.9525 35.3586 25.9954 32.8871 25.9534C30.3509 25.9097 28.3129 23.8409 28.3371 21.337C28.363 18.8461 30.4059 16.834 32.9179 16.8243C35.467 16.8145 37.4484 18.8364 37.4274 21.426Z" fill="#F16E21"/>
<path d="M4.11018 21.3387C4.11018 20.1095 4.12473 18.8785 4.10209 17.6509C4.094 17.2481 4.17488 17.0718 4.62454 17.0977C5.70825 17.1592 6.80168 17.012 7.87731 17.2546C10.035 17.7382 11.2902 19.4236 11.1673 21.6655C11.0541 23.7213 9.48671 25.4116 7.42603 25.6089C6.44583 25.7027 5.45269 25.6461 4.46602 25.6785C4.08753 25.6914 4.11018 25.4633 4.11179 25.2126C4.11179 23.9186 4.11018 22.6279 4.11018 21.3387Z" fill="#E6E7E2"/>
<path d="M55.6676 22.0954C56.5734 23.3005 57.4258 24.4343 58.3543 25.6685C57.6733 25.6685 57.1169 25.6652 56.5605 25.6701C56.3114 25.6733 56.2241 25.4841 56.1108 25.3207C55.48 24.4101 54.8524 23.4978 54.2167 22.592C54.1213 22.4545 54.0566 22.2087 53.8302 22.2895C53.6442 22.3559 53.7412 22.5742 53.7396 22.7214C53.7299 23.5674 53.7234 24.4133 53.7412 25.2592C53.7477 25.5747 53.6377 25.6636 53.3271 25.6782C52.0574 25.7332 52.059 25.7429 52.059 24.4861C52.059 22.2297 52.0768 19.9733 52.0461 17.7169C52.0396 17.1961 52.2046 17.0683 52.6931 17.0958C53.5568 17.1443 54.4286 17.0828 55.2891 17.1589C57.1315 17.3222 58.1327 18.9365 57.497 20.6429C57.1929 21.4549 56.5524 21.8593 55.6676 22.0954Z" fill="#E6E7E2"/>
<path d="M17.2444 26.0117C16.2012 26.0424 15.3229 25.5523 14.6015 24.7064C14.3815 24.4492 14.3734 24.2681 14.6435 24.0659C14.7389 23.9947 14.8247 23.9041 14.9007 23.8103C15.1902 23.4512 15.407 23.2814 15.7758 23.8006C16.1591 24.3408 16.7915 24.4945 17.4547 24.4217C17.9917 24.3619 18.3637 24.0675 18.4964 23.5515C18.629 23.0355 18.4656 22.6117 17.9836 22.3141C17.5663 22.0569 17.1021 21.9227 16.6589 21.7367C15.0414 21.0557 14.5012 20.1871 14.8748 18.8543C15.2339 17.5684 16.591 16.8066 18.0985 17.0573C18.6808 17.1543 19.2129 17.3824 19.7062 17.7124C19.9586 17.8806 20.0508 18.0326 19.8081 18.2753C19.724 18.3594 19.6513 18.4597 19.5882 18.5632C19.3553 18.9498 19.1612 19.1358 18.7083 18.7282C18.223 18.2914 17.5873 18.2963 17.0131 18.6263C16.3855 18.987 16.3855 19.7213 17.0212 20.0626C17.479 20.3084 17.9836 20.4653 18.464 20.6724C20.0394 21.3517 20.5619 22.3222 20.2174 23.9235C19.9408 25.19 18.8085 26.0117 17.2444 26.0117Z" fill="#E6E7E2"/>
<path d="M46.1165 21.3529C46.1165 20.1026 46.1327 18.8539 46.1068 17.6035C46.0987 17.204 46.2217 17.0924 46.6147 17.1005C47.8844 17.1231 49.1542 17.1215 50.4239 17.1021C50.8024 17.0956 50.9625 17.1814 50.948 17.6003C50.9043 18.8247 51.0838 18.5659 49.9661 18.5918C49.4016 18.6048 48.8371 18.5902 48.2726 18.5967C48.1238 18.5983 47.8909 18.5304 47.8763 18.752C47.8456 19.2534 47.8456 19.7596 47.8747 20.2611C47.8877 20.4875 48.1206 20.4163 48.2678 20.418C48.9536 20.4244 49.6394 20.4374 50.3236 20.4147C50.6875 20.4018 50.8558 20.4649 50.8493 20.8951C50.8331 21.9012 50.859 21.9012 49.8238 21.9012C49.3191 21.9012 48.8161 21.9174 48.3131 21.8964C47.9831 21.8834 47.8262 21.9805 47.8505 22.3347C47.8925 22.9542 47.6062 23.7387 47.9637 24.1511C48.3066 24.5458 49.1008 24.2369 49.6944 24.2805C49.8545 24.2918 50.0163 24.2789 50.178 24.2821C51.0304 24.2999 50.9059 24.1447 50.948 25.0602C50.969 25.5244 50.8477 25.691 50.3543 25.6764C49.1056 25.6408 47.8553 25.6473 46.6066 25.6732C46.2006 25.6813 46.1003 25.547 46.1068 25.1604C46.1295 23.8923 46.1165 22.6226 46.1165 21.3529Z" fill="#E6E7E2"/>
<path d="M41.2119 22.8621C41.9317 21.1038 42.645 19.4411 43.2872 17.7524C43.491 17.2154 43.7659 17.0326 44.3062 17.0989C44.641 17.1394 44.9839 17.107 45.4061 17.107C45.1085 17.8058 44.8416 18.4318 44.5763 19.0561C43.6721 21.1847 42.7631 23.3117 41.8719 25.4452C41.7231 25.8026 41.5516 25.9676 41.1278 25.9741C40.683 25.9806 40.5924 25.7266 40.4695 25.4225C39.4214 22.8313 38.3781 20.2385 37.3105 17.6554C37.1148 17.1831 37.2119 17.0892 37.7004 17.0973C38.928 17.1151 38.928 17.0957 39.3858 18.249C39.9842 19.7565 40.5827 21.2688 41.2119 22.8621Z" fill="#E6E7E2"/>
<path d="M27.4217 19.1373C25.6068 18.0617 24.3258 18.0972 23.3909 19.2489C22.4204 20.4426 22.4123 22.2186 23.3715 23.3153C24.3824 24.4734 25.7459 24.5268 27.4734 23.4333C27.5041 23.9978 27.5284 24.5268 27.564 25.0557C27.5866 25.397 27.3149 25.4245 27.0998 25.5086C24.57 26.4936 21.8365 25.2482 21.0342 22.7508C20.2416 20.2792 21.7879 17.6023 24.4131 16.9165C24.6832 16.8453 24.9647 16.7919 25.2445 16.7774C27.1855 16.6722 27.6675 17.1979 27.4217 19.1373Z" fill="#E6E7E2"/>
<path d="M11.982 21.3273C11.982 20.077 11.9949 18.8267 11.9739 17.5764C11.9674 17.2076 12.0758 17.1008 12.4478 17.0976C13.6561 17.0879 13.6561 17.0717 13.6561 18.2994C13.6561 20.5574 13.6464 22.817 13.6642 25.075C13.6674 25.4923 13.6059 25.6864 13.1158 25.6767C11.9836 25.6541 11.982 25.6832 11.982 24.5332C11.982 23.4656 11.982 22.3965 11.982 21.3273Z" fill="#E6E7E2"/>
<path d="M5.7796 21.3885C5.7796 20.6024 5.77637 19.8147 5.78284 19.0286C5.78446 18.8442 5.70843 18.608 6.0384 18.5951C7.10594 18.5547 8.1007 18.7099 8.80592 19.6254C9.48689 20.5086 9.64055 21.4985 9.27499 22.5369C8.85283 23.7322 7.19652 24.5814 5.99958 24.2854C5.72623 24.2175 5.78284 24.0347 5.78284 23.8681C5.77637 23.0416 5.7796 22.215 5.7796 21.3885Z" fill="#34495E"/>
<path d="M54.15 21.0522C53.8023 21.1396 53.7004 20.9099 53.7279 20.4764C53.7619 19.9168 53.7538 19.3523 53.7295 18.7926C53.7149 18.4594 53.8557 18.3624 54.1549 18.3996C54.3538 18.4238 54.5544 18.4352 54.7518 18.4675C55.5104 18.592 55.8986 19.0029 55.9147 19.6903C55.9309 20.3697 55.5459 20.8323 54.8197 20.9859C54.645 21.0215 54.4622 21.0215 54.15 21.0522Z" fill="#34495E"/>
</svg>
