<svg width="47" height="51" viewBox="0 0 47 51" fill="none" xmlns="http://www.w3.org/2000/svg">
<g clip-path="url(#clip0_597_3883)">
<path d="M45.3003 48.6898H1.7003C1.60762 48.6926 1.51536 48.6764 1.42918 48.6422C1.343 48.608 1.26472 48.5565 1.19916 48.491C1.1336 48.4254 1.08215 48.3471 1.04795 48.261C1.01375 48.1748 0.997535 48.0825 1.0003 47.9898V17.9898C0.997535 17.8972 1.01375 17.8049 1.04795 17.7187C1.08215 17.6325 1.1336 17.5543 1.19916 17.4887C1.26472 17.4231 1.343 17.3717 1.42918 17.3375C1.51536 17.3033 1.60762 17.2871 1.7003 17.2899H45.2003C45.293 17.2871 45.3852 17.3033 45.4714 17.3375C45.5576 17.3717 45.6359 17.4231 45.7014 17.4887C45.767 17.5543 45.8185 17.6325 45.8526 17.7187C45.8868 17.8049 45.9031 17.8972 45.9003 17.9898V47.8898C45.9309 47.9831 45.9386 48.0824 45.9227 48.1792C45.9067 48.2761 45.8677 48.3677 45.8088 48.4462C45.7499 48.5247 45.6729 48.5879 45.5844 48.6303C45.4959 48.6727 45.3984 48.6931 45.3003 48.6898Z" stroke="#010101" stroke-width="2" stroke-linecap="round" stroke-linejoin="round"/>
<path d="M7.2998 32.0898H39.6998" stroke="#010101" stroke-width="2" stroke-linecap="round" stroke-linejoin="round"/>
<path d="M29.0996 22.8901H39.6996" stroke="#010101" stroke-width="2" stroke-linecap="round" stroke-linejoin="round"/>
<path d="M36.2004 37.4902C35.5725 37.4983 34.9573 37.6681 34.4142 37.9835C33.8711 38.2988 33.4186 38.7489 33.1004 39.2903C32.775 38.7553 32.3209 38.3103 31.7794 37.9958C31.2379 37.6814 30.6263 37.5076 30.0004 37.4902C29.0456 37.4902 28.1299 37.8695 27.4548 38.5446C26.7797 39.2198 26.4004 40.1355 26.4004 41.0902C26.4004 42.045 26.7797 42.9607 27.4548 43.6358C28.1299 44.311 29.0456 44.6902 30.0004 44.6902C30.6283 44.6822 31.2435 44.5123 31.7866 44.197C32.3296 43.8817 32.7822 43.4316 33.1004 42.8902C33.4257 43.4252 33.8799 43.8702 34.4214 44.1846C34.9629 44.499 35.5745 44.6729 36.2004 44.6902C36.6735 44.6916 37.1422 44.5993 37.5796 44.4189C38.017 44.2384 38.4144 43.9733 38.7489 43.6388C39.0835 43.3042 39.3486 42.9068 39.529 42.4695C39.7095 42.0321 39.8017 41.5634 39.8004 41.0902C39.7704 40.145 39.3814 39.2466 38.7127 38.5779C38.044 37.9092 37.1456 37.5203 36.2004 37.4902V37.4902Z" stroke="#010101" stroke-width="2" stroke-linecap="round" stroke-linejoin="round"/>
<path d="M11 13.7701H14.8L20.19 7.39014" stroke="#010101" stroke-width="2" stroke-linecap="round" stroke-linejoin="round"/>
<path d="M22.7401 7.82C24.6234 7.82 26.1501 6.29329 26.1501 4.41C26.1501 2.52671 24.6234 1 22.7401 1C20.8568 1 19.3301 2.52671 19.3301 4.41C19.3301 6.29329 20.8568 7.82 22.7401 7.82Z" stroke="#010101" stroke-width="2" stroke-linecap="round" stroke-linejoin="round"/>
<path d="M20.9996 13.7701H18.1996L12.8096 7.39014" stroke="#010101" stroke-width="2" stroke-linecap="round" stroke-linejoin="round"/>
<path d="M10.2596 7.82C12.1429 7.82 13.6696 6.29329 13.6696 4.41C13.6696 2.52671 12.1429 1 10.2596 1C8.37632 1 6.84961 2.52671 6.84961 4.41C6.84961 6.29329 8.37632 7.82 10.2596 7.82Z" stroke="#010101" stroke-width="2" stroke-linecap="round" stroke-linejoin="round"/>
<path d="M21.5996 17.3198H11.1396V49.8698H21.5996V17.3198Z" fill="#2B6BF3" stroke="#010101" stroke-width="2" stroke-linecap="round" stroke-linejoin="round"/>
</g>
<defs>
<clipPath id="clip0_597_3883">
<rect width="46.92" height="50.87" fill="white"/>
</clipPath>
</defs>
</svg>
