<svg width="62" height="62" viewBox="0 0 62 62" fill="none" xmlns="http://www.w3.org/2000/svg">
<path d="M41.3333 12.9165C38.9586 12.9165 36.6071 13.3842 34.4131 14.293C32.2192 15.2018 30.2257 16.5338 28.5465 18.213C26.8673 19.8922 25.5353 21.8857 24.6265 24.0796C23.7177 26.2736 23.25 28.6251 23.25 30.9998C23.25 33.3746 23.7177 35.7261 24.6265 37.92C25.5353 40.114 26.8673 42.1075 28.5465 43.7867C30.2257 45.4659 32.2192 46.7979 34.4131 47.7067C36.6071 48.6154 38.9586 49.0832 41.3333 49.0832C43.7081 49.0832 46.0596 48.6154 48.2535 47.7067C50.4475 46.7979 52.441 45.4659 54.1202 43.7867C55.7994 42.1075 57.1314 40.114 58.0402 37.92C58.9489 35.7261 59.4167 33.3746 59.4167 30.9998C59.4167 28.6251 58.9489 26.2736 58.0402 24.0796C57.1314 21.8857 55.7994 19.8922 54.1202 18.213C52.441 16.5338 50.4475 15.2018 48.2535 14.293C46.0596 13.3842 43.7081 12.9165 41.3333 12.9165Z" fill="#FF9800"/>
<path d="M20.6663 12.9165C18.2916 12.9165 15.9401 13.3842 13.7462 14.293C11.5522 15.2018 9.55869 16.5338 7.87949 18.213C6.2003 19.8922 4.86829 21.8857 3.95952 24.0796C3.05075 26.2736 2.58301 28.6251 2.58301 30.9998C2.58301 33.3746 3.05075 35.7261 3.95952 37.92C4.86829 40.114 6.2003 42.1075 7.87949 43.7867C9.55869 45.4659 11.5522 46.7979 13.7462 47.7067C15.9401 48.6154 18.2916 49.0832 20.6663 49.0832C23.0411 49.0832 25.3926 48.6154 27.5865 47.7067C29.7805 46.7979 31.774 45.4659 33.4532 43.7867C35.1324 42.1075 36.4644 40.114 37.3732 37.92C38.2819 35.7261 38.7497 33.3746 38.7497 30.9998C38.7497 28.6251 38.2819 26.2736 37.3732 24.0796C36.4644 21.8857 35.1324 19.8922 33.4532 18.213C31.774 16.5338 29.7805 15.2018 27.5865 14.293C25.3926 13.3842 23.0411 12.9165 20.6663 12.9165Z" fill="#D50000"/>
<path d="M23.25 31.0002C23.25 37.1421 26.319 42.5606 31 45.8285C35.681 42.5606 38.75 37.1421 38.75 31.0002C38.75 24.8583 35.681 19.4398 31 16.1719C26.319 19.4398 23.25 24.8583 23.25 31.0002Z" fill="#FF3D00"/>
</svg>
