<svg width="62" height="45" viewBox="0 0 62 45" fill="none" xmlns="http://www.w3.org/2000/svg">
<g clip-path="url(#clip0_590_3988)">
<path d="M45.2605 17.4717H9.59277" stroke="#010101" stroke-width="2" stroke-linecap="round" stroke-linejoin="round"/>
<path d="M21.3103 7.42773H9.59277" stroke="#010101" stroke-width="2" stroke-linecap="round" stroke-linejoin="round"/>
<path d="M13.5845 23.5233C14.263 23.5229 14.9296 23.7011 15.5174 24.0402C16.1051 24.3793 16.5931 24.8672 16.9324 25.4548C17.3575 24.7183 18.0138 24.1428 18.7995 23.8174C19.5851 23.4919 20.4562 23.4348 21.2776 23.6549C22.099 23.875 22.8248 24.36 23.3424 25.0346C23.8601 25.7093 24.1407 26.5359 24.1407 27.3862C24.1407 28.2366 23.8601 29.0632 23.3424 29.7378C22.8248 30.4125 22.099 30.8974 21.2776 31.1175C20.4562 31.3376 19.5851 31.2805 18.7995 30.9551C18.0138 30.6297 17.3575 30.0541 16.9324 29.3177C16.5077 30.0554 15.8514 30.6321 15.0652 30.9584C14.2791 31.2846 13.4072 31.3422 12.585 31.1219C11.7628 30.9017 11.0364 30.4161 10.5186 29.7406C10.0008 29.065 9.72061 28.2374 9.72155 27.3862C9.70164 26.8736 9.78793 26.3624 9.97501 25.8847C10.1621 25.407 10.446 24.9732 10.8087 24.6104C11.1715 24.2477 11.6053 23.9639 12.083 23.7768C12.5607 23.5897 13.0719 23.5034 13.5845 23.5233V23.5233Z" stroke="#010101" stroke-width="2" stroke-linecap="round" stroke-linejoin="round"/>
<path d="M30.7098 29.7041H60.7119V43.4819H17.3184L30.7098 29.7041Z" fill="#2B6BF3" stroke="#010101" stroke-width="2" stroke-linecap="round" stroke-linejoin="round"/>
<path d="M52.214 29.1246V7.47933C52.2106 5.89921 51.5814 4.38481 50.4641 3.2675C49.3468 2.15018 47.8323 1.52098 46.2522 1.51758H7.27527C5.69411 1.51758 4.17771 2.14567 3.05966 3.26372C1.94161 4.38177 1.31348 5.89817 1.31348 7.47933V30.4123C1.31348 31.9934 1.94161 33.5098 3.05966 34.6279C4.17771 35.7459 5.69411 36.374 7.27527 36.374H22.8944" stroke="#010101" stroke-width="2" stroke-linecap="round" stroke-linejoin="round"/>
</g>
<defs>
<clipPath id="clip0_590_3988">
<rect width="62" height="44.5396" fill="white" transform="translate(0 0.22998)"/>
</clipPath>
</defs>
</svg>
