<svg width="62" height="43" viewBox="0 0 62 43" fill="none" xmlns="http://www.w3.org/2000/svg">
<path d="M0 3.00019C0.37867 1.86742 0.958004 0.904561 2.09402 0.383485C2.49534 0.199005 2.90314 0.0436527 3.35787 0.0792542C4.0283 0.0119934 4.70378 0.0119934 5.37421 0.0792542C5.22371 0.402904 4.96803 0.483817 4.74956 0.597094C3.45982 1.26219 2.84812 2.31568 2.84812 3.7721C2.85567 15.5314 2.85567 27.2863 2.84812 39.037C2.84812 40.4934 3.4582 41.5485 4.74794 42.2169C5.09263 42.3965 5.09101 42.4013 5.3467 42.7395C4.68596 42.806 4.02023 42.806 3.35949 42.7395C1.81729 42.6392 0.838253 41.7832 0.233028 40.4174C0.145642 40.2135 0.178007 39.9707 0 39.8089V3.00019Z" fill="#2E63AC"/>
<path d="M3.35949 42.7329H5.34023L4.61202 42.3624C3.3336 41.7053 2.66041 40.668 2.66041 39.2197C2.66041 27.4432 2.65609 15.6677 2.64746 3.89332C2.64746 2.15694 3.36758 0.980469 4.9389 0.287858C5.0441 0.249301 5.13271 0.175547 5.18973 0.0791042H3.35787C3.58605 -0.0406462 3.83364 0.0111377 4.07152 0.0111377C22.0114 0.0111377 39.9514 0.0111377 57.8913 0.0111377C60.5355 0.0111377 62 1.48698 62 4.14415V38.6582C62 41.338 60.5339 42.7944 57.833 42.7944H7.22225C6.15259 42.7944 5.08293 42.8025 4.01326 42.7944C3.7948 42.8009 3.56824 42.8462 3.35949 42.7329Z" fill="#306FC4"/>
<path d="M19.0174 20.0223C18.9446 20.956 18.4073 20.9933 17.807 20.9285C17.5858 20.9059 17.363 20.9059 17.1418 20.9285C16.5496 20.9933 16.0431 20.9415 15.9201 20.1016C16.0528 21.0515 15.4831 20.9382 14.9491 20.9301C13.8163 20.9123 12.6836 20.901 11.5605 20.9301C11.1009 20.9447 10.8825 20.8072 10.7514 20.3605C10.6511 20.0369 10.6786 19.5514 10.0539 19.5514C9.51989 19.5514 9.21728 19.6922 9.11857 20.2116C9.00853 20.7813 8.68488 20.956 8.10069 20.9301C6.91775 20.8784 5.72995 20.914 4.45801 20.914C4.96614 19.7812 5.45485 18.7342 5.91443 17.6775C6.59194 16.1293 7.25812 14.5758 7.91297 13.0169C8.05052 12.6933 8.2172 12.5573 8.58131 12.5703C9.36778 12.601 10.1559 12.6091 10.9407 12.5703C11.5362 12.5428 12.0363 12.5703 12.1593 13.4004C12.0525 12.4845 12.5913 12.5589 13.1432 12.5735C14.1303 12.5994 15.119 12.5929 16.1078 12.5735C16.2353 12.5553 16.3652 12.584 16.4732 12.6542C16.5812 12.7244 16.6601 12.8314 16.6952 12.9554C16.9121 13.4943 17.158 14.0186 17.4493 14.6772C17.7357 14.0299 17.9882 13.5024 18.2067 12.9603C18.2423 12.8363 18.3211 12.7292 18.4289 12.6583C18.5366 12.5873 18.6661 12.5573 18.7941 12.5735C23.1714 12.5832 27.5504 12.5735 31.9278 12.5881C32.2514 12.5881 32.5605 12.7046 32.8809 12.7272C33.1237 12.7434 33.4781 13.3567 33.6205 12.614C33.6205 12.5816 33.8454 12.5816 33.9652 12.5816C34.9361 12.5816 35.9071 12.5816 36.878 12.5816C37.0981 12.5816 37.3328 12.5363 37.3311 12.8874C37.3311 13.0784 37.4752 13.0363 37.5917 12.9862C38.7422 12.4861 39.9608 12.5881 41.168 12.5832C42.139 12.5832 43.1099 12.5832 44.0808 12.5832C45.0518 12.5832 45.0259 12.5832 45.6101 13.483C45.356 12.444 45.9548 12.5767 46.4678 12.5816C47.1539 12.5816 47.84 12.5994 48.5262 12.5816C49.1605 12.5622 49.7998 12.4958 49.9956 13.4263C49.8596 12.5606 50.3192 12.5541 50.8856 12.5767C51.7303 12.6123 52.5799 12.5962 53.4262 12.5767C53.7337 12.5767 53.8583 12.6641 53.8583 12.9845C53.8497 15.4659 53.8497 17.9472 53.8583 20.4285C53.8583 20.7521 53.7289 20.8363 53.4262 20.833C52.3582 20.8201 51.2891 20.8201 50.2189 20.833C50.1096 20.8434 49.9999 20.8193 49.905 20.7642C49.8101 20.7091 49.7348 20.6256 49.6897 20.5256C49.5602 20.2812 49.4049 20.0514 49.2576 19.8119C49.2075 19.8524 49.1589 19.8718 49.1573 19.8945C49.0942 20.8282 49.0942 20.8282 48.1588 20.8282C47.0908 20.8282 46.0195 20.7877 44.9531 20.8444C44.3818 20.8735 44.097 20.6923 43.9821 20.1501C43.8915 19.7456 43.7523 19.4414 43.1941 19.4575C42.7086 19.4721 42.4319 19.5951 42.3509 20.0708C42.2441 20.7084 41.8784 20.88 41.2489 20.8411C40.0093 20.7586 38.7422 20.9819 37.5464 20.4625C37.48 20.4333 37.357 20.3848 37.3327 20.4786C37.1823 21.0547 36.7194 20.812 36.3925 20.8169C34.839 20.8395 33.2855 20.8169 31.732 20.8363C31.3226 20.8363 31.1429 20.7424 31.1785 20.3023C31.2141 19.8621 31.1883 19.4559 31.1785 19.0319C31.1785 18.9203 31.1785 18.7617 31.0167 18.7698C30.8549 18.7779 30.8792 18.9397 30.8776 19.0481C30.8776 19.5126 30.8549 19.977 30.8776 20.4398C30.897 20.791 30.8144 20.9366 30.418 20.935C26.8077 20.9188 23.1957 20.9123 19.5854 20.935C18.8815 20.9415 19.2375 20.4528 19.0174 20.0223Z" fill="#FEFEFE"/>
<path d="M32.941 28.8049C32.3012 28.9629 31.6434 29.0358 30.9845 29.0217C30.6997 29.0071 30.5832 29.1059 30.5961 29.3988C30.6139 29.8017 30.5961 30.2079 30.5961 30.6092C30.5961 30.8649 30.4974 30.9652 30.2385 30.9636C28.8662 30.9636 27.4875 30.9636 26.1233 30.9636C25.6216 30.9636 25.4566 30.4781 25.2041 30.169C24.895 29.7969 24.6766 29.7515 24.395 30.1513C23.9095 30.8422 23.2493 31.0154 22.4175 30.9879C20.5225 30.928 18.6243 30.9571 16.7293 30.9782C16.307 30.9782 16.1824 30.8649 16.1856 30.4393C16.205 27.958 16.205 25.4767 16.1856 22.9954C16.1856 22.573 16.3021 22.45 16.7261 22.4532C18.9253 22.4727 21.1245 22.4694 23.3237 22.4532C23.4727 22.4451 23.6213 22.4748 23.7557 22.5396C23.8902 22.6044 24.006 22.7022 24.0924 22.8238C24.3286 23.1216 24.5908 23.3983 24.8384 23.6815C24.9031 23.6378 24.9484 23.6216 24.9662 23.5909C25.599 22.5374 26.5634 22.3626 27.7043 22.4435C28.8923 22.5231 30.0842 22.5258 31.2725 22.4516C31.9846 22.4079 32.6901 23.0989 33.3941 22.4613C34.967 22.4743 36.54 22.484 38.1129 22.5034C38.2922 22.5242 38.47 22.5561 38.6453 22.5989C38.9689 22.6426 39.333 23.0746 39.5904 22.484C39.613 22.4354 39.8185 22.4613 39.9383 22.4613C41.8964 22.4613 43.8534 22.4613 45.8093 22.4613C46.0051 22.4613 46.2802 22.3481 46.3417 22.6911C46.3643 22.8254 46.4372 22.8432 46.5504 22.7834C47.4 22.3383 48.3305 22.4791 49.2238 22.4597C49.8484 22.4468 50.4747 22.4354 51.0993 22.4678C51.3922 22.4824 51.8033 22.2542 51.9425 22.7769C51.9781 22.9096 52.1221 22.7898 52.19 22.7429C52.6367 22.4403 53.1416 22.4532 53.6465 22.4565C54.6352 22.4565 55.624 22.4775 56.6111 22.4565C57.0254 22.4435 57.1322 22.5973 57.1208 22.9808C57.0982 23.6863 57.1128 24.3919 57.1208 25.0991C57.0993 25.8193 57.1855 26.5388 57.3765 27.2335C57.9818 29.2191 56.7422 30.9183 54.6789 31.0041C53.4507 31.0559 52.2176 31.0267 50.9877 31.0316C50.8873 31.0316 50.7191 31.0542 50.6964 31.0089C50.4051 30.428 50.02 30.8471 49.6882 30.9199C49.2519 31.0016 48.8083 31.0385 48.3645 31.03C44.8351 31.03 41.3041 31.03 37.7747 31.0445C37.2633 31.0445 37.0999 30.9005 37.15 30.3972C37.1738 29.9947 37.1765 29.5912 37.1581 29.1884C37.1581 29.0136 37.129 28.8486 36.9089 28.8647C36.7147 28.8745 36.718 29.0395 36.718 29.1884C36.718 29.6528 36.7018 30.1173 36.718 30.5801C36.7325 30.9037 36.6419 31.051 36.2826 31.0429C35.3117 31.0235 34.3434 31.0235 33.3779 31.0429C33.0429 31.0429 32.9118 30.9523 32.9264 30.6011C32.9604 29.9991 32.941 29.4166 32.941 28.8049Z" fill="#FEFEFE"/>
<path d="M46.606 19.2053C46.606 17.6145 46.6206 16.0254 46.5963 14.4363C46.5963 14.001 46.7031 13.899 47.1546 13.8392C48.3068 13.6773 49.0204 14.0625 49.4978 15.1516C49.8959 16.061 50.493 16.8815 51.129 17.7116C51.129 16.6161 51.1711 15.5189 51.1144 14.4282C51.0788 13.7485 51.4802 13.8634 51.8766 13.8602C52.2731 13.857 52.6032 13.7841 52.5838 14.4104C52.5353 16.0028 52.5595 17.5984 52.5757 19.1923C52.5757 19.5451 52.4851 19.6406 52.1129 19.694C51.1063 19.838 50.4833 19.4982 50.0237 18.5612C49.4946 17.4818 48.7987 16.4818 48.1692 15.4412C47.9475 15.5448 48.0446 15.7293 48.043 15.8636C48.0236 16.9737 47.9961 18.0822 48.0155 19.1923C48.0155 19.6147 47.8537 19.7069 47.4847 19.6891C46.9211 19.6527 46.3557 19.6527 45.792 19.6891C45.2984 19.7312 45.025 19.5662 44.9327 19.0888C44.8211 18.5191 44.4845 18.325 43.9068 18.3848C43.3642 18.435 42.8181 18.435 42.2756 18.3848C41.8273 18.3476 41.591 18.5143 41.5182 18.9334C41.3985 19.6163 41.0068 19.8623 40.3304 19.7425C40.0291 19.7168 39.7264 19.7098 39.4242 19.7215C37.8399 19.6552 37.0098 18.8865 36.8447 17.3265C36.7832 16.7631 36.8221 16.1933 36.9596 15.6435C37.2541 14.4687 37.9823 13.8537 39.1879 13.7858C39.6912 13.7566 40.1977 13.7858 40.701 13.7663C41.2043 13.7469 41.0441 14.124 41.0344 14.3586C41.0246 14.5933 41.2415 15.0059 40.6978 15.0059C40.2333 15.0059 39.7689 15.0156 39.3093 15.0609C38.7445 15.1176 38.4079 15.4509 38.2672 16.0044C38.1312 16.5133 38.1312 17.049 38.2672 17.5579C38.4532 18.244 39.4145 18.723 40.078 18.4706C40.2803 18.3945 40.2997 18.1987 40.366 18.0385C40.8839 16.8151 41.4082 15.5934 41.9001 14.3586C42.0458 13.9897 42.2238 13.8343 42.6429 13.8392C44.2272 13.8537 44.2255 13.8392 44.8502 15.3263C45.3896 16.6209 45.9339 17.9155 46.483 19.2101L46.606 19.2053Z" fill="#306FC4"/>
<path d="M13.4222 19.1084C13.4222 17.5209 13.4351 15.935 13.4222 14.3491C13.4222 13.9267 13.5063 13.8183 13.9643 13.7471C15.2783 13.5383 15.9968 14.0303 16.3787 15.2925C16.6376 16.1502 17.1021 16.9464 17.5115 17.8655C18.0358 16.613 18.5472 15.4576 18.997 14.2795C19.1588 13.862 19.3773 13.7261 19.7964 13.7681C20.3337 13.8199 21.0312 13.5481 21.3742 13.8749C21.7173 14.2018 21.4746 14.9041 21.481 15.4414C21.4988 16.6713 21.4487 17.9044 21.5021 19.131C21.5296 19.7783 21.1444 19.6569 20.7722 19.6796C20.3515 19.7055 20.1055 19.6521 20.1249 19.11C20.1687 17.8481 20.1384 16.5848 20.0343 15.3265C19.9178 15.5822 19.7981 15.8379 19.6848 16.0968C19.2527 17.0677 18.8012 18.0387 18.4047 19.0307C18.2154 19.5016 17.9775 19.6926 17.4338 19.7023C16.8901 19.712 16.7541 19.4369 16.5891 19.055C16.0712 17.8348 15.534 16.6276 14.9919 15.3832C14.7912 15.5158 14.8608 15.689 14.8592 15.8266C14.8592 16.9156 14.83 18.0047 14.8592 19.0922C14.877 19.5906 14.6973 19.7217 14.2378 19.6909C13.6741 19.6561 13.1088 19.6561 12.5451 19.6909C12.1195 19.7168 11.8476 19.5971 11.7359 19.1699C11.5741 18.5549 11.2035 18.2814 10.553 18.3931C10.2926 18.4295 10.0285 18.4295 9.76815 18.3931C8.94608 18.2976 8.26317 18.3931 8.0528 19.3835C7.99778 19.6424 6.7582 19.8301 6.5802 19.6359C6.4831 19.5259 6.55916 19.411 6.60609 19.2993C7.34401 17.5559 8.08031 15.8131 8.815 14.0708C8.83118 14.0335 8.8328 13.9769 8.86031 13.9591C9.46877 13.5691 10.1436 13.8749 10.7812 13.7795C11.0903 13.7309 11.1339 13.9866 11.2165 14.1824C11.8314 15.6485 12.4453 17.1158 13.058 18.584C13.1341 18.7685 13.2199 18.9498 13.2927 19.1326L13.4222 19.1084Z" fill="#306FC4"/>
<path d="M32.8664 16.8751C33.97 17.4706 33.7095 18.5224 33.6529 19.4481C33.627 19.8979 33.0865 19.6018 32.7871 19.6681C32.5298 19.7264 32.4376 19.5759 32.4424 19.3202C32.4617 18.9588 32.4372 18.5964 32.3696 18.2409C32.343 18.0487 32.2467 17.8731 32.099 17.7475C31.9512 17.6219 31.7624 17.555 31.5686 17.5596C31.0459 17.5385 30.5215 17.5596 29.9989 17.5418C29.7254 17.5321 29.6558 17.6567 29.6606 17.9026C29.6736 18.346 29.6445 18.7894 29.6703 19.2312C29.6898 19.5727 29.5749 19.6779 29.2302 19.6843C28.2236 19.7005 28.2236 19.7167 28.2236 18.7134C28.2236 17.223 28.235 15.7326 28.2236 14.2438C28.2236 13.8764 28.3143 13.7583 28.6929 13.7583C29.7594 13.7826 30.8274 13.7583 31.8938 13.7696C32.9602 13.781 33.4668 14.0722 33.6998 14.7665C33.9506 15.5351 33.6804 16.2423 32.8664 16.8751Z" fill="#306FC4"/>
<path d="M22.6 16.7519C22.6 15.9055 22.6146 15.0575 22.6 14.2112C22.5919 13.8665 22.7052 13.7613 23.0466 13.7662C24.317 13.7824 25.5889 13.7969 26.8592 13.7662C27.4159 13.75 27.2929 14.0898 27.2978 14.3973C27.3026 14.7048 27.3949 15.0899 26.8528 15.0219C26.7121 15.0138 26.5711 15.0138 26.4304 15.0219C24.0176 15.0219 24.0176 15.0219 24.0127 15.5576C24.0127 16.1191 24.0127 16.1191 26.398 16.1191C26.5388 16.1191 26.6812 16.1304 26.8204 16.1191C27.3852 16.0738 27.212 16.4913 27.2347 16.7777C27.2573 17.0642 27.2816 17.336 26.8253 17.3134C26.1213 17.2778 25.4125 17.3231 24.707 17.2972C24.2506 17.281 23.9852 17.2972 23.9852 17.9154C23.9852 18.5627 24.3202 18.506 24.7377 18.4996C25.4433 18.4882 26.1504 18.5287 26.8544 18.4866C27.4046 18.4559 27.2994 18.8103 27.2978 19.1145C27.2962 19.4187 27.4127 19.7618 26.8609 19.7618C25.5905 19.731 24.3202 19.7424 23.0483 19.7618C22.7052 19.7618 22.5935 19.6534 22.6 19.3119C22.613 18.4478 22.6 17.5998 22.6 16.7519Z" fill="#306FC4"/>
<path d="M34.7259 16.7471C34.7259 15.9218 34.7437 15.0965 34.7178 14.2728C34.7049 13.8844 34.8133 13.7145 35.2178 13.7679C35.398 13.7881 35.5798 13.7881 35.76 13.7679C36.0512 13.742 36.1403 13.8682 36.1386 14.1514C36.1311 15.8603 36.1311 17.5697 36.1386 19.2796C36.1386 19.5547 36.0512 19.6939 35.7583 19.6761C35.558 19.6591 35.3567 19.6591 35.1564 19.6761C34.7955 19.7133 34.713 19.5418 34.7194 19.2165C34.7372 18.3961 34.7259 17.5708 34.7259 16.7471Z" fill="#3270C5"/>
<path d="M17.6387 26.8384C17.6387 26.0115 17.65 25.1845 17.6387 24.3576C17.6387 24.0097 17.7131 23.8511 18.1047 23.856C19.6566 23.8754 21.2101 23.8689 22.7621 23.856C22.8816 23.8543 22.9997 23.881 23.1069 23.9339C23.2141 23.9868 23.3072 24.0643 23.3786 24.1602C23.7929 24.6279 24.2298 25.0761 24.636 25.5503C24.8447 25.793 24.9888 25.8108 25.2008 25.5503C25.5244 25.1635 25.9095 24.8253 26.2057 24.4175C26.5568 23.9401 26.9905 23.8155 27.5602 23.8398C28.968 23.9045 30.3824 23.7621 31.7886 23.9191C32.847 24.0356 33.4069 24.5761 33.4457 25.4224C33.491 26.6329 33.0185 27.2494 31.876 27.4841C31.1753 27.6297 30.4682 27.5618 29.7723 27.5601C29.4292 27.5601 29.3079 27.6588 29.3289 28.0052C29.3548 28.4469 29.3208 28.892 29.3402 29.3354C29.3532 29.6363 29.2771 29.7707 28.9421 29.7593C28.2576 29.7367 27.5715 29.7399 26.8854 29.7593C26.776 29.7615 26.6679 29.7367 26.5705 29.687C26.473 29.6373 26.3894 29.5643 26.3271 29.4745C25.9354 29.0133 25.526 28.5667 25.1457 28.0974C24.9661 27.8757 24.8221 27.8191 24.6392 28.0699C24.6036 28.1168 24.547 28.1524 24.5146 28.201C23.6278 29.5554 22.3801 29.981 20.8024 29.7723C19.9285 29.659 19.0223 29.7318 18.1436 29.761C17.7341 29.7755 17.6306 29.6315 17.6435 29.2447C17.65 28.4518 17.6387 27.6443 17.6387 26.8384Z" fill="#306FC4"/>
<path d="M38.7786 27.0134C39.5488 27.4633 39.9825 28.7595 39.6896 29.5897C39.6737 29.647 39.6371 29.6964 39.5869 29.7284C39.5367 29.7603 39.4765 29.7726 39.4178 29.7629C39.2561 29.7514 39.0939 29.7514 38.9323 29.7629C38.3821 29.8519 38.1766 29.6399 38.2445 29.0832C38.262 28.802 38.2392 28.5197 38.1766 28.2449C38.1678 28.1487 38.1402 28.0552 38.0953 27.9697C38.0504 27.8842 37.989 27.8084 37.9148 27.7466C37.8405 27.6848 37.7548 27.6383 37.6626 27.6097C37.5703 27.5811 37.4733 27.5709 37.3771 27.5798C36.8528 27.5798 36.3285 27.5879 35.8042 27.5717C35.5291 27.562 35.4628 27.6802 35.4692 27.9294C35.4822 28.3922 35.4531 28.8583 35.4789 29.3195C35.4984 29.6593 35.3916 29.7645 35.042 29.7693C34.0306 29.7807 34.0322 29.7968 34.0322 28.8113C34.0322 27.2983 34.0419 25.7868 34.0322 24.2802C34.0322 23.9242 34.1083 23.7818 34.4967 23.7948C35.6294 23.8239 36.7622 23.8126 37.8837 23.8158C38.6459 23.8158 39.2818 24.0553 39.5828 24.8191C39.8644 25.5311 39.6168 26.2593 38.9355 26.8549C38.887 26.8888 38.8514 26.9342 38.7786 27.0134Z" fill="#306FC4"/>
<path d="M40.5367 26.7559C40.5367 25.9096 40.5465 25.0632 40.5367 24.2169C40.5367 23.9078 40.6241 23.7913 40.9478 23.7945C42.2569 23.8091 43.5677 23.8074 44.8785 23.7945C45.4627 23.7945 45.2232 24.2201 45.2491 24.4871C45.275 24.7541 45.3575 25.0681 44.8753 25.0519C44.1503 25.0244 43.4188 25.0519 42.6987 25.0438C42.3023 25.0438 41.9236 24.9354 41.9252 25.6069C41.9268 26.2785 42.3039 26.1313 42.6647 26.1329C43.291 26.1329 43.9173 26.1669 44.5387 26.1232C45.0355 26.0892 45.1747 26.2364 45.186 26.7446C45.2005 27.3126 44.9546 27.3546 44.5079 27.3352C43.804 27.3061 43.0952 27.3579 42.3913 27.3174C41.9058 27.2899 41.9349 27.565 41.9446 27.8838C41.9543 28.2026 41.8572 28.5424 42.3961 28.5198C43.2052 28.4874 44.0144 28.536 44.8138 28.5036C45.4222 28.4793 45.2281 28.9017 45.2523 29.2027C45.2766 29.5037 45.3041 29.7853 44.8154 29.7739C43.5208 29.74 42.2343 29.7529 40.9445 29.7739C40.6209 29.7739 40.527 29.672 40.5335 29.358C40.5481 28.4907 40.5367 27.6233 40.5367 26.7559Z" fill="#306FC4"/>
<path d="M49.0898 23.7073C49.3923 23.7248 49.6956 23.7221 49.9977 23.6992C50.5592 23.6247 50.7518 23.7914 50.7485 24.4015C50.7453 25.0116 50.5997 25.2106 49.9799 25.1588C49.2986 25.1006 48.6092 25.1475 47.9231 25.1507C47.648 25.1507 47.3826 25.1831 47.3518 25.5424C47.3211 25.9016 47.5654 26.0715 47.8567 26.1071C48.2742 26.1589 48.7031 26.1265 49.1254 26.1492C50.3699 26.2123 50.9621 26.7852 50.9686 27.9196C50.9686 29.0119 50.3343 29.6851 49.1481 29.745C48.2613 29.7903 47.368 29.745 46.4844 29.7708C45.9003 29.787 46.1236 29.3679 46.0993 29.0993C46.0702 28.8048 46.0152 28.4843 46.5168 28.507C47.2418 28.5394 47.9732 28.5151 48.695 28.5151C49.1092 28.5151 49.5041 28.4358 49.5138 27.926C49.5235 27.4163 49.1335 27.3451 48.716 27.3208C48.2325 27.3047 47.7507 27.2549 47.2742 27.1719C46.3582 26.9891 45.9164 26.4259 45.9084 25.5181C45.8986 24.6378 46.3663 24.0244 47.224 23.7963C47.3186 23.7622 47.4169 23.7394 47.5169 23.7283C48.0412 23.7283 48.5655 23.7283 49.0898 23.7283V23.7073Z" fill="#306FC4"/>
<path d="M53.2764 29.7657H52.3686C51.5125 29.7657 51.5319 29.7657 51.5594 28.9096C51.5691 28.586 51.6954 28.5034 51.9931 28.5099C52.7181 28.5245 53.4495 28.5099 54.1697 28.5099C54.5807 28.5099 54.9788 28.4387 54.9788 27.9192C54.9788 27.3998 54.5936 27.348 54.1842 27.3172C53.6613 27.2934 53.1409 27.2301 52.6275 27.1279C51.8184 26.9402 51.451 26.4644 51.3847 25.6294C51.3507 25.2754 51.4293 24.9198 51.6091 24.613C51.789 24.3062 52.0609 24.0639 52.3864 23.9205C52.9188 23.6616 53.4835 23.7069 54.0467 23.7037C54.469 23.7037 54.8946 23.6827 55.317 23.7037C55.6002 23.7231 56.0242 23.5257 56.1407 23.8283C56.2702 24.1617 56.1909 24.5824 56.1682 24.9611C56.152 25.2022 55.9287 25.1229 55.7847 25.1229C55.0176 25.1229 54.2506 25.1342 53.4852 25.1229C53.1502 25.1229 52.8508 25.1779 52.8249 25.5695C52.7958 26.0113 53.1486 26.0793 53.4803 26.1036C53.8412 26.1311 54.2053 26.1036 54.5678 26.1214C55.7005 26.178 56.5097 26.9078 56.5275 27.8723C56.5453 28.8368 55.8009 29.6152 54.6649 29.7187C54.2053 29.7608 53.7392 29.7187 53.2748 29.7187L53.2764 29.7657Z" fill="#306FC4"/>
<path d="M43.2202 14.7954C43.5261 15.5657 43.7721 16.1984 44.0294 16.8263C44.1281 17.0707 44.0439 17.1645 43.7947 17.15C43.7748 17.1483 43.7548 17.1483 43.7348 17.15C42.1603 17.2503 42.1603 17.2503 42.7768 15.8052C42.8982 15.5091 43.0325 15.2194 43.2202 14.7954Z" fill="#FAFBFD"/>
<path d="M9.99096 14.8716C10.258 15.5415 10.5056 16.1662 10.7564 16.7973C10.8519 17.0336 10.8308 17.1371 10.5217 17.1582C8.98279 17.2617 8.97955 17.2714 9.55079 15.8312C9.67216 15.5205 9.7466 15.1839 9.99096 14.8716Z" fill="#FAFBFD"/>
<path d="M30.8113 16.3654C30.6707 16.3549 30.5296 16.3549 30.389 16.3654C29.8274 16.456 29.6219 16.2748 29.6397 15.6647C29.6575 15.142 29.7676 14.9381 30.3113 15.0028C30.7887 15.0595 31.2823 15.0222 31.758 15.0578C31.8401 15.0555 31.9216 15.0718 31.9963 15.1056C32.0711 15.1394 32.1372 15.1898 32.1896 15.253C32.242 15.3162 32.2794 15.3904 32.2988 15.4702C32.3182 15.5499 32.3192 15.633 32.3017 15.7132C32.2678 16.0579 32.1399 16.3427 31.7176 16.346C31.4149 16.346 31.1123 16.346 30.8113 16.346V16.3654Z" fill="#FCFDFD"/>
<path d="M20.9503 25.047C22.1284 24.6198 22.9149 25.4612 23.6544 26.4646C23.8664 26.7542 23.8341 26.8804 23.6415 27.1669C22.8744 28.2997 21.8841 28.8418 20.4924 28.5877C20.0919 28.5399 19.6872 28.5399 19.2868 28.5877C18.6994 28.6249 18.9097 28.1961 18.8952 27.9275C18.8806 27.6588 18.7528 27.3028 19.2852 27.3271C20.0474 27.3611 20.816 27.3077 21.5798 27.3449C22.1349 27.3708 22.0022 27.0067 22.0119 26.7073C22.0216 26.4079 22.075 26.1069 21.5782 26.1312C20.8144 26.1717 20.0474 26.1166 19.2835 26.1522C18.8094 26.1733 18.8822 25.8836 18.8903 25.6101C18.8984 25.3366 18.7722 25.0178 19.2609 25.047C19.7496 25.0761 20.2286 25.047 20.9503 25.047Z" fill="#FEFEFE"/>
<path d="M27.8601 24.5098V29.2173L25.8665 26.9938C25.7791 26.8951 25.7338 26.7915 25.8406 26.6701L27.8601 24.5098Z" fill="#FDFEFE"/>
<path d="M30.423 26.5779H30.3016C29.3144 26.5779 29.1025 26.2866 29.3177 25.2833C29.3662 25.0567 29.4925 25.0486 29.6608 25.0486C30.1656 25.0486 30.6705 25.0308 31.1738 25.0583C31.6771 25.0859 31.9829 25.3367 31.9991 25.8464C32.0153 26.3562 31.6496 26.5326 31.2094 26.5714C30.9489 26.5941 30.6851 26.5714 30.423 26.5714V26.5779Z" fill="#FBFCFD"/>
<path d="M36.742 25.1505H37.4685C37.8763 25.1505 38.1806 25.2606 38.166 25.7671C38.1514 26.2331 37.954 26.484 37.4718 26.484C36.9895 26.484 36.462 26.484 35.9587 26.4921C35.682 26.4921 35.5768 26.4176 35.5606 26.1215C35.5056 25.1441 35.491 25.1457 36.742 25.1505Z" fill="#FDFEFE"/>
</svg>
