<svg width="62" height="62" viewBox="0 0 62 62" fill="none" xmlns="http://www.w3.org/2000/svg">
<g clip-path="url(#clip0_560_4097)">
<path d="M11.7505 21.2076C12.472 20.28 12.9874 19.0431 12.8328 17.8062C11.7505 17.8577 10.462 18.5277 9.68897 19.4038C9.01898 20.1769 8.40053 21.4653 8.55514 22.6507C9.79205 22.8053 10.9774 22.1353 11.7505 21.2076ZM12.8328 22.9599C11.0805 22.8569 9.5859 23.9392 8.76129 23.9392C7.93669 23.9392 6.64824 23.0115 5.25672 23.0115C3.4529 23.063 1.80369 24.0422 0.876004 25.6914C-0.979358 28.9383 0.360626 33.7313 2.21599 36.3598C3.09213 37.6482 4.17443 39.0913 5.56595 39.0397C6.90593 38.9882 7.42131 38.1636 9.01898 38.1636C10.6167 38.1636 11.0805 39.0397 12.5236 38.9882C13.9666 38.9367 14.8943 37.6998 15.7704 36.3598C16.8012 34.8652 17.2135 33.4221 17.2135 33.3706C17.162 33.319 14.3789 32.2883 14.3789 29.0929C14.3274 26.413 16.5435 25.1245 16.6466 25.073C15.4612 23.2176 13.5028 23.0115 12.8328 22.9599Z" fill="black"/>
<path d="M27.9849 19.3008C31.7987 19.3008 34.4271 21.9292 34.4271 25.6915C34.4271 29.5053 31.7471 32.1337 27.8818 32.1337H23.7072V38.7821H20.6665V19.3008H27.9849ZM23.7072 29.6083H27.1603C29.7887 29.6083 31.2833 28.1653 31.2833 25.743C31.2833 23.2692 29.7887 21.8777 27.1603 21.8777H23.6557V29.6083H23.7072ZM35.2002 34.8137C35.2002 32.3399 37.1071 30.7937 40.5086 30.5876L44.4254 30.3814V29.2991C44.4254 27.7014 43.3431 26.7738 41.5909 26.7738C39.8901 26.7738 38.8594 27.5984 38.6017 28.8353H35.8186C35.9732 26.2584 38.1894 24.3515 41.6939 24.3515C45.147 24.3515 47.3631 26.1553 47.3631 29.0414V38.8336H44.5801V36.5144H44.5285C43.7039 38.1121 41.9001 39.0913 40.0447 39.0913C37.1586 39.0913 35.2002 37.339 35.2002 34.8137ZM44.4254 33.5252V32.3914L40.9209 32.5975C39.1686 32.7006 38.1894 33.4737 38.1894 34.7106C38.1894 35.9475 39.2201 36.7721 40.7663 36.7721C42.8278 36.7721 44.4254 35.3806 44.4254 33.5252ZM49.94 44.0905V41.7197C50.1461 41.7713 50.6615 41.7713 50.8677 41.7713C52.2077 41.7713 52.9292 41.2044 53.393 39.7613C53.393 39.7098 53.6507 38.8852 53.6507 38.8852L48.4969 24.6607H51.6407L55.2484 36.2567H55.2999L58.9076 24.6607H61.9998L56.6914 39.6582C55.4545 43.1113 54.063 44.1936 51.1254 44.1936C50.9192 44.142 50.1977 44.142 49.94 44.0905Z" fill="black"/>
</g>
<defs>
<clipPath id="clip0_560_4097">
<rect width="62" height="62" fill="white"/>
</clipPath>
</defs>
</svg>
