<svg width="62" height="62" viewBox="0 0 62 62" fill="none" xmlns="http://www.w3.org/2000/svg">
<g clip-path="url(#clip0_605_3868)">
<path d="M60.6678 15.2364H52.1065L51.9482 8.64061H10.052L10.0124 15.2364H1.45117V1.33252H60.6678V15.2364Z" fill="#EF2B23"/>
<path d="M10.2892 59.8104V9.41894C10.2856 9.29668 10.3069 9.17496 10.3521 9.06127C10.3972 8.94759 10.465 8.84434 10.5515 8.75785C10.638 8.67137 10.7413 8.60349 10.855 8.55838C10.9687 8.51327 11.0904 8.49187 11.2126 8.49552H50.7871C50.9093 8.49187 51.031 8.51327 51.1447 8.55838C51.2584 8.60349 51.3617 8.67137 51.4481 8.75785C51.5346 8.84434 51.6025 8.94759 51.6476 9.06127C51.6927 9.17496 51.7141 9.29668 51.7105 9.41894V59.6785C51.7141 59.8007 51.6927 59.9225 51.6476 60.0361C51.6025 60.1498 51.5346 60.2531 51.4481 60.3396C51.3617 60.4261 51.2584 60.4939 51.1447 60.5391C51.031 60.5842 50.9093 60.6055 50.7871 60.6019H11.2126C11.0969 60.6325 10.9756 60.6345 10.859 60.6078C10.7423 60.5811 10.634 60.5264 10.5431 60.4486C10.4523 60.3707 10.3817 60.272 10.3375 60.1608C10.2933 60.0496 10.2767 59.9294 10.2892 59.8104V59.8104Z" stroke="#010101" stroke-width="2" stroke-linecap="round" stroke-linejoin="round"/>
<path d="M32.187 16.6738V52.5547" stroke="#010101" stroke-width="2" stroke-linecap="round" stroke-linejoin="round"/>
<path d="M44.3232 38.7036V52.5547" stroke="#010101" stroke-width="2" stroke-linecap="round" stroke-linejoin="round"/>
<path d="M25.0638 47.9381C25.0682 47.1243 24.8491 46.3249 24.4304 45.6271C24.0117 44.9292 23.4095 44.3597 22.6894 43.9806C23.3707 43.5502 23.9282 42.9498 24.3072 42.2386C24.6862 41.5274 24.8735 40.7298 24.8508 39.9242C24.8281 39.1186 24.5961 38.3328 24.1777 37.6441C23.7593 36.9553 23.1688 36.3873 22.4643 35.996C21.7598 35.6046 20.9656 35.4033 20.1598 35.4119C19.3539 35.4205 18.5642 35.6386 17.8682 36.045C17.1722 36.4513 16.594 37.0317 16.1903 37.7292C15.7867 38.4267 15.5715 39.2173 15.566 40.0232C15.5616 40.837 15.7807 41.6363 16.1994 42.3342C16.6181 43.032 17.2203 43.6015 17.9404 43.9806C17.2591 44.4111 16.7016 45.0114 16.3226 45.7226C15.9436 46.4339 15.7563 47.2315 15.779 48.037C15.8017 48.8426 16.0337 49.6284 16.4521 50.3171C16.8705 51.0059 17.461 51.5739 18.1655 51.9653C18.87 52.3567 19.6642 52.5579 20.4701 52.5493C21.2759 52.5408 22.0656 52.3226 22.7616 51.9163C23.4576 51.51 24.0358 50.9295 24.4395 50.232C24.8431 49.5345 25.0583 48.7439 25.0638 47.9381V47.9381Z" stroke="#010101" stroke-width="2" stroke-linecap="round" stroke-linejoin="round"/>
<path d="M10.2895 15.487H1.31934V1.37207H60.681V15.487H51.8427" stroke="#010101" stroke-width="2" stroke-linecap="round" stroke-linejoin="round"/>
</g>
<defs>
<clipPath id="clip0_605_3868">
<rect width="62" height="61.8945" fill="white" transform="translate(0 0.0527344)"/>
</clipPath>
</defs>
</svg>
