<svg width="52" height="51" viewBox="0 0 52 51" fill="none" xmlns="http://www.w3.org/2000/svg">
<g clip-path="url(#clip0_605_3898)">
<path d="M18.94 32.98H2V48.51H18.94V32.98Z" fill="#2B6BF3"/>
<path d="M45.1602 1.64014H6.84021C4.01252 1.64014 1.72021 3.93244 1.72021 6.76014V44.2401C1.72021 47.0678 4.01252 49.3601 6.84021 49.3601H45.1602C47.9879 49.3601 50.2802 47.0678 50.2802 44.2401V6.76014C50.2802 3.93244 47.9879 1.64014 45.1602 1.64014Z" stroke="#010101" stroke-width="2" stroke-linecap="round" stroke-linejoin="round"/>
<path d="M49.8705 17.7402H37.0005C36.5027 17.7402 36.0099 17.8383 35.5501 18.0287C35.0903 18.2192 34.6724 18.4984 34.3205 18.8503C33.9686 19.2022 33.6894 19.62 33.4989 20.0799C33.3085 20.5397 33.2104 21.0325 33.2104 21.5302V49.1102" stroke="#010101" stroke-width="2" stroke-linecap="round" stroke-linejoin="round"/>
<path d="M18.6802 49.1002V2.2002" stroke="#010101" stroke-width="2" stroke-linecap="round" stroke-linejoin="round"/>
<path d="M2.8501 17.3203H18.1001" stroke="#010101" stroke-width="2" stroke-linecap="round" stroke-linejoin="round"/>
<path d="M2.43018 32.9702H18.6602" stroke="#010101" stroke-width="2" stroke-linecap="round" stroke-linejoin="round"/>
<path d="M33.3403 32.1201H49.0103" stroke="#010101" stroke-width="2" stroke-linecap="round" stroke-linejoin="round"/>
</g>
<defs>
<clipPath id="clip0_605_3898">
<rect width="50.56" height="49.72" fill="white" transform="translate(0.720215 0.640137)"/>
</clipPath>
</defs>
</svg>
