<svg width="62" height="26" viewBox="0 0 62 26" fill="none" xmlns="http://www.w3.org/2000/svg">
<g clip-path="url(#clip0_560_4115)">
<path d="M29.3965 12.6597V19.867H27.1123V2.07575H33.1704C34.6318 2.04737 36.0363 2.60069 37.1004 3.6222C38.1645 4.57277 38.7604 5.94897 38.732 7.36773C38.7604 8.80068 38.1645 10.1769 37.1004 11.1416C36.0363 12.149 34.7311 12.6597 33.1846 12.6597H29.3965ZM29.3965 4.26064V10.4748H33.2272C34.0784 10.5032 34.9013 10.1627 35.483 9.55263C36.689 8.38924 36.7031 6.47391 35.5398 5.26796L35.483 5.21121C34.9013 4.58696 34.0784 4.24645 33.2272 4.27483L29.3965 4.26064ZM43.9956 7.2968C45.6839 7.2968 47.0176 7.7508 47.9965 8.64462C48.9755 9.55263 49.4578 10.787 49.4578 12.3618V19.8529H47.2729V18.1645H47.1736C46.2231 19.5549 44.9745 20.2501 43.3997 20.2501C42.0661 20.2501 40.9311 19.8529 40.0372 19.0583C39.1576 18.3206 38.661 17.2281 38.6894 16.0789C38.6894 14.8162 39.1718 13.8231 40.1224 13.0712C41.0729 12.3192 42.3498 11.9503 43.9388 11.9503C45.3009 11.9503 46.4075 12.2057 47.2871 12.6881V12.1632C47.2871 11.3828 46.9466 10.6451 46.3507 10.1485C45.7407 9.60938 44.9604 9.31144 44.1517 9.31144C42.8748 9.31144 41.8674 9.85057 41.1155 10.9288L39.1009 9.66613C40.1933 8.0913 41.8249 7.2968 43.9956 7.2968ZM41.0446 16.1357C41.0446 16.7316 41.3283 17.2849 41.7965 17.6254C42.3073 18.0226 42.9315 18.2355 43.57 18.2213C44.5347 18.2213 45.4569 17.8382 46.1379 17.1572C46.8899 16.4478 47.2729 15.6107 47.2729 14.646C46.5636 14.0785 45.5704 13.7947 44.2935 13.7947C43.3713 13.7947 42.591 14.0217 41.9668 14.4616C41.3567 14.9156 41.0446 15.4689 41.0446 16.1357ZM61.9997 7.69405L54.3668 25.23H52.0116L54.8491 19.1009L49.8267 7.70824H52.3096L55.9274 16.4478H55.9842L59.5169 7.70824L61.9997 7.69405Z" fill="#5F6368"/>
<path d="M20.1606 11.0987C20.1606 10.4035 20.1039 9.70835 19.9903 9.02734H10.3569V12.9573H15.8759C15.6489 14.22 14.9112 15.355 13.8329 16.0644V18.6182H17.1244C19.054 16.8447 20.1606 14.22 20.1606 11.0987Z" fill="#4285F4"/>
<path d="M10.357 21.0873C13.1094 21.0873 15.4362 20.1793 17.1245 18.6186L13.833 16.0649C12.9108 16.6891 11.7332 17.0438 10.357 17.0438C7.68975 17.0438 5.43392 15.242 4.62522 12.8301H1.23438V15.469C2.96527 18.9024 6.49799 21.0873 10.357 21.0873Z" fill="#34A853"/>
<path d="M4.62502 12.8301C4.19939 11.5674 4.19939 10.1912 4.62502 8.91427V6.28955H1.23417C0.513671 7.70969 0.138184 9.27971 0.138184 10.8722C0.138184 12.4646 0.513671 14.0346 1.23417 15.4548L4.62502 12.8301Z" fill="#FBBC04"/>
<path d="M10.357 4.70035C11.8184 4.67197 13.2229 5.22529 14.2728 6.23261L17.1813 3.32414C15.3369 1.57906 12.8966 0.628492 10.357 0.656867C6.49799 0.656867 2.96527 2.84176 1.23438 6.28936L4.62522 8.92826C5.43392 6.50218 7.68975 4.70035 10.357 4.70035Z" fill="#EA4335"/>
</g>
<defs>
<clipPath id="clip0_560_4115">
<rect width="62" height="24.6865" fill="white" transform="translate(0 0.656738)"/>
</clipPath>
</defs>
</svg>
