<svg width="48" height="44" viewBox="0 0 48 44" fill="none" xmlns="http://www.w3.org/2000/svg">
<g clip-path="url(#clip0_605_3906)">
<path d="M1.5 14.2999L16 24.2999L46.5 10.0999L30.1 1.3999L1.5 14.2999Z" stroke="#010101" stroke-width="2" stroke-linecap="round" stroke-linejoin="round"/>
<path d="M33.7002 22.1998L46.5002 16.1998L40.8002 12.7998" stroke="#010101" stroke-width="2" stroke-linecap="round" stroke-linejoin="round"/>
<path d="M6.6 18.1997L1.5 20.3997L16 30.3997L26.4 25.5997" stroke="#010101" stroke-width="2" stroke-linecap="round" stroke-linejoin="round"/>
<path d="M33.7998 28.1999L46.4998 22.2999L40.7998 18.8999" stroke="#010101" stroke-width="2" stroke-linecap="round" stroke-linejoin="round"/>
<path d="M6.6 24.1997L1.5 26.4997L16 36.4997L26.5 31.6997" stroke="#010101" stroke-width="2" stroke-linecap="round" stroke-linejoin="round"/>
<path d="M6.6 30.3L1.5 32.6L16 42.6L46.5 28.4L40.8 25" stroke="#010101" stroke-width="2" stroke-linecap="round" stroke-linejoin="round"/>
<path d="M32 7.6001L33.8 8.7001" stroke="#010101" stroke-width="2" stroke-linecap="round" stroke-linejoin="round"/>
<path d="M12.1001 16.7998L13.9001 17.7998" stroke="#010101" stroke-width="2" stroke-linecap="round" stroke-linejoin="round"/>
<path d="M33.5999 34.4L26.3999 37.8V19.5L33.7999 16L33.5999 34.4Z" fill="#2B6BF3" stroke="#010101" stroke-width="2" stroke-linecap="round" stroke-linejoin="round"/>
<path d="M33.7999 16.0001L18.6999 6.6001L11.8999 9.6001L26.3999 19.5001L33.7999 16.0001Z" fill="#2B6BF3" stroke="#010101" stroke-width="2" stroke-linecap="round" stroke-linejoin="round"/>
</g>
<defs>
<clipPath id="clip0_605_3906">
<rect width="47" height="43.2" fill="white" transform="translate(0.5 0.399902)"/>
</clipPath>
</defs>
</svg>
