<svg width="60" height="60" viewBox="0 0 60 60" fill="none" xmlns="http://www.w3.org/2000/svg">
<g clip-path="url(#clip0_595_3999)">
<path d="M29.0081 46.5453H7.07764V8.01953H29.0081V12.9906L20.2208 13.5806L19.7438 41.7499L29.0081 41.5742V46.5453Z" fill="#2B6BF3"/>
<path d="M57.3662 42.8675H20.0832C19.9669 42.8709 19.8511 42.8506 19.7429 42.8077C19.6347 42.7647 19.5364 42.7001 19.4541 42.6178C19.3718 42.5355 19.3072 42.4373 19.2643 42.3291C19.2214 42.2209 19.201 42.1051 19.2045 41.9888V13.1164C19.201 13.0001 19.2214 12.8843 19.2643 12.7761C19.3072 12.6679 19.3718 12.5696 19.4541 12.4873C19.5364 12.405 19.6347 12.3404 19.7429 12.2975C19.8511 12.2546 19.9669 12.2342 20.0832 12.2377H57.3662C57.4825 12.2342 57.5983 12.2546 57.7065 12.2975C57.8147 12.3404 57.913 12.405 57.9953 12.4873C58.0776 12.5696 58.1422 12.6679 58.1851 12.7761C58.228 12.8843 58.2484 13.0001 58.2449 13.1164V41.9888C58.2302 42.217 58.1328 42.432 57.9711 42.5937C57.8094 42.7554 57.5944 42.8527 57.3662 42.8675Z" stroke="#010101" stroke-width="2" stroke-linecap="round" stroke-linejoin="round"/>
<path d="M41.6743 25.293H52.0935" stroke="#010101" stroke-width="2" stroke-linecap="round" stroke-linejoin="round"/>
<path d="M41.6743 17.6353H52.0935" stroke="#010101" stroke-width="2" stroke-linecap="round" stroke-linejoin="round"/>
<path d="M48.5785 31.8203C47.9696 31.8388 47.375 32.0093 46.8488 32.3162C46.3226 32.6232 45.8815 33.0568 45.5657 33.5778C45.2499 33.0568 44.8088 32.6232 44.2826 32.3162C43.7564 32.0093 43.1619 31.8388 42.553 31.8203C41.6208 31.8203 40.7267 32.1906 40.0676 32.8498C39.4084 33.509 39.0381 34.403 39.0381 35.3352C39.0381 36.2674 39.4084 37.1614 40.0676 37.8206C40.7267 38.4798 41.6208 38.8501 42.553 38.8501C43.1619 38.8316 43.7564 38.6611 44.2826 38.3542C44.8088 38.0472 45.2499 37.6136 45.5657 37.0927C45.8815 37.6136 46.3226 38.0472 46.8488 38.3542C47.375 38.6611 47.9696 38.8316 48.5785 38.8501C49.5107 38.8501 50.4047 38.4798 51.0639 37.8206C51.7231 37.1614 52.0934 36.2674 52.0934 35.3352C52.0742 34.409 51.6977 33.5261 51.0426 32.8711C50.3876 32.2161 49.5047 31.8395 48.5785 31.8203V31.8203Z" stroke="#010101" stroke-width="2" stroke-linecap="round" stroke-linejoin="round"/>
<path d="M34.1425 42.7417V57.3033C34.146 57.4197 34.1256 57.5355 34.0827 57.6437C34.0398 57.7519 33.9752 57.8501 33.8929 57.9324C33.8106 58.0147 33.7123 58.0793 33.6041 58.1223C33.4959 58.1652 33.3801 58.1855 33.2638 58.1821H2.634C2.51766 58.1855 2.40185 58.1652 2.29366 58.1223C2.18548 58.0793 2.08719 58.0147 2.00489 57.9324C1.92259 57.8501 1.85799 57.7519 1.81506 57.6437C1.77213 57.5355 1.75179 57.4197 1.75526 57.3033V2.69695C1.75179 2.58061 1.77213 2.4648 1.81506 2.35661C1.85799 2.24843 1.92259 2.15018 2.00489 2.06788C2.08719 1.98558 2.18548 1.92098 2.29366 1.87805C2.40185 1.83512 2.51766 1.81478 2.634 1.81825H33.1383C33.2546 1.81478 33.3704 1.83512 33.4786 1.87805C33.5868 1.92098 33.685 1.98558 33.7673 2.06788C33.8496 2.15018 33.9142 2.24843 33.9572 2.35661C34.0001 2.4648 34.0205 2.58061 34.017 2.69695V11.7353" stroke="#010101" stroke-width="2" stroke-linecap="round" stroke-linejoin="round"/>
<path d="M28.996 43.1183V47.3864H6.90234V7.59277H28.996V11.9864" stroke="#010101" stroke-width="2" stroke-linecap="round" stroke-linejoin="round"/>
<path d="M16.4424 53.0352H19.4551" stroke="#010101" stroke-width="2" stroke-linecap="round" stroke-linejoin="round"/>
</g>
<defs>
<clipPath id="clip0_595_3999">
<rect width="59" height="58.8745" fill="white" transform="translate(0.5 0.562988)"/>
</clipPath>
</defs>
</svg>
