<svg width="62" height="21" viewBox="0 0 62 21" fill="none" xmlns="http://www.w3.org/2000/svg">
<path d="M0 0.678289C0.0987297 0.446808 0.220118 0.31731 0.5244 0.320547C3.18686 0.338353 5.84933 0.318929 8.5118 0.336736C9.87783 0.344829 10.734 1.10726 10.9978 2.50748C11.6582 6.01044 12.3105 9.51503 12.966 13.0196C12.9838 13.1135 13.0145 13.2058 13.0712 13.4194C13.1861 13.1702 13.2621 13.0261 13.3237 12.8739C14.9001 8.88857 16.4846 4.90484 18.0416 0.911389C18.2148 0.464615 18.422 0.307596 18.9092 0.318927C20.4192 0.356158 21.9326 0.333495 23.4362 0.333495C23.5219 0.556882 23.3876 0.709047 23.3212 0.867684C20.7575 6.99464 18.1873 13.1184 15.6317 19.2486C15.4844 19.6014 15.3096 19.7228 14.9276 19.7164C13.5357 19.6921 12.1438 19.6775 10.7534 19.7212C10.2452 19.7374 10.072 19.5691 9.95228 19.098C8.70763 14.2013 7.42091 9.31592 6.19407 4.41436C5.92864 3.3557 5.37672 2.67259 4.37971 2.26466C2.95865 1.68353 1.50199 1.23352 0.00161887 0.922721C3.45789e-07 0.840165 0 0.759226 0 0.678289Z" fill="#1A2ADE"/>
<path d="M44.0479 19.7039C44.5318 18.5368 44.9898 17.4263 45.4543 16.3191C47.4273 11.6037 49.4019 6.88826 51.3749 2.17285C51.9721 0.745118 52.5953 0.332337 54.149 0.330718C55.2189 0.330718 56.2887 0.363094 57.3553 0.31615C57.8458 0.295106 58.0027 0.468312 58.095 0.918324C59.105 5.8296 60.1343 10.736 61.1572 15.6457C61.4356 16.9811 61.7124 18.3166 62.0005 19.7055C60.5212 19.7055 59.092 19.7006 57.6629 19.7103C57.3877 19.712 57.3311 19.563 57.289 19.3445C57.1482 18.6339 56.9847 17.9265 56.8536 17.2142C56.8018 16.9358 56.716 16.8031 56.3956 16.8047C54.5003 16.8193 52.6034 16.8193 50.7081 16.8047C50.4005 16.8031 50.2905 16.9391 50.2031 17.1981C49.9555 17.9216 49.6819 18.6355 49.4278 19.3575C49.3566 19.5614 49.2902 19.7136 49.0232 19.712C47.3901 19.699 45.7586 19.7039 44.0479 19.7039Z" fill="#1A2ADE"/>
<path d="M35.6188 20.0288C33.8158 19.9608 32.1422 19.7487 30.5205 19.2048C30.1337 19.0753 29.9815 18.9312 30.0997 18.4731C30.3797 17.3805 30.5868 16.27 30.8086 15.1644C30.8749 14.8326 30.9688 14.7468 31.3087 14.9168C32.8932 15.7083 34.5781 16.0418 36.3455 15.9447C36.9557 15.9107 37.5449 15.7844 38.0855 15.4898C39.2443 14.8585 39.3738 13.6881 38.3816 12.8237C37.8912 12.3964 37.3167 12.1001 36.7405 11.8088C35.8956 11.3798 35.0637 10.9346 34.2916 10.3762C30.7681 7.82827 31.9723 3.85425 34.0618 2.10601C36.14 0.369095 38.5904 -0.0809164 41.1963 0.0113521C42.3891 0.0534395 43.5512 0.29787 44.6923 0.663706C45.0904 0.791587 45.2377 0.922708 45.1195 1.37434C44.8654 2.34882 44.6469 3.33464 44.4835 4.32693C44.3993 4.83521 44.2876 4.93072 43.781 4.73161C42.2386 4.12782 40.6395 3.85102 38.9837 4.17962C38.749 4.22656 38.516 4.3075 38.3007 4.40948C37.069 4.99223 36.946 6.08974 38.0207 6.91044C38.762 7.47539 39.6198 7.84446 40.4226 8.30419C40.8936 8.57452 41.3711 8.83999 41.8178 9.14755C44.8007 11.1985 45.1681 14.9475 42.6384 17.5569C41.3808 18.8535 39.7784 19.4735 38.0434 19.8037C37.2082 19.9624 36.3617 19.9964 35.6188 20.0288Z" fill="#1A2ADE"/>
<path d="M21.5508 19.7034C22.025 17.4857 22.4863 15.3247 22.9492 13.162C23.8167 9.10544 24.6956 5.05048 25.5421 0.989041C25.6456 0.488848 25.7978 0.292978 26.3432 0.314021C27.6332 0.360965 28.9248 0.344779 30.2163 0.320498C30.6161 0.312404 30.6987 0.430571 30.6177 0.804502C29.2889 6.96707 27.9682 13.1313 26.6507 19.2955C26.6006 19.5302 26.5666 19.7099 26.2542 19.7082C24.7037 19.6969 23.1531 19.7034 21.5508 19.7034Z" fill="#1A2ADE"/>
<path d="M54.4576 5.77922C54.9092 7.92567 55.3511 10.0721 55.8188 12.2153C55.9224 12.688 55.8771 12.8839 55.309 12.8564C54.2844 12.8046 53.2534 12.845 52.2257 12.8369C52.0573 12.8353 51.7514 12.9292 51.8874 12.5537C52.7064 10.2907 53.5302 8.02765 54.3524 5.76465C54.388 5.7695 54.4236 5.77436 54.4576 5.77922Z" fill="#FEFEFE"/>
</svg>
