<svg width="30" height="30" viewBox="0 0 30 30" fill="none" xmlns="http://www.w3.org/2000/svg">
<path d="M15 27.5C21.9036 27.5 27.5 21.9036 27.5 15C27.5 8.09644 21.9036 2.5 15 2.5C8.09644 2.5 2.5 8.09644 2.5 15C2.5 21.9036 8.09644 27.5 15 27.5Z" stroke="#0066CC" stroke-width="2" stroke-linecap="round" stroke-linejoin="round"/>
<path d="M15 10L20 15L15 20V15V10Z" fill="black"/>
<path d="M15 10L15.7071 9.29289C15.4211 9.0069 14.991 8.92134 14.6173 9.07612C14.2436 9.2309 14 9.59554 14 10H15ZM20 15L20.7071 15.7071C21.0976 15.3166 21.0976 14.6834 20.7071 14.2929L20 15ZM15 20H14C14 20.4045 14.2436 20.7691 14.6173 20.9239C14.991 21.0787 15.4211 20.9931 15.7071 20.7071L15 20ZM10 14C9.44772 14 9 14.4477 9 15C9 15.5523 9.44772 16 10 16V14ZM18.75 16C19.3023 16 19.75 15.5523 19.75 15C19.75 14.4477 19.3023 14 18.75 14V16ZM14.2929 10.7071L19.2929 15.7071L20.7071 14.2929L15.7071 9.29289L14.2929 10.7071ZM19.2929 14.2929L14.2929 19.2929L15.7071 20.7071L20.7071 15.7071L19.2929 14.2929ZM16 20V15H14V20H16ZM16 15V10H14V15H16ZM10 16H15V14H10V16ZM15 16H18.75V14H15V16Z" fill="#0066CC"/>
</svg>
