<svg width="1020" height="283" viewBox="0 0 1020 283" fill="none" xmlns="http://www.w3.org/2000/svg">
<path fill-rule="evenodd" clip-rule="evenodd" d="M0 90.0247L33.9667 110.03C67.9333 130.036 135.867 170.047 203.8 170.047C271.733 170.047 339.667 130.036 407.6 125.034C475.533 120.033 543.467 150.041 611.4 185.051C679.333 220.06 747.267 260.071 815.2 275.076C883.133 290.08 951.067 280.077 985.033 275.076L1019 270.074V-7.40506e-06H985.033C951.067 -7.40506e-06 883.133 -7.40506e-06 815.2 -7.40506e-06C747.267 -7.40506e-06 679.333 -7.40506e-06 611.4 -7.40506e-06C543.467 -7.40506e-06 475.533 -7.40506e-06 407.6 -7.40506e-06C339.667 -7.40506e-06 271.733 -7.40506e-06 203.8 -7.40506e-06C135.867 -7.40506e-06 67.9333 -7.40506e-06 33.9667 -7.40506e-06H0V90.0247Z" fill="#F8FAFF"/>
<path fill-rule="evenodd" clip-rule="evenodd" d="M8.58612e-06 153.786L28.05 138.408C56.95 123.029 113.05 92.2717 170 71.7669C226.95 51.262 283.05 41.0096 340 61.5144C396.95 82.0193 453.05 133.281 510 174.291C566.95 215.301 623.05 246.058 680 251.184C736.95 256.31 793.05 235.806 850 230.679C906.95 225.553 963.05 235.806 991.95 240.932L1020 246.058L1020 -1.76403e-05L991.95 -2.00925e-05C963.05 -2.2619e-05 906.95 -2.75234e-05 850 -3.25022e-05C793.05 -3.74809e-05 736.95 -4.23853e-05 680 -4.7364e-05C623.05 -5.23428e-05 566.95 -5.72472e-05 510 -6.22259e-05C453.05 -6.72046e-05 396.95 -7.21091e-05 340 -7.70878e-05C283.05 -8.20665e-05 226.95 -8.69709e-05 170 -9.19497e-05C113.05 -9.69284e-05 56.95 -0.000101833 28.05 -0.000104359L2.20305e-05 -0.000106812L8.58612e-06 153.786Z" fill="#2B6BF3"/>
</svg>
