<svg width="640" height="171" viewBox="0 0 640 171" fill="none" xmlns="http://www.w3.org/2000/svg">
<path fill-rule="evenodd" clip-rule="evenodd" d="M3.68349e-06 38.594L26.6667 41.8102C53.3333 45.0264 106.667 51.4587 160 51.4587C213.333 51.4587 266.667 45.0263 320 67.5395C373.333 90.0526 426.667 141.511 480 160.808C533.333 180.105 586.667 167.241 613.333 160.808L640 154.376L640 5.08458e-06L613.333 7.41585e-06C586.667 9.74713e-06 533.333 1.44097e-05 480 1.90722e-05C426.667 2.37348e-05 373.333 2.83973e-05 320 3.30599e-05C266.667 3.77224e-05 213.333 4.2385e-05 160 4.70475e-05C106.667 5.17101e-05 53.3333 5.63726e-05 26.6667 5.87039e-05L3.095e-07 6.10352e-05L3.68349e-06 38.594Z" fill="#407AF4"/>
</svg>
