<svg width="3762" height="181" viewBox="0 0 3762 181" fill="none" xmlns="http://www.w3.org/2000/svg">
<path d="M1407.38 180H1454.61H1561V123.101C1443.38 168.685 1316.71 137.628 1171.94 101.776C1027.17 65.9249 922.161 137.047 803.091 127.433C684.021 117.82 591.723 148.959 517.92 146.66C444.118 144.362 517.92 146.66 292.809 130.841C67.6976 115.022 97.603 63.8054 0 68.2753V180H292.809H582.465H872.131H1164.94H1180.31H1226.03H1407.38Z" fill="#2B6BF3"/>
<g opacity="0.1">
<path fill-rule="evenodd" clip-rule="evenodd" d="M2499.46 180L2558.09 180H2601.43L2659.91 180H2499.46Z" fill="#2B6BF3"/>
<path d="M3483.84 11C3285.15 11 3172.51 106.452 3047.49 111.705C2918.29 116.958 2789.1 85.4374 2659.91 88.0648C2637.54 88.5348 2618.54 90.3083 2601.43 92.9714V180L2659.91 180L3047.49 180L3430.9 180L3762 180V54.9234C3690.27 33.8269 3601.38 11 3483.84 11Z" fill="#2B6BF3"/>
<path d="M2076.13 180H2338.78L2339.01 180L2419.23 180H2499.46L2601.43 180V92.9714C2522.92 105.189 2483.91 136.13 2339.01 145.852C2162.52 157.695 2076.13 134.01 2076.13 134.01C1993.5 116.597 1957.9 185.935 1881 163.725V180H2076.13Z" fill="#2B6BF3"/>
</g>
<path opacity="0.1" d="M1380.52 42.7383C1458.62 17.0103 1477.2 26.3769 1561 31.0066V122.544V179.471H1551.31H1301.16H1180.45L908.599 179.471L539.474 179.471H174.3H0V139.432C68.8823 131.159 132.62 119.545 174.3 108.64C254.522 87.6533 340.401 77.1597 459.471 87.6533C582.513 98.1464 676.745 175.111 762.88 163.298C762.88 163.298 948.74 173.798 1063.84 163.298C1199.65 150.909 1302.42 68.4662 1380.52 42.7383Z" fill="#2B6BF3"/>
<path d="M2564.96 180.001H2682.25H2950.15H3257.64H3561.83H3762V158.234C3684.86 153.283 3607.47 143.128 3561.83 133.771C3495.01 120.074 3423.47 113.225 3324.28 120.074C3221.78 126.923 3083.82 124.584 3010.06 120.074C2936.3 115.563 2819.35 125.329 2635.32 108.23C2451.28 91.1303 2201 11 2201 11V180C2238.06 180 2276.13 180.001 2313.19 180.001H2553.23H2564.96Z" fill="#2B6BF3"/>
<path fill-rule="evenodd" clip-rule="evenodd" d="M1561 123L1582.33 110.016C1603.67 97.2918 1646.33 71.8431 1689 71.8431C1731.67 71.8431 1774.33 97.2918 1817 100.473C1859.67 103.654 1902.33 84.5674 1945 62.2998C1987.67 40.0322 2030.33 14.5836 2073 5.0403C2115.67 -4.50296 2158.33 1.85921 2179.67 5.0403L2201 11V180H2179.67C2158.33 180 2115.67 180 2073 180C2030.33 180 1987.67 180 1945 180C1902.33 180 1859.67 180 1817 180C1774.33 180 1731.67 180 1689 180C1646.33 180 1603.67 180 1582.33 180H1561V123Z" fill="#2B6BF3"/>
<path opacity="0.1" d="M2181.74 91.0235L2201 81.1373V180H2181.74H2084.27H1967.53H1850.8H1734.07H1617.33H1561V31C1578.09 32.6718 1597.64 33.3659 1617.33 31.7062C1656.44 28.4107 1694.96 15.229 1734.07 18.5245C1773.17 21.8199 1811.69 41.5924 1850.8 67.9559C1889.9 94.3192 1928.43 127.273 1967.53 140.455C2006.64 153.637 2045.16 147.046 2084.27 133.864C2123.37 120.682 2161.89 100.91 2181.74 91.0235Z" fill="#2B6BF3"/>
</svg>
