<svg width="2940" height="1339" viewBox="0 0 2940 1339" fill="none" xmlns="http://www.w3.org/2000/svg">
<path d="M797.081 249.759C749.081 278.53 698.407 309.388 661.581 331C590.206 372.888 450.016 293.5 346.515 394.5C243.014 495.5 193.515 438 82.0155 509C-4.37885 564.014 -8.43861 677.5 7.01676 737.5C22.4721 797.5 91.2449 868 222.017 868C325.517 868 304.515 1011.5 481.517 1011.5C658.52 1011.5 727.581 1046 797.081 1090.24C881.105 1143.73 941.083 1176.55 1037.08 1176.55C1133.08 1176.55 1229.08 1119.01 1325.08 1111.82C1421.08 1104.63 1517.08 1147.78 1613.08 1198.13C1709.08 1248.48 1805.08 1306.02 1901.08 1327.6C1997.08 1349.18 2093.08 1334.8 2141.08 1327.6C2189.08 1320.41 2266.52 1290.15 2387.02 1222.5C2507.52 1154.85 2618.02 1253 2707.52 1176C2816.61 1082.15 2732.52 1001.82 2778.52 865.5C2816.15 754 3015.52 629.241 2908.02 439.5C2800.52 249.759 2659.02 364.445 2604.52 163.445C2569.42 33.9751 2445.75 4.497 2339.08 12.3967C2232.41 20.2964 2189.08 19.5895 2141.08 12.3967C2093.08 5.20389 1997.08 -9.18169 1901.08 12.3967C1805.08 33.975 1709.08 91.5173 1613.08 141.867C1517.08 192.216 1421.08 235.373 1325.08 228.18C1229.08 220.988 1133.08 163.445 1037.08 163.445C941.083 163.445 845.081 220.988 797.081 249.759Z" fill="#2B6BF3"/>
<path opacity="0.1" d="M2211 167.5C2381.5 194 2431 232.733 2533.5 117.5C2636 2.26718 2857 159.257 2857 303C2857 404 2805.31 492.669 2722 530.5C2526 619.5 2458.5 486.5 2260.5 558C1989.07 656.016 1913.35 530.5 1601 504C1288.65 477.5 937 815.5 766 802C595.001 788.5 396.275 910.975 304.5 681.975C252 550.975 46.0001 481.975 90.0001 302.975C125.2 159.775 336 122.525 423.5 87.5C511 52.4753 586.667 62.7707 659.5 87.5C762.5 122.472 814.5 63 862.745 38.2672C954.088 -8.56026 1035.78 -1.24639 1122.79 6.54396L1125.4 6.77758C1213.38 14.65 1300.06 61.8843 1388.05 124.864C1476.04 187.843 1562.71 182.935 1650.7 214.424C1738.68 245.914 1858.51 225.489 1946.5 194C2034.49 162.51 2040.5 141 2211 167.5Z" fill="#2B6BF3"/>
</svg>
