<svg width="209" height="60" viewBox="0 0 209 60" fill="none" xmlns="http://www.w3.org/2000/svg">
<g clip-path="url(#clip0_301_932)">
<path d="M44.305 23.3258C41.7052 25.3887 39.0106 28.6516 39.0106 32.3056C39.0106 37.8202 42.978 40.3954 46.1601 42.2561L46.7017 42.5797C47.5412 43.0651 48.3537 43.5235 49.0984 44.0359L49.288 44.1572C51.4951 45.7752 51.9961 50.5617 47.2163 54.6471C49.4857 53.0828 51.531 51.2186 53.296 49.1056C54.5278 47.6277 55.6116 46.0336 56.5322 44.346C57.3192 42.8662 57.5249 41.1478 57.1094 39.5253C56.6939 37.9028 55.6869 36.4923 54.2845 35.5685C53.3502 34.9617 52.4565 34.4359 51.6576 33.9775L50.1004 33.0606C49.7301 32.8353 49.3771 32.5829 49.0442 32.3056C44.1019 29.4606 43.628 25.1999 45.2393 22.382C44.9739 22.7386 44.6594 23.0564 44.305 23.3258Z" fill="url(#paint0_linear_301_932)"/>
<path d="M42.2739 2.53476C41.0896 2.00927 39.873 1.55893 38.6315 1.18644C38.1192 1.03146 37.5794 0.987913 37.0487 1.05874C36.5181 1.12956 36.0089 1.3131 35.5556 1.59694C35.1024 1.88077 34.7157 2.25827 34.4217 2.70387C34.1277 3.14948 33.9333 3.65278 33.8517 4.1797C33.5589 6.1824 32.9845 8.13412 32.1455 9.97745C31.8983 10.5111 31.6179 11.029 31.306 11.528C29.7101 13.9188 27.6414 15.9604 25.2263 17.528L24.8607 17.7977C20.636 21.2224 20.135 26.6966 28.8416 32.7909C27.5688 31.6988 27.3251 31.0921 27.3251 30.0943C27.3251 28.5842 27.8261 27.9909 31.1435 25.5505C34.461 23.11 38.7669 19.9415 41.5428 13.4831C42.9899 10.0132 43.2469 6.16487 42.2739 2.53476Z" fill="url(#paint1_linear_301_932)"/>
<path d="M44.8737 16.1797C45.6395 17.0042 46.0945 18.0676 46.1612 19.1888C46.2279 20.3099 45.9021 21.4193 45.2393 22.328C43.5873 25.146 44.1018 29.4067 49.0442 32.2516L49.8702 31.7797C51.5651 30.8479 53.0397 29.565 54.1944 28.0175C55.3491 26.47 56.1571 24.694 56.5639 22.8091C56.9708 20.9242 56.9669 18.9744 56.5527 17.0912C56.1384 15.2079 55.3234 13.435 54.1626 11.8921L54.0813 11.7842C51.385 8.27661 47.9453 5.40396 44.0071 3.37075C43.4384 3.07412 42.8696 2.80445 42.2739 2.53479C43.2254 6.13535 42.9686 9.94697 41.5427 13.3887C42.7502 14.1975 43.867 15.1333 44.8737 16.1797Z" fill="url(#paint2_linear_301_932)"/>
<path d="M44.8737 16.1797C45.6395 17.0042 46.0945 18.0676 46.1612 19.1888C46.2279 20.3099 45.9021 21.4193 45.2393 22.328C43.5873 25.146 44.1018 29.4067 49.0442 32.2516L49.8702 31.7797C51.5651 30.8479 53.0397 29.565 54.1944 28.0175C55.3491 26.47 56.1571 24.694 56.5639 22.8091C56.9708 20.9242 56.9669 18.9744 56.5527 17.0912C56.1384 15.2079 55.3234 13.435 54.1626 11.8921L54.0813 11.7842C51.385 8.27661 47.9453 5.40396 44.0071 3.37075C43.4384 3.07412 42.8696 2.80445 42.2739 2.53479C43.2254 6.13535 42.9686 9.94697 41.5427 13.3887C42.7502 14.1975 43.867 15.1333 44.8737 16.1797Z" fill="url(#paint3_linear_301_932)"/>
<path d="M32.1726 50.0224C27.4311 50.4969 22.6737 49.2884 18.7401 46.61C14.8064 43.9317 11.9494 39.9557 10.6732 35.3839C9.39708 30.8122 9.78382 25.9384 11.7652 21.623C13.7466 17.3075 17.1953 13.8277 21.5025 11.7977C23.8599 10.753 25.9042 9.11631 27.4352 7.04817C28.9662 4.98002 29.9314 2.5513 30.2363 -2.93324e-05C22.3173 -0.0196225 14.7091 3.06613 9.05749 8.58961C3.40592 14.1131 0.165536 21.6301 0.0373967 29.5144C-0.0907423 37.3987 2.90367 45.0163 8.37278 50.7189C13.8419 56.4216 21.3459 59.7509 29.2613 59.9865C34.2308 59.7168 34.7047 54.9168 32.1726 50.0224Z" fill="url(#paint4_linear_301_932)"/>
<path d="M34.2579 59.7169C35.169 59.5936 36.073 59.4225 36.966 59.2045C37.9866 58.9669 38.9475 58.5237 39.7895 57.9023C40.6316 57.2808 41.3369 56.4943 41.8621 55.5911C42.3873 54.6879 42.7212 53.6873 42.8433 52.6507C42.9653 51.6142 42.873 50.5637 42.5719 49.5641C42.2627 48.5617 41.9012 47.576 41.4886 46.6112C38.7128 40.1528 34.3798 36.9573 31.0894 34.5438C30.0874 33.8023 29.3426 33.1955 28.7875 32.7506C20.0808 26.6562 20.5818 21.182 24.8065 17.7573C21.3807 20.2787 17.3185 23.4877 17.3185 30C17.3185 36.7416 21.6786 39.9371 25.1721 42.5124C27.6193 44.0792 29.7164 46.1308 31.3331 48.5393C31.645 49.0384 31.9254 49.5562 32.1726 50.0899C34.7047 54.9843 34.2308 59.7843 29.2614 60.0539H30.128C31.5109 60.0381 32.8909 59.9254 34.2579 59.7169Z" fill="#E30D13"/>
<path d="M54.1626 11.8921L54.0813 11.7842C51.385 8.27659 47.9453 5.40394 44.0071 3.37073C43.4384 3.0741 42.8697 2.80443 42.2739 2.53477C41.0895 2.00928 39.873 1.55894 38.6315 1.18646C38.2927 1.08669 37.942 1.03228 37.5888 1.02466C36.5597 1.19994 35.5442 2.54825 38.4148 4.04488C40.0794 4.89085 41.3415 6.35658 41.9272 8.12373C42.5128 9.89089 42.3747 11.8168 41.5427 13.4831C42.7456 14.2623 43.8622 15.1662 44.8737 16.1797C45.6396 17.0042 46.0946 18.0676 46.1613 19.1887C46.2279 20.3099 45.9021 21.4193 45.2393 22.328C43.5873 25.146 44.1019 29.4067 49.0442 32.2516L49.8702 31.7797C51.5652 30.8479 53.0397 29.565 54.1944 28.0175C55.3492 26.47 56.1572 24.6939 56.564 22.8091C56.9708 20.9242 56.9669 18.9744 56.5527 17.0912C56.1384 15.2079 55.3234 13.435 54.1626 11.8921Z" fill="url(#paint5_linear_301_932)"/>
<path d="M38.4149 4.04495C35.5442 2.54832 36.5598 1.20001 37.5889 1.0517C36.6928 1.04029 35.8224 1.34991 35.1364 1.9241C34.4504 2.49829 33.9945 3.29883 33.8517 4.17979C33.5589 6.18249 32.9845 8.13421 32.1455 9.97754C31.8983 10.5112 31.6179 11.0291 31.306 11.5281C29.7101 13.9188 27.6414 15.9604 25.2263 17.5281L24.8607 17.7978C20.636 21.2225 20.135 26.6966 28.8416 32.791C27.5688 31.6989 27.3251 31.0921 27.3251 30.0944C27.3251 28.5843 27.8261 27.991 31.1435 25.5506C34.461 23.1101 38.7669 19.9416 41.5428 13.4832C42.3747 11.8168 42.5129 9.89096 41.9272 8.1238C41.3416 6.35665 40.0794 4.89092 38.4149 4.04495Z" fill="url(#paint6_linear_301_932)"/>
<path d="M79.1045 38.9663C78.0047 38.9679 76.9074 38.8641 75.8276 38.6562C74.9083 38.4678 74.0034 38.2155 73.1195 37.9011C72.4455 37.6708 71.793 37.3821 71.1697 37.0382C70.7676 36.8307 70.3827 36.5918 70.0187 36.3236L72.1852 31.8607C72.503 32.1371 72.8376 32.3938 73.1872 32.6292C73.6655 32.9543 74.1732 33.2341 74.7038 33.4652C75.3369 33.7557 75.9997 33.9772 76.6807 34.1258C77.4844 34.3102 78.3069 34.4007 79.1316 34.3955C80.2135 34.4555 81.2849 34.1568 82.1782 33.5461C82.5307 33.2897 82.8158 32.9523 83.0091 32.5626C83.2025 32.1729 83.2983 31.7424 83.2885 31.3079C83.3157 30.819 83.2326 30.3302 83.0451 29.8776C82.8576 29.4249 82.5707 29.0198 82.2053 28.6921C80.7386 27.7182 79.1314 26.9725 77.439 26.4809C75.7104 26.0776 74.0835 25.325 72.6591 24.2697C72.1443 23.8469 71.6889 23.3571 71.3051 22.8135C70.9905 22.3598 70.7399 21.8653 70.5603 21.3438C70.4 20.8814 70.2955 20.4016 70.2489 19.9146C70.2152 19.4658 70.2152 19.0151 70.2489 18.5663C70.1987 17.0545 70.6352 15.5663 71.4946 14.3191C72.3054 13.1257 73.4988 12.2415 74.8798 11.8112C76.2852 11.3416 77.7574 11.1003 79.2399 11.0966C80.2556 11.0873 81.269 11.1959 82.2595 11.4202C83.1149 11.6127 83.9494 11.8882 84.7509 12.2427C85.426 12.5516 86.066 12.9313 86.6602 13.3753C87.1878 13.7795 87.6773 14.2308 88.1226 14.7236L85.4144 18.3101C85.0238 17.8772 84.5668 17.5086 84.0604 17.218C83.4733 16.8617 82.8573 16.555 82.2188 16.3011C81.6183 16.0483 80.9979 15.8453 80.3638 15.6944C79.9219 15.5796 79.4663 15.5251 79.0097 15.5326C77.9567 15.4251 76.9019 15.719 76.0578 16.3551C75.7864 16.6092 75.5705 16.9164 75.4237 17.2575C75.2769 17.5985 75.2024 17.966 75.2048 18.3371C75.1774 18.7448 75.2522 19.1529 75.4224 19.5247C75.5925 19.8965 75.8528 20.2205 76.1797 20.4674C76.6755 20.7909 77.1962 21.0749 77.7369 21.3169C78.619 21.7141 79.5232 22.0607 80.445 22.3551C82.4054 22.9443 84.2411 23.8856 85.8613 25.1326C86.881 25.8793 87.6313 26.9338 88.0007 28.1393C88.0957 28.6432 88.1635 29.1518 88.2038 29.6629C88.2038 30.1618 88.3121 30.6337 88.3392 31.0921C88.3662 32.823 87.7706 34.5063 86.6602 35.8382C85.6792 37.0415 84.3586 37.9244 82.8688 38.373C81.6458 38.7354 80.3801 38.9349 79.1045 38.9663Z" fill="#5B1D1D"/>
<path d="M97.0052 38.8449C96.0773 38.9111 95.1473 38.749 94.2971 38.373C93.6679 38.0568 93.1245 37.5943 92.7128 37.0247C92.3899 36.5157 92.1735 35.947 92.0764 35.3528C91.9401 34.815 91.8718 34.2624 91.8733 33.7078V11.6224H96.8427V32.7505C96.8112 33.0026 96.8322 33.2584 96.9044 33.502C96.9767 33.7455 97.0985 33.9717 97.2625 34.1663C97.5954 34.4426 98.0214 34.5824 98.4541 34.5573C99.0106 34.5471 99.559 34.4232 100.065 34.1932L100.946 37.9685C100.493 38.2174 100.004 38.3948 99.4967 38.4943C98.6868 38.7267 97.8481 38.8447 97.0052 38.8449Z" fill="#5B1D1D"/>
<path d="M106.05 17.245C105.628 17.2772 105.203 17.2152 104.807 17.0636C104.411 16.912 104.054 16.6746 103.762 16.3686C103.288 15.8206 103.024 15.1232 103.017 14.4C103.024 13.689 103.289 13.0044 103.762 12.4719C104.051 12.1611 104.407 11.9196 104.804 11.7655C105.2 11.6113 105.626 11.5486 106.05 11.5821C106.473 11.5424 106.899 11.6023 107.294 11.7569C107.69 11.9115 108.043 12.1564 108.325 12.4719C108.804 13.0011 109.069 13.6878 109.07 14.4C109.069 15.1243 108.804 15.8237 108.325 16.3686C108.037 16.6767 107.683 16.9157 107.289 17.0675C106.895 17.2193 106.471 17.28 106.05 17.245ZM103.545 38.4135V19.0517H108.501V38.4135H103.545Z" fill="#5B1D1D"/>
<path d="M113.037 38.4134V19.0516H117.601L117.804 20.4943C118.46 19.9339 119.2 19.4789 119.997 19.146C120.85 18.7698 121.773 18.5768 122.705 18.5797C123.625 18.585 124.538 18.7305 125.414 19.0112C126.354 19.3071 127.218 19.8041 127.946 20.4674C128.867 19.9109 129.848 19.4587 130.87 19.119C131.969 18.747 133.122 18.5601 134.283 18.5662C136.101 18.4227 137.909 18.94 139.374 20.0224C140.479 20.8702 141.251 22.0775 141.554 23.4336C141.811 24.5394 141.947 25.6696 141.96 26.8044V38.4134H137.004V27.0471C137.054 25.9616 136.801 24.8835 136.273 23.9325C135.968 23.5129 135.557 23.1817 135.081 22.9731C134.605 22.7646 134.082 22.6862 133.565 22.746C132.839 22.7649 132.127 22.9446 131.48 23.2718C130.853 23.5535 130.258 23.9016 129.706 24.31C129.852 25.1067 129.934 25.9138 129.95 26.7235V38.4134H124.94V27.0471C125.019 25.9101 124.735 24.7772 124.127 23.8112C123.864 23.4657 123.521 23.1884 123.127 23.003C122.734 22.8176 122.301 22.7294 121.866 22.746C121.11 22.7461 120.369 22.9562 119.726 23.3527C119.107 23.7089 118.534 24.1391 118.02 24.6336V38.4134H113.037Z" fill="#5B1D1D"/>
<path d="M146.334 38.4134V19.0516H150.843L151.168 21.101C151.439 20.7748 151.743 20.4766 152.075 20.2111C152.449 19.9167 152.848 19.655 153.267 19.4291C153.703 19.2104 154.156 19.0256 154.621 18.8763C155.057 18.7307 155.514 18.6533 155.975 18.6471C156.713 18.6001 157.453 18.6962 158.155 18.9302L157.437 23.2718C156.883 23.1424 156.314 23.088 155.745 23.11C154.84 23.0967 153.953 23.3551 153.199 23.8516C152.51 24.2953 151.874 24.8155 151.303 25.4022V38.4134H146.334Z" fill="#5B1D1D"/>
<path d="M165.345 38.8449C164.527 38.8508 163.715 38.7092 162.948 38.4269C162.197 38.159 161.503 37.7518 160.904 37.2269C160.272 36.6563 159.769 35.9585 159.428 35.1799C159.087 34.4012 158.916 33.5594 158.927 32.7101C158.853 31.7672 159.075 30.8248 159.563 30.0134C160.014 29.2554 160.618 28.5988 161.337 28.0853C162.033 27.5664 162.804 27.1571 163.625 26.8719C164.355 26.62 165.108 26.4393 165.873 26.3325L167.227 26.1707L169.935 25.8471V25.6179C169.979 25.1986 169.928 24.7748 169.785 24.3779C169.642 23.9811 169.411 23.6215 169.109 23.3258C168.458 22.8325 167.651 22.5884 166.834 22.6381C165.875 22.6413 164.927 22.853 164.059 23.2584C163.331 23.5697 162.651 23.9829 162.041 24.4853L160.389 20.9932C161.308 20.2392 162.379 19.6918 163.53 19.3887C164.247 19.1362 164.98 18.9335 165.724 18.782C166.37 18.6506 167.029 18.5963 167.687 18.6202C168.793 18.5729 169.897 18.7613 170.924 19.173C171.809 19.517 172.598 20.0672 173.226 20.7775C173.842 21.4681 174.304 22.2817 174.58 23.164C174.879 24.0818 175.016 25.0444 174.986 26.0089V38.4674H170.382L170.179 36.9977C169.606 37.5986 168.902 38.06 168.121 38.346C167.238 38.6935 166.294 38.8631 165.345 38.8449ZM166.509 34.6786C167.158 34.6782 167.8 34.5403 168.392 34.2741C168.96 34.0276 169.483 33.6855 169.935 33.2629V29.3393L167.945 29.555L166.672 29.7303C165.823 29.8363 165.035 30.2261 164.438 30.8359C164.037 31.3175 163.817 31.9228 163.815 32.5483C163.804 32.8433 163.862 33.1367 163.984 33.4057C164.107 33.6747 164.289 33.9119 164.519 34.0988C165.107 34.5219 165.826 34.7269 166.55 34.6786H166.509Z" fill="#5B1D1D"/>
<path d="M185.033 38.8449C184.327 38.9032 183.616 38.804 182.953 38.5544C182.291 38.3048 181.692 37.9112 181.201 37.4022C180.368 36.4304 179.925 35.1871 179.955 33.91V23.1235H177.247V19.0786H179.955V14.0359H184.911V19.0516H189.393V23.0966H184.911V32.9393C184.885 33.1724 184.912 33.4084 184.989 33.63C185.067 33.8515 185.193 34.0532 185.358 34.2202C185.652 34.4601 186.021 34.589 186.401 34.5842C187.335 34.6058 188.249 34.3058 188.987 33.7348L190.341 37.3078C189.639 37.8124 188.856 38.1954 188.025 38.4404C187.055 38.7275 186.045 38.8639 185.033 38.8449Z" fill="#5B1D1D"/>
<path d="M200.808 38.8449C199.582 38.8552 198.363 38.6545 197.206 38.2517C196.077 37.8695 195.049 37.238 194.2 36.4045C193.299 35.5088 192.597 34.4337 192.142 33.2494C191.595 31.8166 191.333 30.2918 191.37 28.7595C191.349 27.2826 191.587 25.8133 192.074 24.418C192.503 23.2447 193.161 22.1677 194.01 21.2494C194.818 20.4002 195.796 19.7295 196.881 19.2809C197.982 18.8192 199.166 18.5853 200.361 18.5933C202.307 18.4879 204.218 19.1352 205.696 20.4C207.026 21.5016 207.973 22.9924 208.404 24.6607C208.817 26.1123 209.023 27.6148 209.014 29.1236V30H196.434C196.42 30.6637 196.549 31.3227 196.813 31.9322C197.077 32.5418 197.47 33.0876 197.964 33.5326C198.984 34.2953 200.238 34.6814 201.512 34.6247C202.67 34.6494 203.821 34.4431 204.897 34.018C205.615 33.7586 206.283 33.3802 206.874 32.8989L208.228 36.9438C207.714 37.3369 207.144 37.6505 206.536 37.8742C205.764 38.1578 204.966 38.3611 204.152 38.4809C203.567 38.6092 202.974 38.7082 202.379 38.7775C201.857 38.8323 201.332 38.8549 200.808 38.8449ZM196.543 26.4H203.922C203.903 25.7203 203.722 25.055 203.394 24.4584C203.135 24.0013 202.785 23.6021 202.365 23.2854C202.018 23.0265 201.629 22.8302 201.214 22.7056C200.938 22.616 200.651 22.5616 200.361 22.5438C199.453 22.5625 198.583 22.9073 197.91 23.5146C197.498 23.8781 197.164 24.3213 196.929 24.8174C196.694 25.3134 196.562 25.8518 196.543 26.4Z" fill="#5B1D1D"/>
<path d="M70.8718 52.0045V44.9663H73.1195C73.4486 44.9443 73.7789 44.9443 74.108 44.9663C74.4096 45.0087 74.7023 45.0998 74.9746 45.236C75.3179 45.387 75.5963 45.6546 75.7599 45.991C75.9336 46.324 76.0219 46.6945 76.0172 47.0697C76.0321 47.336 75.9906 47.6024 75.8953 47.8517C75.8125 48.0817 75.6986 48.2994 75.5568 48.4989C75.4417 48.6686 75.3 48.8188 75.1371 48.9438C75.0336 49.0328 74.9141 49.1014 74.785 49.1461C74.5396 49.2385 74.2856 49.3062 74.0267 49.3483C73.7744 49.3689 73.5208 49.3689 73.2685 49.3483H72.3071V51.8832L70.8718 52.0045ZM72.2258 48.2562H73.1195C73.2998 48.2703 73.4809 48.2703 73.6611 48.2562C73.8114 48.2401 73.9578 48.1991 74.0944 48.1348C74.2639 48.0477 74.3979 47.9047 74.4736 47.7303C74.5662 47.568 74.6148 47.3845 74.6148 47.1978C74.6148 47.0111 74.5662 46.8275 74.4736 46.6652C74.3708 46.4965 74.2131 46.3681 74.0267 46.3011C73.7412 46.2165 73.4445 46.1756 73.1466 46.1798H72.3071L72.2258 48.2562Z" fill="#7C7C7C"/>
<path d="M78.1972 52.1258C77.9718 52.124 77.748 52.0877 77.5337 52.018C77.3303 51.945 77.1421 51.8353 76.9786 51.6944C76.8118 51.5594 76.6777 51.389 76.5859 51.1955C76.4858 50.9801 76.4349 50.7452 76.437 50.5078C76.4162 50.2569 76.478 50.0061 76.613 49.7932C76.7358 49.5926 76.9024 49.4221 77.1004 49.2944C77.2916 49.1576 77.5013 49.0486 77.7233 48.9708C77.9214 48.9058 78.1255 48.8606 78.3326 48.8359H78.6982L79.443 48.7416C79.4533 48.6297 79.4379 48.5169 79.398 48.4118C79.3582 48.3067 79.2948 48.212 79.2128 48.1348C79.0323 48.0054 78.8118 47.9434 78.5899 47.9595C78.3286 47.9601 78.0703 48.0152 77.8316 48.1213C77.6318 48.2018 77.4448 48.3108 77.2765 48.4449L76.8296 47.5281C77.0791 47.3242 77.3702 47.177 77.6827 47.0966C77.8816 47.0312 78.0853 46.9816 78.292 46.9483C78.4676 46.9297 78.6446 46.9297 78.8201 46.9483C79.125 46.9379 79.4288 46.9884 79.7138 47.0966C79.9517 47.1926 80.168 47.3346 80.3502 47.5146C80.5132 47.6995 80.6375 47.9149 80.7158 48.1483C80.8 48.3908 80.8368 48.6471 80.8241 48.9034V52.1663H79.5648V51.7887C79.4049 51.9508 79.2106 52.0752 78.9961 52.1528C78.7309 52.1996 78.4587 52.1904 78.1972 52.1258ZM78.5087 51.0337C78.6856 51.0316 78.8604 50.9949 79.0232 50.9258C79.1835 50.8641 79.3306 50.7726 79.4565 50.6562V49.618L78.9014 49.6854H78.5628C78.328 49.713 78.109 49.8173 77.94 49.982C77.8356 50.1071 77.7782 50.2644 77.7775 50.427C77.7743 50.5046 77.7898 50.5818 77.8228 50.6522C77.8558 50.7226 77.9053 50.784 77.9671 50.8314C78.1249 50.9668 78.3276 51.0388 78.5358 51.0337H78.5087Z" fill="#7C7C7C"/>
<path d="M81.6366 54.0269L81.5147 52.8539C81.876 52.8616 82.2365 52.8162 82.5844 52.7191C82.8657 52.6431 83.1194 52.4888 83.3156 52.2741L83.3969 52.1528C83.3924 52.1124 83.3924 52.0717 83.3969 52.0314L81.2439 46.9213H82.7063L84.1958 50.8314L84.5478 49.9146C84.6561 49.6179 84.7509 49.3213 84.8322 49.0247C84.9811 48.5123 85.103 48.0809 85.1978 47.6764C85.2925 47.2719 85.3602 47.0561 85.4009 46.8809H86.7549C86.5134 47.8296 86.2242 48.7656 85.8883 49.6854C85.6258 50.4224 85.3183 51.1429 84.9676 51.8427C84.7368 52.2778 84.4695 52.6927 84.1687 53.0831C83.8918 53.3918 83.5362 53.6201 83.1396 53.7438C82.6567 53.9166 82.1494 54.0121 81.6366 54.0269Z" fill="#7C7C7C"/>
<path d="M87.4861 52.0045V46.9213H88.7319V47.2989C88.9172 47.1502 89.1223 47.0277 89.3412 46.9348C89.5685 46.8394 89.8122 46.789 90.0589 46.7865C90.3164 46.7872 90.5723 46.8282 90.8171 46.9078C91.0709 46.9852 91.3059 47.1137 91.5077 47.2854C91.7614 47.1419 92.0291 47.0244 92.3066 46.9348C92.6084 46.8374 92.9237 46.7874 93.2409 46.7865C93.7239 46.7586 94.2019 46.8966 94.595 47.1775C94.8942 47.3936 95.1056 47.7093 95.1908 48.0674C95.2676 48.358 95.3085 48.6568 95.3126 48.9573V52.0045H93.9586V49.0247C93.9726 48.7367 93.902 48.4509 93.7555 48.2022C93.6683 48.0914 93.5541 48.0047 93.4237 47.9504C93.2933 47.8961 93.1511 47.876 93.0107 47.8921C92.8136 47.8953 92.6195 47.9413 92.442 48.0269C92.273 48.1046 92.1101 48.1947 91.9546 48.2966C91.9765 48.5073 91.9765 48.7196 91.9546 48.9303V52.0045H90.7224V49.0247C90.7432 48.7239 90.6621 48.4248 90.4922 48.1753C90.4187 48.0819 90.3237 48.0075 90.2154 47.9582C90.107 47.9089 89.9883 47.8863 89.8693 47.8921C89.6639 47.8914 89.4624 47.9474 89.2871 48.0539C89.1151 48.1453 88.9557 48.2586 88.8131 48.391V52.0045H87.4861Z" fill="#7C7C7C"/>
<path d="M98.9686 52.1258C98.6324 52.1268 98.2984 52.0721 97.9802 51.964C97.6751 51.8586 97.3943 51.6935 97.1542 51.4786C96.913 51.2412 96.724 50.9565 96.599 50.6426C96.4432 50.2716 96.3693 49.8715 96.3824 49.4696C96.3779 49.0795 96.4421 48.6916 96.5719 48.3235C96.6956 48.0121 96.8796 47.7281 97.1136 47.4876C97.3351 47.2623 97.6031 47.0876 97.8989 46.9752C98.1993 46.8506 98.5214 46.7864 98.8468 46.7864C99.3775 46.7643 99.8979 46.937 100.309 47.2718C100.673 47.5545 100.934 47.9473 101.054 48.3909C101.171 48.7708 101.225 49.1668 101.216 49.564V49.7932H97.7635C97.7615 49.9693 97.798 50.1437 97.8705 50.3044C97.943 50.4651 98.0497 50.6081 98.1833 50.7235C98.4687 50.921 98.811 51.0204 99.1582 51.0067C99.4771 51.0125 99.7943 50.9575 100.093 50.8449C100.288 50.7766 100.471 50.6764 100.634 50.5482L101 51.6134C100.858 51.7231 100.698 51.8054 100.526 51.8561C100.319 51.9443 100.1 51.999 99.8759 52.0179L99.3884 52.0988L98.9686 52.1258ZM97.8041 48.8494H99.8217C99.8174 48.6704 99.771 48.4949 99.6863 48.337C99.6132 48.2196 99.5163 48.1186 99.4019 48.0404C99.3055 47.9655 99.195 47.9105 99.077 47.8786H98.8468C98.5978 47.8818 98.358 47.9726 98.1697 48.1348C98.0643 48.2238 97.9776 48.3328 97.9148 48.4555C97.8521 48.5782 97.8144 48.7121 97.8041 48.8494Z" fill="#7C7C7C"/>
<path d="M102.232 52.0045V46.9213H103.478V47.3258C103.693 47.1489 103.942 47.016 104.209 46.9348C104.469 46.84 104.744 46.7898 105.021 46.7865C105.406 46.7754 105.787 46.8736 106.118 47.0696C106.424 47.2514 106.65 47.5397 106.755 47.8786C106.875 48.2393 106.935 48.6175 106.931 48.9977V52.0045H105.617V49.1056C105.643 48.7835 105.552 48.4629 105.36 48.2022C105.272 48.0989 105.162 48.0172 105.038 47.9634C104.913 47.9096 104.778 47.8852 104.642 47.8921C104.433 47.8917 104.227 47.9476 104.046 48.0539C103.875 48.152 103.716 48.2696 103.572 48.4045V52.0045H102.232Z" fill="#7C7C7C"/>
<path d="M109.828 52.1258C109.646 52.1424 109.463 52.1189 109.291 52.057C109.119 51.9951 108.963 51.8963 108.834 51.7676C108.705 51.639 108.605 51.4836 108.543 51.3125C108.481 51.1413 108.458 50.9587 108.474 50.7775V47.973H107.716V46.9213H108.474V45.573H109.828V46.9213H111.033V47.973H109.801V50.5618C109.794 50.6235 109.801 50.686 109.823 50.7445C109.844 50.8029 109.878 50.8557 109.923 50.8988C110.003 50.9641 110.104 50.9977 110.207 50.9932C110.464 51.002 110.716 50.9262 110.925 50.7775L111.277 51.7213C111.081 51.8471 110.866 51.9426 110.641 52.0045C110.378 52.0858 110.104 52.1267 109.828 52.1258Z" fill="#7C7C7C"/>
<path d="M115.637 52.0045V46.2472H113.552V44.9663H119.158V46.2472H117.059V52.0045H115.637Z" fill="#7C7C7C"/>
<path d="M121.46 52.1258C121.119 52.1268 120.78 52.0722 120.458 51.964C120.155 51.8615 119.878 51.6961 119.645 51.4786C119.396 51.2455 119.201 50.96 119.076 50.6427C118.796 49.8948 118.796 49.0714 119.076 48.3236C119.19 48.0104 119.37 47.7253 119.605 47.4876C119.826 47.2624 120.094 47.0876 120.39 46.9753C120.695 46.8492 121.021 46.7851 121.351 46.7865C121.878 46.7625 122.395 46.9357 122.8 47.2719C123.168 47.5504 123.431 47.9448 123.545 48.391C123.662 48.7709 123.716 49.1669 123.707 49.564V49.7932H120.241C120.242 49.9703 120.281 50.1451 120.355 50.3056C120.43 50.4662 120.539 50.6088 120.674 50.7236C120.954 50.9228 121.292 51.0225 121.636 51.0067C121.955 51.0139 122.272 50.9589 122.57 50.8449C122.767 50.78 122.951 50.6794 123.112 50.5483L123.477 51.6135C123.341 51.7233 123.185 51.8057 123.017 51.8562C122.809 51.9405 122.59 51.995 122.367 52.018L121.879 52.0989L121.46 52.1258ZM120.282 48.8494H122.299C122.295 48.6704 122.248 48.495 122.164 48.3371C122.091 48.2196 121.994 48.1186 121.879 48.0404C121.786 47.9684 121.681 47.9136 121.568 47.8786H121.338C121.088 47.8783 120.847 47.9695 120.661 48.1348C120.553 48.2231 120.465 48.3318 120.399 48.4544C120.334 48.577 120.294 48.7113 120.282 48.8494Z" fill="#7C7C7C"/>
<path d="M126.889 52.1258C126.571 52.127 126.255 52.0722 125.955 51.964C125.658 51.858 125.387 51.6928 125.156 51.4786C124.921 51.2441 124.737 50.9642 124.615 50.6561C124.47 50.2822 124.401 49.8836 124.411 49.4831C124.396 48.9229 124.532 48.369 124.804 47.8786C125.031 47.4917 125.378 47.1888 125.793 47.0157C126.127 46.8746 126.486 46.7968 126.849 46.7865C127.144 46.7816 127.438 46.8319 127.715 46.9348C127.935 47.0093 128.14 47.1185 128.325 47.2584C128.479 47.3676 128.616 47.4994 128.731 47.6494L128.948 47.9865L127.932 48.6471C127.815 48.4591 127.674 48.2869 127.512 48.1348C127.426 48.0526 127.324 47.9886 127.212 47.9469C127.101 47.9052 126.982 47.8865 126.862 47.8921C126.713 47.8921 126.566 47.9261 126.432 47.9915C126.299 48.057 126.182 48.1521 126.091 48.2696C125.846 48.6047 125.731 49.0163 125.766 49.4291C125.732 49.8439 125.852 50.2565 126.104 50.5887C126.222 50.7259 126.37 50.834 126.537 50.9042C126.704 50.9744 126.885 51.0049 127.065 50.9932C127.372 51.0071 127.677 50.9518 127.959 50.8314C128.151 50.753 128.326 50.6386 128.474 50.4943L128.88 51.573C128.629 51.7403 128.355 51.8719 128.067 51.964C127.685 52.0752 127.288 52.1297 126.889 52.1258Z" fill="#7C7C7C"/>
<path d="M129.814 52.0045V44.9663H131.168V47.2584C131.349 47.1213 131.55 47.0123 131.764 46.9349C132.061 46.8196 132.38 46.769 132.698 46.7865C133.143 46.7667 133.58 46.9053 133.931 47.1775C134.213 47.4185 134.408 47.7454 134.486 48.1079C134.551 48.3957 134.587 48.6893 134.594 48.9843V52.0045H133.24V49.0787C133.266 48.7566 133.174 48.436 132.983 48.1753C132.909 48.0886 132.818 48.0184 132.716 47.9696C132.613 47.9207 132.501 47.8943 132.387 47.8922C132.174 47.8865 131.964 47.9377 131.778 48.0405C131.59 48.1383 131.413 48.2558 131.25 48.391V52.0045H129.814Z" fill="#7C7C7C"/>
<path d="M135.813 52.0045V46.9213H137.058V47.3258C137.269 47.149 137.513 47.016 137.776 46.9348C138.037 46.8399 138.311 46.7898 138.589 46.7865C138.974 46.7738 139.355 46.8722 139.685 47.0696C139.991 47.2514 140.218 47.5397 140.322 47.8786C140.447 48.2386 140.511 48.6168 140.511 48.9977V52.0045H139.157V49.1056C139.177 48.7861 139.091 48.4689 138.914 48.2022C138.825 48.0997 138.715 48.0185 138.591 47.9648C138.466 47.9111 138.331 47.8862 138.196 47.8921C137.986 47.8896 137.78 47.9456 137.6 48.0539C137.427 48.1485 137.267 48.2665 137.126 48.4045V52.0045H135.813Z" fill="#7C7C7C"/>
<path d="M144.113 52.1258C143.726 52.1302 143.343 52.052 142.989 51.8966C142.674 51.7373 142.397 51.5119 142.177 51.2359C141.969 50.9837 141.808 50.6959 141.703 50.3865C141.57 49.9922 141.518 49.5752 141.55 49.1605C141.583 48.7457 141.699 48.3418 141.893 47.973C142.11 47.5674 142.451 47.2414 142.867 47.0427C143.251 46.8527 143.672 46.7513 144.1 46.746C144.644 46.7302 145.178 46.8964 145.616 47.2179C146 47.4811 146.289 47.8589 146.442 48.2966C146.574 48.6512 146.647 49.0245 146.659 49.4022C146.661 49.9062 146.536 50.4025 146.293 50.8449C146.177 51.0762 146.016 51.2824 145.819 51.4516C145.646 51.6044 145.455 51.7357 145.251 51.8427C145.058 51.9359 144.853 51.9996 144.641 52.0314C144.469 52.0807 144.292 52.1124 144.113 52.1258ZM144.113 50.9932C144.325 51.014 144.537 50.9564 144.709 50.8314C144.863 50.7146 144.992 50.5678 145.088 50.4C145.181 50.2367 145.245 50.0589 145.278 49.8741C145.301 49.7312 145.301 49.5855 145.278 49.4427C145.286 49.193 145.24 48.9445 145.142 48.7146C145.073 48.5334 144.967 48.3683 144.831 48.2292C144.718 48.1093 144.579 48.017 144.425 47.9595C144.308 47.9363 144.189 47.9363 144.073 47.9595C143.93 47.9572 143.788 47.9835 143.655 48.0368C143.523 48.09 143.402 48.1692 143.301 48.2696C143.211 48.3675 143.133 48.4762 143.071 48.5932L142.935 48.9303C142.93 49.0336 142.93 49.1371 142.935 49.2404V49.4966C142.907 49.6979 142.907 49.902 142.935 50.1033C142.987 50.2799 143.065 50.448 143.165 50.6022C143.265 50.7377 143.395 50.8484 143.544 50.9258C143.724 50.9993 143.921 51.0226 144.113 50.9932Z" fill="#7C7C7C"/>
<path d="M149.083 52.1259C148.833 52.1411 148.583 52.0996 148.351 52.0045C148.183 51.921 148.035 51.8013 147.918 51.654C147.813 51.5256 147.743 51.3723 147.715 51.209C147.703 51.0654 147.703 50.9211 147.715 50.7775V44.9663H149.069V50.5214C149.055 50.6564 149.094 50.7917 149.177 50.8989C149.271 50.968 149.386 51.0015 149.502 50.9933C149.656 50.9947 149.809 50.9624 149.949 50.8989L150.193 51.8967C150.068 51.9566 149.936 52.0019 149.8 52.0315C149.567 52.0985 149.325 52.1304 149.083 52.1259Z" fill="#7C7C7C"/>
<path d="M153.104 52.1258C152.717 52.1301 152.334 52.052 151.98 51.8965C151.673 51.7475 151.401 51.5362 151.181 51.2763C150.969 51.0266 150.808 50.7381 150.707 50.4269C150.574 50.0326 150.522 49.6156 150.555 49.2009C150.587 48.7861 150.704 48.3822 150.897 48.0134C151.112 47.611 151.448 47.2857 151.858 47.0831C152.246 46.8929 152.672 46.7915 153.104 46.7864C153.648 46.7706 154.182 46.9368 154.621 47.2583C155 47.5254 155.288 47.9019 155.447 48.337C155.578 48.6916 155.651 49.0649 155.663 49.4426C155.666 49.9466 155.54 50.4429 155.298 50.8853C155.181 51.1166 155.02 51.3228 154.824 51.492C154.648 51.6481 154.453 51.7797 154.242 51.8831C154.055 51.9782 153.853 52.0419 153.646 52.0718C153.468 52.1079 153.286 52.1259 153.104 52.1258ZM153.104 50.9932C153.316 51.0127 153.527 50.9552 153.7 50.8314C153.854 50.7145 153.983 50.5678 154.079 50.3999C154.172 50.2367 154.236 50.0588 154.269 49.8741C154.292 49.7312 154.292 49.5855 154.269 49.4426C154.271 49.1935 154.225 48.9463 154.133 48.7145C154.059 48.5326 153.948 48.3674 153.808 48.2291C153.7 48.1099 153.566 48.0175 153.416 47.9595C153.299 47.9362 153.18 47.9362 153.064 47.9595C152.92 47.9564 152.778 47.9823 152.646 48.0356C152.513 48.0889 152.393 48.1685 152.292 48.2696C152.202 48.3675 152.124 48.4762 152.062 48.5932L151.926 48.9303C151.921 49.0336 151.921 49.1371 151.926 49.2404C151.926 49.3482 151.926 49.4291 151.926 49.4965C151.925 49.7016 151.952 49.9058 152.007 50.1033C152.053 50.282 152.131 50.451 152.238 50.6022C152.332 50.737 152.458 50.8479 152.603 50.9258C152.763 50.9858 152.934 51.0089 153.104 50.9932Z" fill="#7C7C7C"/>
<path d="M158.724 54.1078C158.498 54.1216 158.272 54.1216 158.046 54.1078L157.41 54L156.909 53.8651L156.638 53.7573L156.923 52.6112C157.156 52.7268 157.401 52.8172 157.654 52.8809C157.965 52.9747 158.29 53.0202 158.615 53.0157C158.92 53.0365 159.223 52.961 159.482 52.8C159.572 52.739 159.645 52.6563 159.695 52.5597C159.745 52.4631 159.769 52.3557 159.766 52.2472V51.9101C159.519 51.9738 159.264 52.0055 159.008 52.0045C158.619 52.0127 158.232 51.9439 157.87 51.8022C157.566 51.6735 157.293 51.4803 157.072 51.2359C156.849 50.9945 156.678 50.7099 156.571 50.4C156.424 49.9978 156.368 49.5686 156.405 49.1424C156.443 48.7163 156.573 48.3034 156.787 47.9326C157.041 47.5312 157.415 47.2197 157.857 47.0427C158.288 46.8707 158.747 46.7793 159.211 46.773C159.572 46.7516 159.933 46.7516 160.294 46.773C160.646 46.773 160.917 46.773 161.12 46.8809V51.8022C161.143 52.107 161.099 52.4131 160.991 52.6994C160.884 52.9857 160.715 53.2454 160.497 53.4606C160.009 53.8914 159.376 54.1225 158.724 54.1078ZM159.211 50.8854C159.318 50.9092 159.429 50.9092 159.536 50.8854L159.766 50.791V47.9326H159.495H159.238C158.87 47.9156 158.506 48.025 158.209 48.2427C158.099 48.3366 158.004 48.4456 157.925 48.5663C157.864 48.6687 157.814 48.7772 157.776 48.8899C157.763 48.9928 157.763 49.097 157.776 49.2C157.77 49.2808 157.77 49.3619 157.776 49.4427C157.757 49.8312 157.887 50.2123 158.141 50.5078C158.282 50.6441 158.45 50.7484 158.635 50.8136C158.819 50.8788 159.016 50.9033 159.211 50.8854Z" fill="#7C7C7C"/>
<path d="M162.217 54.0269L162.095 52.8539C162.456 52.8599 162.817 52.8145 163.165 52.719C163.444 52.6466 163.694 52.4914 163.883 52.2741L163.964 52.1528C163.959 52.1124 163.959 52.0717 163.964 52.0314L161.784 46.9213H163.246L164.736 50.8314L165.196 49.8876C165.304 49.591 165.399 49.2943 165.48 48.9977C165.629 48.4853 165.751 48.0539 165.846 47.6494C165.941 47.2449 166.008 47.0292 166.063 46.8539H167.417C167.175 47.8026 166.886 48.7386 166.55 49.6584C166.293 50.3977 165.986 51.1185 165.629 51.8157C165.403 52.2537 165.136 52.6691 164.83 53.0561C164.554 53.3648 164.198 53.5931 163.801 53.7168C163.294 53.9079 162.759 54.0127 162.217 54.0269Z" fill="#7C7C7C"/>
</g>
<defs>
<linearGradient id="paint0_linear_301_932" x1="55.5979" y1="53.2449" x2="41.1381" y2="25.9309" gradientUnits="userSpaceOnUse">
<stop stop-color="#942314"/>
<stop offset="0.12" stop-color="#A71E14"/>
<stop offset="0.33" stop-color="#C11613"/>
<stop offset="0.54" stop-color="#D41113"/>
<stop offset="0.76" stop-color="#DF0E13"/>
<stop offset="1" stop-color="#E30D13"/>
</linearGradient>
<linearGradient id="paint1_linear_301_932" x1="337.707" y1="623.623" x2="635.04" y2="469.03" gradientUnits="userSpaceOnUse">
<stop stop-color="#942314"/>
<stop offset="0.12" stop-color="#A71E14"/>
<stop offset="0.33" stop-color="#C11613"/>
<stop offset="0.54" stop-color="#D41113"/>
<stop offset="0.76" stop-color="#DF0E13"/>
<stop offset="1" stop-color="#E30D13"/>
</linearGradient>
<linearGradient id="paint2_linear_301_932" x1="333.457" y1="734.758" x2="570.618" y2="638.309" gradientUnits="userSpaceOnUse">
<stop stop-color="#942314"/>
<stop offset="0.12" stop-color="#A71E14"/>
<stop offset="0.33" stop-color="#C11613"/>
<stop offset="0.54" stop-color="#D41113"/>
<stop offset="0.76" stop-color="#DF0E13"/>
<stop offset="1" stop-color="#E30D13"/>
</linearGradient>
<linearGradient id="paint3_linear_301_932" x1="521.17" y1="609.353" x2="659.68" y2="463.013" gradientUnits="userSpaceOnUse">
<stop stop-color="#942314"/>
<stop offset="0.12" stop-color="#A71E14"/>
<stop offset="0.33" stop-color="#C11613"/>
<stop offset="0.54" stop-color="#D41113"/>
<stop offset="0.76" stop-color="#DF0E13"/>
<stop offset="1" stop-color="#E30D13"/>
</linearGradient>
<linearGradient id="paint4_linear_301_932" x1="1009.63" y1="1485.27" x2="570.306" y2="1418.13" gradientUnits="userSpaceOnUse">
<stop stop-color="#942314"/>
<stop offset="0.12" stop-color="#A71E14"/>
<stop offset="0.33" stop-color="#C11613"/>
<stop offset="0.54" stop-color="#D41113"/>
<stop offset="0.76" stop-color="#DF0E13"/>
<stop offset="1" stop-color="#E30D13"/>
</linearGradient>
<linearGradient id="paint5_linear_301_932" x1="45.0633" y1="2.00893" x2="51.268" y2="33.7852" gradientUnits="userSpaceOnUse">
<stop stop-color="#942314"/>
<stop offset="0.06" stop-color="#A71E14"/>
<stop offset="0.16" stop-color="#C11613"/>
<stop offset="0.26" stop-color="#D41113"/>
<stop offset="0.37" stop-color="#DF0E13"/>
<stop offset="0.48" stop-color="#E30D13"/>
<stop offset="1" stop-color="#942314"/>
</linearGradient>
<linearGradient id="paint6_linear_301_932" x1="413.672" y1="689.801" x2="611.539" y2="429.571" gradientUnits="userSpaceOnUse">
<stop stop-color="#942314"/>
<stop offset="0.12" stop-color="#A71E14"/>
<stop offset="0.33" stop-color="#C11613"/>
<stop offset="0.54" stop-color="#D41113"/>
<stop offset="0.76" stop-color="#DF0E13"/>
<stop offset="1" stop-color="#E30D13"/>
</linearGradient>
<clipPath id="clip0_301_932">
<rect width="209" height="60" fill="white"/>
</clipPath>
</defs>
</svg>
