<svg width="2832" height="124" viewBox="0 0 2832 124" fill="none" xmlns="http://www.w3.org/2000/svg">
<path d="M1382.5 98.9456C1227.44 98.9456 1043.32 10.3981 918.5 7.0003C793.68 3.60248 731.517 94.8054 559 104C302.556 117.668 2.5 15.0003 2.5 15.0003L0 124H35.4H217.12H436.6H653.721H870.841H1090.32H1307.44H1524.56H1741.68H1961.16H2178.28H2395.4H2614.88H2796.6H2832V112.437L2796.6 98.9456C2758.84 85.4545 2685.68 58.4723 2614.88 56.5451C2541.72 54.6173 2436.66 92.3546 2363.5 88.5C2292.7 84.6454 2099 6.99993 1897 7.0003C1695 7.00066 1537.56 98.9456 1382.5 98.9456Z" fill="white"/>
</svg>