<svg width="1462" height="223" viewBox="0 0 1462 223" fill="none" xmlns="http://www.w3.org/2000/svg">
<g clip-path="url(#clip0_966_9269)">
<path fill-rule="evenodd" clip-rule="evenodd" d="M2874.15 131.972L2808.01 138.438C2737.46 144.905 2600.77 157.837 2468.48 172.925C2331.79 188.013 2151.04 98.0344 2014.35 104.501C1882.08 110.967 1789.44 213.878 1652.74 211.723C1516.05 209.567 1383.77 92.2771 1247.08 81.5005C1110.39 70.7233 973.696 166.458 837.005 168.614C704.716 170.769 557.971 68.344 421.28 70.4999C232.483 73.4776 259.163 92.3243 58.63 119C-65.4084 135.5 -11.1105 128 -240.756 147.06C-483.353 172.5 -481.361 0.208083 -749.363 0.20806C-845.052 -9.49836 -929.495 83.8228 -1139.73 83.8228C-1349.96 83.8227 -1469.14 162.148 -1601.41 166.458C-1738.1 170.769 -1874.79 144.904 -2011.49 147.06C-2143.77 149.215 -2280.47 179.391 -2351.01 194.479L-2417.16 209.566L-2417.16 222.5L-2351.01 222.5C-2280.47 222.5 -2143.77 222.5 -2011.49 222.5C-1874.79 222.5 -1738.1 222.5 -1601.41 222.5C-1469.14 222.5 -1332.44 222.5 -1195.74 222.5C-1059.05 222.5 -926.774 222.5 -790.082 222.5C-653.391 222.5 -516.7 222.5 -380.009 222.5C-247.72 222.5 -111.029 222.5 25.6621 222.5C162.353 222.5 294.643 222.5 431.334 222.5C568.025 222.5 704.716 222.5 837.005 222.5C973.696 222.5 1110.39 222.5 1247.08 222.5C1383.77 222.5 1516.05 222.5 1652.74 222.5C1789.44 222.5 1926.13 222.5 2058.41 222.5C2195.1 222.5 2331.79 222.5 2468.48 222.5C2600.77 222.5 2737.46 222.5 2808.01 222.5L2874.15 222.5L2874.15 131.972Z" fill="white"/>
</g>
<defs>
<clipPath id="clip0_966_9269">
<rect width="1462" height="223" fill="white"/>
</clipPath>
</defs>
</svg>
