<?xml version="1.0" standalone="no"?>
<!DOCTYPE svg PUBLIC "-//W3C//DTD SVG 20010904//EN"
 "http://www.w3.org/TR/2001/REC-SVG-20010904/DTD/svg10.dtd">
<svg version="1.0" xmlns="http://www.w3.org/2000/svg"
 width="260.000000pt" height="260.000000pt" viewBox="0 0 260.000000 260.000000"
 preserveAspectRatio="xMidYMid meet">
<metadata>
Created by potrace 1.14, written by Peter Selinger 2001-2017
</metadata>
<g transform="translate(0.000000,260.000000) scale(0.100000,-0.100000)"
fill="#000000" stroke="none">
<path d="M1287 2594 c-2 -2 -137 -14 -169 -15 -10 0 -18 -6 -18 -12 0 -7 -4
-6 -10 3 -6 9 -10 10 -10 3 0 -6 -9 -10 -20 -8 -11 2 -20 -1 -20 -6 0 -6 -4
-8 -8 -5 -8 5 -59 -6 -102 -22 -15 -5 -19 -6 -50 -13 -8 -2 -17 -6 -20 -10 -3
-3 -27 -13 -55 -24 -27 -10 -62 -27 -77 -37 -16 -11 -28 -16 -28 -13 0 3 -15
-4 -32 -17 -18 -13 -36 -23 -40 -23 -4 0 -17 -8 -28 -17 -11 -10 -23 -18 -27
-18 -7 0 -95 -70 -105 -85 -4 -5 -8 -7 -8 -3 0 9 -138 -131 -169 -172 -14 -19
-32 -39 -38 -43 -7 -4 -13 -14 -13 -22 0 -7 -4 -15 -8 -17 -21 -8 -130 -212
-124 -230 1 -5 -2 -8 -7 -8 -4 0 -18 -35 -31 -77 -12 -43 -25 -82 -28 -88 -3
-5 -7 -16 -8 -25 -1 -8 -4 -28 -8 -45 -26 -120 -27 -372 -2 -485 3 -14 8 -36
11 -49 4 -24 31 -112 42 -141 4 -8 7 -17 7 -20 1 -3 8 -16 16 -30 7 -14 13
-26 12 -28 -4 -5 42 -97 50 -100 4 -2 8 -8 8 -14 0 -5 14 -30 32 -56 18 -26
31 -49 29 -51 -1 -2 1 -7 6 -10 4 -3 30 -33 57 -66 70 -85 143 -154 241 -227
17 -12 33 -27 37 -33 5 -6 8 -6 8 0 0 7 3 7 8 0 11 -16 92 -66 92 -58 0 5 4 3
8 -2 8 -12 64 -39 75 -37 4 1 7 -2 7 -6 0 -4 24 -16 53 -26 28 -10 61 -22 72
-26 86 -36 268 -70 400 -73 53 -2 95 1 95 6 0 5 7 4 15 -3 12 -10 15 -10 15 1
0 11 2 11 10 -1 5 -8 10 -10 10 -5 0 6 19 10 43 10 23 -1 47 1 52 4 6 3 19 7
30 8 136 20 314 80 345 118 7 8 18 15 24 15 18 0 86 74 86 93 0 9 4 17 9 17
28 0 -24 161 -68 207 -12 12 -21 25 -21 28 0 10 -114 120 -122 117 -4 -1 -8 2
-8 6 0 4 -24 26 -52 47 -29 22 -59 46 -66 52 -7 7 -17 13 -20 13 -4 0 -18 10
-32 23 -14 13 -47 38 -75 57 -27 19 -56 40 -65 46 -8 7 -44 34 -80 61 -36 26
-66 51 -68 55 -2 5 -8 8 -14 8 -5 0 -15 6 -22 13 -7 6 -25 21 -40 32 -15 11
-42 32 -58 46 l-31 26 29 19 c16 11 41 30 55 44 103 98 167 160 163 160 -3 0
5 10 18 23 54 55 166 205 171 230 1 6 5 14 8 17 15 13 58 103 53 111 -3 5 -1
9 4 9 8 0 30 58 40 105 2 11 4 25 6 30 1 6 4 15 8 20 6 11 8 29 11 125 1 36 7
68 12 72 6 4 24 5 40 2 17 -3 41 -7 55 -9 99 -14 290 -82 290 -103 0 -14 -33
-107 -40 -112 -3 -3 -16 -26 -28 -51 -12 -25 -31 -55 -41 -66 -11 -11 -17 -23
-14 -27 3 -3 -2 -8 -11 -12 -9 -3 -16 -10 -16 -15 0 -11 -150 -161 -150 -151
0 4 -6 0 -13 -8 -7 -9 -37 -32 -67 -52 -30 -20 -69 -49 -86 -65 -33 -30 -79
-93 -69 -93 4 0 -1 -7 -9 -16 -28 -27 -25 -157 5 -215 21 -42 117 -149 134
-149 6 0 16 -9 23 -20 7 -11 17 -20 23 -20 6 0 17 -6 24 -14 8 -7 62 -51 121
-97 242 -189 326 -304 288 -396 -7 -18 -10 -33 -6 -33 4 0 -1 -5 -10 -11 -10
-5 -18 -14 -18 -20 0 -12 15 0 93 76 88 85 123 130 154 194 15 31 32 59 38 63
5 4 6 8 2 8 -4 0 -3 8 2 18 7 13 6 23 -1 30 -9 9 -9 12 1 12 7 0 9 4 6 10 -3
5 -8 18 -10 27 -7 38 -10 48 -20 60 -18 24 -105 113 -111 113 -5 0 -65 41 -74
50 -3 3 -42 30 -87 59 -46 30 -83 58 -83 63 0 4 -3 7 -7 6 -5 -1 -20 6 -35 15
l-26 18 41 43 c63 65 107 116 107 124 0 4 10 18 23 32 13 14 32 41 43 60 10
19 21 37 24 40 3 3 15 25 26 50 12 25 30 64 41 87 11 23 15 39 9 36 -7 -5 -7
-2 1 8 6 8 14 32 18 54 4 22 9 49 12 60 11 57 0 233 -15 260 -4 6 -8 19 -9 30
-2 11 -13 40 -25 65 -12 25 -22 48 -22 52 -1 3 -11 18 -23 32 -13 15 -23 30
-23 35 0 5 -11 18 -25 29 -14 11 -25 25 -25 30 0 6 -9 14 -20 17 -11 4 -18 11
-15 16 4 5 0 9 -9 9 -8 0 -16 4 -18 8 -4 12 -125 92 -137 92 -6 0 -11 5 -11
10 0 6 -9 10 -19 10 -11 0 -21 3 -23 8 -3 7 -88 52 -100 52 -4 0 -19 5 -35 11
-15 6 -30 10 -33 11 -3 0 -9 3 -15 8 -11 9 -127 41 -157 43 -10 1 -18 6 -18
12 0 5 -5 3 -10 -5 -5 -8 -10 -10 -10 -5 0 6 -14 11 -30 12 -19 1 -28 -2 -24
-8 7 -12 8 -244 1 -256 -3 -5 -8 -29 -12 -53 -4 -25 -11 -48 -17 -51 -6 -4 -7
-12 -4 -18 4 -6 2 -11 -3 -11 -6 0 -11 -6 -11 -13 0 -34 -117 -233 -176 -299
-13 -15 -24 -30 -24 -32 0 -7 -143 -147 -184 -181 -20 -16 -45 -38 -56 -47
-11 -10 -23 -18 -27 -19 -5 -1 -39 -22 -77 -48 -89 -59 -191 -161 -207 -206
-7 -19 -17 -35 -23 -35 -5 0 -7 -3 -3 -6 3 -3 1 -18 -5 -33 -13 -33 -18 -181
-6 -181 5 0 7 -4 3 -10 -6 -10 52 -133 66 -138 5 -2 9 -8 9 -13 0 -19 138
-148 250 -234 36 -28 67 -52 70 -55 3 -3 23 -18 45 -35 22 -16 44 -35 48 -42
4 -7 14 -13 21 -13 7 0 22 -8 33 -18 29 -24 68 -55 93 -72 12 -8 34 -25 48
-37 15 -13 31 -23 35 -23 5 0 5 -6 1 -12 -4 -7 -4 -10 1 -6 14 13 182 -140
182 -166 0 -8 -5 -12 -10 -9 -6 3 -20 7 -31 9 -67 9 -94 15 -124 23 -18 5 -35
10 -37 10 -3 1 -6 1 -7 2 -10 3 -46 10 -60 11 -10 1 -18 5 -18 9 0 4 -12 9
-27 12 -16 3 -41 11 -58 18 -16 7 -36 11 -42 10 -7 -1 -13 3 -13 9 0 5 -6 10
-13 10 -39 0 -367 198 -367 221 0 5 -5 9 -11 9 -7 0 -53 42 -103 94 -100 103
-119 124 -136 155 -6 12 -16 18 -22 15 -6 -4 -8 -3 -4 4 3 6 0 16 -7 24 -19
20 -35 113 -35 208 0 75 4 109 23 205 6 28 55 147 66 161 5 6 6 14 2 17 -3 4
-2 7 4 7 6 0 13 8 15 18 8 30 124 185 190 252 95 97 221 198 241 192 4 -1 7 2
7 8 0 5 13 16 29 25 16 8 35 20 43 27 7 8 26 23 42 36 16 12 25 22 21 22 -4 0
4 11 19 25 14 13 26 27 26 30 0 3 8 17 17 32 10 14 18 33 19 41 2 8 7 18 12
21 9 6 49 122 58 169 2 12 7 34 10 50 11 55 19 161 15 197 -1 9 -37 16 -44 9z"/>
</g>
</svg>
